<?xml version="1.0" standalone="no"?>
<!DOCTYPE svg PUBLIC "-//W3C//DTD SVG 1.1//EN" "http://www.w3.org/Graphics/SVG/1.1/DTD/svg11.dtd" >
<svg xmlns="http://www.w3.org/2000/svg">
<metadata>
Created by FontPrep 20130207 at Tue Jun 14 11:59:27 2016
 By Dave Green
Copyright 2010, 2012, 2014 Adobe Systems Incorporated (http://www.adobe.com/), with Reserved Font Name `Source'.
</metadata>
<defs>
<font id="84ae6ea343bbb97d896abfc0921b530a" horiz-adv-x='1024' >
  <font-face 
    font-family="SourceSansPro-SemiboldIt"
    font-weight="600"
    font-style="italic"
    font-stretch="normal"
    units-per-em="2048"
    panose-1="2 11 6 3 3 4 3 9 2 4"
    ascent="1536"
    descent="-512"
    x-height="1006"
    cap-height="1339"
    bbox="-436 -596 2329.01 2023"
    underline-thickness="102"
    underline-position="-102"
    slope="-11"
    unicode-range="U+0020-FEFF"
  />
<missing-glyph horiz-adv-x="1323" 
d="M942 258l180 877l-311 -439zM279 258l307 438l-133 439zM377 147h420l-68 226l-51 202h-8l-133 -202zM717 811h8l268 393h-389l60 -198zM66 0l266 1352h985l-266 -1352h-985z" />
    <glyph glyph-name="f_f" unicode="ff" horiz-adv-x="1206" 
d="M666 1450q102 0 206 -49l-73 -158q-61 31 -113 31q-131 0 -164 -166l-20 -102h366l25 116q33 162 121 255t233 93q98 0 197 -49l-72 -157q-57 31 -104 30q-123 0 -156 -166l-25 -122h189l-35 -175h-188l-168 -831h-219l168 831h-367l-166 -831h-219l168 831h-131l33 164
l131 11l20 96q35 162 125 255t238 93z" />
    <glyph glyph-name="f_t" unicode="ft" horiz-adv-x="1241" 
d="M662 1470q96 0 198 -49l-74 -157q-53 31 -104 30q-123 0 -156 -166l-24 -122h325l80 270h185l-54 -270h242l-35 -175h-246l-102 -499q-6 -37 -6 -72q0 -111 117 -110q41 0 94 26l41 -156q-109 -45 -229 -45t-183 67t-63 179q0 57 12 119l102 491h-315l-166 -831h-219
l166 831h-129l33 164l131 11l24 116q33 162 121 255t234 93z" />
    <glyph glyph-name=".notdef" horiz-adv-x="1323" 
d="M942 258l180 877l-311 -439zM279 258l307 438l-133 439zM377 147h420l-68 226l-51 202h-8l-133 -202zM717 811h8l268 393h-389l60 -198zM66 0l266 1352h985l-266 -1352h-985z" />
    <glyph glyph-name=".null" 
 />
    <glyph glyph-name="nonmarkingreturn" horiz-adv-x="681" 
 />
    <glyph glyph-name="space" unicode=" " horiz-adv-x="399" 
 />
    <glyph glyph-name="exclam" unicode="!" horiz-adv-x="628" 
d="M381 144q0 -62 -48 -116q-47 -54 -111 -53q-64 0 -98 36q-34 35 -34 97t49 116t113 54t96 -36q33 -36 33 -98zM223 434l150 940h219l-49 -225l-172 -715h-148z" />
    <glyph glyph-name="quotedbl" unicode="&#x22;" horiz-adv-x="942" 
d="M649 807l45 342l35 225h217l-49 -225l-100 -342h-148zM254 807l45 342l35 225h217l-49 -225l-101 -342h-147z" />
    <glyph glyph-name="numbersign" unicode="#" horiz-adv-x="1009" 
d="M383 551h231l84 270h-231zM74 0l127 401h-158l35 150h168l84 270h-160l37 150h170l115 360h137l-115 -360h229l115 360h137l-114 -360h157l-37 -150h-167l-84 -270h159l-35 -150h-172l-127 -401h-135l127 401h-231l-127 -401h-135z" />
    <glyph glyph-name="dollar" unicode="$" horiz-adv-x="1011" 
d="M645 341q0 81 -44 141t-105 108t-124 96q-151 119 -151 275q1 156 103 260t268 116l39 203h151l-41 -215q139 -39 244 -170l-141 -125q-92 131 -217 131q-85 0 -137 -48q-52 -47 -52 -117t44 -124t106 -98q62 -45 124 -95t106 -127t44 -171q0 -164 -105 -277t-282 -127
l-41 -202h-151l43 211q-178 41 -303 188l137 135q117 -156 270 -155q98 0 157 53q58 53 58 134z" />
    <glyph glyph-name="percent" unicode="%" horiz-adv-x="1658" 
d="M1212 111q92 0 151 116q58 117 58 273q0 190 -118 190q-93 0 -151 -117t-58 -272q-1 -190 118 -190zM1200 -25q-120 -1 -194 89t-74 231q0 213 105 372t278 158q119 0 193 -88t75 -229q1 -215 -105 -374t-278 -159zM283 -25l981 1401h135l-981 -1401h-135zM397 664
q92 0 151 116q58 117 58 273q0 190 -119 190q-92 0 -150 -117t-58 -272q-1 -190 118 -190zM385 528q-119 0 -194 89t-74 231q0 213 105 372t278 158q120 0 194 -88t74 -229q0 -215 -106 -374t-277 -159z" />
    <glyph glyph-name="ampersand" unicode="&#x26;" horiz-adv-x="1245" 
d="M244 324q0 -80 51 -130t151 -51q100 0 220 82q-150 156 -248 353q-174 -125 -174 -254zM502 990q0 -89 20 -156q121 70 185 134q63 65 63 150q0 43 -22 70q-23 27 -66 26q-76 0 -128 -68t-52 -156zM389 -25q-166 0 -262 88t-96 238t86 250t237 188q-39 123 -39 228
q0 169 112 283t269 114q119 0 184 -67t64 -177q0 -145 -118 -257q-93 -87 -246 -181q86 -174 233 -322q137 150 236 377h200q-135 -287 -311 -485q94 -68 203 -102l-88 -175q-135 35 -265 138q-186 -138 -399 -138z" />
    <glyph glyph-name="quotesingle" unicode="'" horiz-adv-x="546" 
d="M254 807l45 342l35 225h217l-49 -225l-101 -342h-147z" />
    <glyph glyph-name="parenleft" unicode="(" horiz-adv-x="634" 
d="M123 286q0 326 119 616t360 597l129 -67q-428 -555 -428 -1180q0 -342 82 -559l-143 -58q-119 325 -119 651z" />
    <glyph glyph-name="parenright" unicode=")" horiz-adv-x="638" 
d="M348 885q0 340 -80 559l142 55q118 -311 118 -644t-118 -623t-361 -597l-127 70q426 553 426 1180z" />
    <glyph glyph-name="asterisk" unicode="*" horiz-adv-x="862" 
d="M356 817l-86 80l148 193l-187 106l52 107l209 -68l59 225l119 -8l-17 -231l221 28l19 -114l-219 -72l78 -209l-107 -61l-117 186z" />
    <glyph glyph-name="plus" unicode="+" horiz-adv-x="1011" 
d="M446 203v395h-348v158h353v389h163v-389h353v-158h-355v-395h-166z" />
    <glyph glyph-name="comma" unicode="," horiz-adv-x="546" 
d="M53 123q0 59 44 107t114 48q69 0 107 -44t38 -123q0 -172 -106 -300t-283 -171l-26 124q209 70 247 232q-59 0 -97 34t-38 93z" />
    <glyph glyph-name="hyphen" unicode="-" horiz-adv-x="634" 
d="M70 436l32 162h465l-35 -162h-462z" />
    <glyph glyph-name="period" unicode="." horiz-adv-x="546" 
d="M336 144q0 -64 -48 -116t-112 -53q-64 0 -96 36q-33 35 -33 97t49 116q50 54 112 54t95 -35t33 -99z" />
    <glyph glyph-name="slash" unicode="/" horiz-adv-x="684" 
d="M-143 -328l823 1782h151l-827 -1782h-147z" />
    <glyph glyph-name="zero" unicode="0" horiz-adv-x="1011" 
d="M440 147q86 -1 165 105t126 277t47 356q0 272 -153 272q-86 0 -165 -106q-79 -107 -126 -279t-47 -358q-1 -267 153 -267zM428 -25q-158 0 -252 123t-94 332q0 389 168 643t389 254q156 0 249 -124t93 -335q0 -387 -166 -640t-387 -253z" />
    <glyph glyph-name="one" unicode="1" horiz-adv-x="1011" 
d="M45 0l37 178h276l179 881h-236l29 139q182 29 309 105h166l-227 -1125h251l-34 -178h-750z" />
    <glyph glyph-name="two" unicode="2" horiz-adv-x="1011" 
d="M739 967q0 82 -47 133q-48 51 -148 51t-229 -117l-108 131q191 162 369 162t278 -92t100 -244q0 -112 -34 -178q-34 -67 -53 -105t-71 -96t-82 -92q-30 -32 -108 -104t-116 -107t-138 -123h500l-35 -186h-842l25 127q399 336 492 424q247 236 247 416z" />
    <glyph glyph-name="three" unicode="3" horiz-adv-x="1011" 
d="M397 -25q-125 -1 -237 61t-185 169l140 114q119 -166 282 -165q123 0 198 62t75 165q0 209 -351 209l33 160q207 0 298 68t91 155q0 178 -182 178q-111 0 -231 -92l-109 143q171 125 359 125t287 -83t100 -222q0 -264 -291 -352v-8q104 -39 160 -112t55 -167
q1 -188 -137 -298t-355 -110z" />
    <glyph glyph-name="four" unicode="4" horiz-adv-x="1011" 
d="M270 510h326l63 309q10 49 34 147t30 128h-8q-113 -172 -154 -226zM698 0h-202l67 338h-547l29 151l657 814h256l-159 -793h159l-32 -172h-160z" />
    <glyph glyph-name="five" unicode="5" horiz-adv-x="1011" 
d="M395 -25q-252 0 -407 228l141 114q113 -164 272 -163q115 0 198 82t83 202q0 226 -207 228q-88 0 -205 -64l-86 70l162 631h658l-37 -185h-467l-88 -319q70 33 147 32q154 0 249 -89t95 -255q1 -227 -151 -369t-357 -143z" />
    <glyph glyph-name="six" unicode="6" horiz-adv-x="1011" 
d="M309 412q1 -123 53 -197t143 -74t155 92q64 93 65 197q0 104 -44 160t-128 55q-125 0 -242 -143q-2 -29 -2 -90zM608 801q144 0 232 -88q88 -87 88 -267t-128 -326t-307 -145q-180 0 -284 125t-105 328q0 397 178 648t453 251q190 0 303 -172l-141 -117q-70 111 -176 111
q-137 0 -243 -129t-148 -354q59 63 137 99t141 36z" />
    <glyph glyph-name="seven" unicode="7" horiz-adv-x="1011" 
d="M225 0q94 373 226 637q131 264 348 481h-588l37 185h835l-26 -140q-189 -174 -315 -379q-126 -204 -182 -374t-107 -410h-228z" />
    <glyph glyph-name="eight" unicode="8" horiz-adv-x="1011" 
d="M483 131q94 0 164 59t70 157t-71 158q-71 59 -185 122q-188 -117 -189 -287q0 -92 58 -150t153 -59zM803 993q0 80 -44 128t-122 48t-134 -53q-57 -53 -57 -140q0 -88 48 -142t151 -107q158 115 158 266zM920 364q0 -176 -132 -282t-305 -107q-173 0 -291 88t-118 252
q0 133 82 229t211 150v8q-115 115 -115 271t117 255t271 99t254 -78t99 -225q0 -225 -241 -360v-9q168 -115 168 -291z" />
    <glyph glyph-name="nine" unicode="9" horiz-adv-x="1011" 
d="M332 -25q-186 0 -303 172l143 117q68 -111 174 -110q135 0 243 129t150 356q-59 -63 -137 -100t-141 -37q-145 0 -234 89q-88 89 -88 267t127 324q126 145 308 145t286 -125t105 -328q1 -397 -179 -648t-454 -251zM516 657q123 0 242 148q2 29 2 86q0 123 -52 197
t-144 73q-92 0 -156 -92q-66 -93 -66 -197t45 -160t129 -55z" />
    <glyph glyph-name="colon" unicode=":" horiz-adv-x="546" 
d="M336 144q0 -64 -48 -116t-112 -53q-64 0 -96 36q-33 35 -33 97t49 116q50 54 112 54t95 -35t33 -99zM300 694q-64 0 -97 36t-33 98t49 115q49 54 111 54q62 1 96 -35q33 -36 33 -100t-48 -116q-47 -52 -111 -52z" />
    <glyph glyph-name="semicolon" unicode=";" horiz-adv-x="546" 
d="M53 123q0 59 44 107t114 48q69 0 107 -44t38 -123q0 -172 -106 -300t-283 -171l-26 124q209 70 247 232q-59 0 -97 34t-38 93zM300 694q-64 0 -97 36t-33 98t49 115q49 54 111 54q62 1 96 -35q33 -36 33 -100t-48 -116q-47 -52 -111 -52z" />
    <glyph glyph-name="less" unicode="&#x3c;" horiz-adv-x="1011" 
d="M967 248l-873 350v158l873 350v-182l-643 -242v-8l643 -240v-186z" />
    <glyph glyph-name="equal" unicode="=" horiz-adv-x="1011" 
d="M98 369v157h869v-157h-869zM98 825v158h869v-158h-869z" />
    <glyph glyph-name="greater" unicode="&#x3e;" horiz-adv-x="1011" 
d="M98 248v186l643 240v8l-643 242v182l873 -350v-158z" />
    <glyph glyph-name="question" unicode="?" horiz-adv-x="874" 
d="M477 144q0 -64 -48 -116q-47 -52 -111 -53q-64 0 -97 36q-33 35 -33 97t50 116t112 54q63 0 95 -35t32 -99zM682 1070q0 67 -41 108t-125 41t-172 -93l-115 127q143 143 313 143t262 -78q93 -79 93 -232t-135 -280q-58 -54 -116 -106q-142 -127 -161 -272l-188 16
q8 92 50 170t97 131q56 53 110 101t91 103q37 54 37 121z" />
    <glyph glyph-name="at" unicode="@" horiz-adv-x="1720" 
d="M797 250q80 0 157 112l70 306q-39 78 -104 77q-100 1 -172 -109t-72 -226q0 -160 121 -160zM750 -332q-283 0 -471 176q-189 176 -189 472t129 530q129 233 340 364t449 131q297 0 468 -174q171 -175 171 -459q1 -284 -133 -452t-328 -168q-74 0 -126 40t-69 114h-6
q-100 -135 -231 -136q-104 0 -175 78t-71 209q0 190 122 343t285 153q96 0 146 -101h4l31 84h137l-103 -448q-47 -195 97 -195q100 0 186 128t86 347q0 218 -126 360t-386 142q-133 0 -266 -66q-283 -140 -410 -446q-66 -160 -65 -334q0 -260 152 -406t370 -147
q139 0 260 72l62 -123q-168 -88 -340 -88z" />
    <glyph glyph-name="A" unicode="A" horiz-adv-x="1083" 
d="M-119 0l717 1339h262l144 -1339h-230l-26 377h-437l-186 -377h-244zM696 1163h-8q-120 -270 -194 -415l-101 -203h342l-14 203q-25 401 -25 415z" />
    <glyph glyph-name="B" unicode="B" horiz-adv-x="1216" 
d="M522 172q354 0 355 252q0 94 -68 146.5t-193 52.5h-206l-91 -451h203zM604 778q160 0 240 60.5t80 165.5q0 164 -252 163h-152l-80 -389h164zM717 1339q203 0 317.5 -76.5t114.5 -211t-84 -224.5t-211 -122l-2 -9q238 -57 238 -269t-157 -319.5t-411 -107.5h-456
l266 1339h385z" />
    <glyph glyph-name="C" unicode="C" horiz-adv-x="1144" 
d="M601 -25q-222 0 -353 148.5t-131 386t89 429t252 308.5t361 117q223 0 342 -205l-151 -117q-82 131 -203 132q-197 0 -331 -194t-134 -437q0 -176 76 -276.5t217 -100.5t272 110l97 -141q-181 -160 -403 -160z" />
    <glyph glyph-name="D" unicode="D" horiz-adv-x="1236" 
d="M451 178q229 0 368 166t139 457q0 176 -94 268t-266 92h-82l-194 -983h129zM604 1339q281 0 430.5 -135t149.5 -389q0 -379 -199 -597t-530 -218h-389l266 1339h272z" />
    <glyph glyph-name="E" unicode="E" horiz-adv-x="1054" 
d="M66 0l266 1339h768l-37 -186h-549l-72 -360h465l-37 -187h-462l-86 -420h565l-37 -186h-784z" />
    <glyph glyph-name="F" unicode="F" horiz-adv-x="1001" 
d="M66 0l266 1339h768l-37 -186h-549l-78 -395h465l-37 -187h-463l-114 -571h-221z" />
    <glyph glyph-name="G" unicode="G" horiz-adv-x="1228" 
d="M623.5 -25q-236.5 0 -371.5 147.5t-135 387t89 430t257 307.5t377 117q236 0 354 -205l-152 -117q-82 131 -215 132q-209 0 -347 -193t-138 -438q0 -176 78 -277.5t246 -101.5q109 0 186 63l66 316h-248l35 180h444l-121 -610q-168 -138 -404.5 -138z" />
    <glyph glyph-name="H" unicode="H" horiz-adv-x="1306" 
d="M66 0l266 1339h221l-111 -542h531l108 542h222l-269 -1339h-221l123 604h-530l-119 -604h-221z" />
    <glyph glyph-name="I" unicode="I" horiz-adv-x="559" 
d="M66 0l266 1339h221l-266 -1339h-221z" />
    <glyph glyph-name="J" unicode="J" horiz-adv-x="970" 
d="M344 -25q-117 0 -210 54.5t-144 150.5l139 129q66 -143 215 -143q178 0 231 266l181 907h221l-189 -942q-37 -190 -148.5 -306t-295.5 -116z" />
    <glyph glyph-name="K" unicode="K" horiz-adv-x="1191" 
d="M66 0l266 1339h221l-121 -606h8l586 606h244l-494 -532l301 -807h-229l-236 668l-241 -246l-84 -422h-221z" />
    <glyph glyph-name="L" unicode="L" horiz-adv-x="985" 
d="M66 0l266 1339h221l-229 -1153h534l-37 -186h-755z" />
    <glyph glyph-name="M" unicode="M" horiz-adv-x="1480" 
d="M66 0l266 1339h246l145 -927h8l133 258l369 669h244l-269 -1339h-209l134 643q41 193 108 420h-6l-164 -303l-354 -629h-103l-110 629l-43 303h-8q-39 -334 -56 -420l-129 -643h-202z" />
    <glyph glyph-name="N" unicode="N" horiz-adv-x="1292" 
d="M66 0l266 1339h217l262 -776l78 -289h8q4 33 20 192t39 265l121 608h213l-268 -1339h-215l-260 774l-78 293h-8q-37 -332 -64 -453l-121 -614h-210z" />
    <glyph glyph-name="O" unicode="O" horiz-adv-x="1325" 
d="M614 166q174 0 302 189.5t128 428.5q0 182 -68.5 286t-201.5 104q-174 0 -301 -189.5t-127 -429.5q0 -182 67.5 -285.5t200.5 -103.5zM602 -25q-225 0 -354 152t-129 412q0 336 195.5 580.5t471.5 244.5q225 0 354.5 -151.5t129.5 -411.5q0 -336 -194.5 -581t-473.5 -245
z" />
    <glyph glyph-name="P" unicode="P" horiz-adv-x="1161" 
d="M590 678q178 0 271 73.5t93 215.5q0 197 -262 196h-176l-94 -485h168zM733 1339q205 0 323 -82.5t118 -259.5q0 -250 -165 -372.5t-438 -122.5h-186l-98 -502h-221l266 1339h401z" />
    <glyph glyph-name="Q" unicode="Q" horiz-adv-x="1325" 
d="M965 -346q-393 0 -514 342q-158 47 -245 188.5t-87 354.5q0 336 195.5 580.5t471.5 244.5q225 0 354.5 -151.5t129.5 -411.5q0 -309 -169 -546t-421 -273q76 -147 299 -148q61 0 123 16l12 -169q-73 -27 -149 -27zM614 166q174 0 302 189.5t128 428.5q0 182 -68.5 286
t-201.5 104q-174 0 -301 -189.5t-127 -429.5q0 -182 67.5 -285.5t200.5 -103.5z" />
    <glyph glyph-name="R" unicode="R" horiz-adv-x="1179" 
d="M598 705q168 0 258 73.5t90 202.5q0 182 -262 182h-168l-88 -458h170zM727 1339q438 0 438 -327q0 -180 -99 -296t-267 -161l221 -555h-236l-194 528h-199l-104 -528h-221l266 1339h395z" />
    <glyph glyph-name="S" unicode="S" horiz-adv-x="1060" 
d="M479 -25q-289 0 -463 244l160 123q127 -178 322 -178q106 0 172.5 55t66.5 148q0 57 -39 99t-123 93l-141 86q-203 125 -203 326q0 162 128 277.5t317 115.5q236 0 393 -197l-141 -129q-121 135 -264 136q-92 0 -148 -54t-56.5 -120t39.5 -105t130 -94l143 -86
q100 -59 147.5 -132t47.5 -186q0 -182 -136.5 -302t-351.5 -120z" />
    <glyph glyph-name="T" unicode="T" horiz-adv-x="1067" 
d="M322 0l229 1151h-371l37 188h963l-37 -188h-371l-229 -1151h-221z" />
    <glyph glyph-name="U" unicode="U" horiz-adv-x="1290" 
d="M379 432q0 -266 237 -266q227 0 302 375l159 798h217l-161 -798q-113 -565 -525 -566q-451 0 -450 445q-1 68 24 203l144 716h221l-150 -749q-18 -86 -18 -158z" />
    <glyph glyph-name="V" unicode="V" horiz-adv-x="1077" 
d="M283 0l-119 1339h229l45 -700q20 -354 23 -436h8q33 72 99.5 218t99.5 218l336 700h239l-694 -1339h-266z" />
    <glyph glyph-name="W" unicode="W" horiz-adv-x="1587" 
d="M176 0l33 1339h225l-31 -688q-2 -16 -12 -182t-18 -252h8q29 70 91.5 216.5t90.5 217.5l305 688h191l12 -688q0 -217 -6 -434h8q29 82 85 231.5t75 202.5l258 688h213l-537 -1339h-278l-4 729q0 104 12 313h-8q-25 -70 -125 -313l-313 -729h-275z" />
    <glyph glyph-name="X" unicode="X" horiz-adv-x="1073" 
d="M-74 0l506 692l-215 647h244l90 -311q11 -38 51 -201h8q27 43 74 116t57 89l203 307h236l-480 -659l234 -680h-244l-98 334q-23 72 -60 211h-6q-84 -125 -141 -217l-223 -328h-236z" />
    <glyph glyph-name="Y" unicode="Y" horiz-adv-x="995" 
d="M283 0l100 504l-215 835h227l76 -352q12 -57 30.5 -156.5t26.5 -138.5h9q139 240 174 297l219 350h237l-563 -835l-100 -504h-221z" />
    <glyph glyph-name="Z" unicode="Z" horiz-adv-x="1062" 
d="M-6 0l29 133l798 1020h-569l37 186h833l-26 -133l-793 -1020h627l-39 -186h-897z" />
    <glyph glyph-name="bracketleft" unicode="[" horiz-adv-x="636" 
d="M4 -311l352 1761h379l-20 -121h-217l-303 -1519h215l-27 -121h-379z" />
    <glyph glyph-name="backslash" unicode="\" horiz-adv-x="684" 
d="M373 -328l-197 1782h146l198 -1782h-147z" />
    <glyph glyph-name="bracketright" unicode="]" horiz-adv-x="638" 
d="M-80 -311l27 121h213l305 1519h-215l22 121h381l-352 -1761h-381z" />
    <glyph glyph-name="asciicircum" unicode="^" horiz-adv-x="1009" 
d="M160 571l301 801h174l303 -801h-180l-113 320l-92 274h-6l-92 -274l-113 -320h-182z" />
    <glyph glyph-name="underscore" unicode="_" horiz-adv-x="987" 
d="M-86 -268l29 131h934l-27 -131h-936z" />
    <glyph glyph-name="grave" unicode="`" horiz-adv-x="1077" 
d="M750 1165l-293 344l188 142l240 -379z" />
    <glyph glyph-name="a" unicode="a" horiz-adv-x="1114" 
d="M448.5 156q149.5 0 264.5 170l82 401q-63 123 -170 123q-129 0 -227.5 -142.5t-98.5 -334.5q0 -217 149.5 -217zM358 -25q-133 0 -209.5 96.5t-76.5 270.5q0 283 163.5 485.5t376.5 202.5q74 0 135.5 -38t96.5 -103h4l43 117h176l-201 -1006h-180l10 139h-6
q-158 -164 -332 -164z" />
    <glyph glyph-name="b" unicode="b" horiz-adv-x="1116" 
d="M669.5 850q-66.5 0 -137.5 -38t-124 -107l-86 -426q61 -123 165 -123q129 0 228.5 143t99.5 336q0 106 -39.5 160.5t-106 54.5zM746.5 1030q142.5 0 218 -95t75.5 -271q0 -283 -163.5 -486t-374.5 -203q-154 0 -228 142h-4l-43 -117h-182l291 1446h219l-72 -356l-49 -193
h4q166 133 308.5 133z" />
    <glyph glyph-name="c" unicode="c" horiz-adv-x="899" 
d="M451 -25q-170 0 -276.5 110t-106.5 300q0 268 170 456.5t407 188.5q160 0 264 -123l-123 -133q-70 78 -155 78q-135 0 -236.5 -136t-101.5 -323q0 -240 203 -239q94 0 190 77l94 -139q-159 -117 -329 -117z" />
    <glyph glyph-name="d" unicode="d" horiz-adv-x="1105" 
d="M299 373q0 -217 147.5 -217t266.5 170l82 401q-63 123 -170 123q-129 0 -227.5 -142.5t-98.5 -334.5zM358 -25q-133 0 -209.5 96.5t-76.5 270.5q0 283 163.5 485.5t376.5 202.5q150 0 222 -133h6l28 193l70 356h219l-291 -1446h-180l10 139h-6q-158 -164 -332 -164z" />
    <glyph glyph-name="e" unicode="e" horiz-adv-x="999" 
d="M587 860q-89 0 -170 -73.5t-118 -200.5h444q32 142 -28 222q-39 52 -128 52zM68 401q0 268 170 448.5t378 180.5q166 0 243 -101.5t77 -269.5q0 -115 -43 -213h-612q-16 -152 54.5 -227.5t179.5 -75.5t218 80l82 -141q-152 -106 -339 -106.5t-297.5 113t-110.5 312.5z
" />
    <glyph glyph-name="f" unicode="f" horiz-adv-x="624" 
d="M662 1470q102 0 198 -51l-74 -155q-53 31 -104 30q-123 0 -156 -166l-24 -122h190l-35 -175h-192l-164 -831h-219l166 831h-129l33 164l133 11l22 116q33 162 121 255t234 93z" />
    <glyph glyph-name="g" unicode="g" horiz-adv-x="1101" 
d="M444 203q150 0 261 151l75 373q-68 123 -168 123q-123 0 -218 -134t-95 -313q0 -98 38.5 -149t106.5 -51zM353.5 -446q-195.5 0 -367.5 139l98 147q137 -111 270 -110q221 0 287 254l51 194q-154 -158 -327 -158q-133 0 -213 91.5t-80 263.5q0 268 159.5 461.5
t368.5 193.5q74 0 134.5 -38t92.5 -103h7l43 117h178l-205 -1020q-43 -211 -172 -321.5t-324.5 -110.5z" />
    <glyph glyph-name="h" unicode="h" horiz-adv-x="1091" 
d="M768 1030q238 0 238 -254q0 -70 -17 -141l-127 -635h-219l123 606q16 94 16 107q0 129 -127 129q-100 0 -254 -156l-135 -686h-221l291 1446h219l-88 -426l-39 -146h8q180 156 332 156z" />
    <glyph glyph-name="i" unicode="i" horiz-adv-x="514" 
d="M415 1184q-56 0 -93 30.5t-37 86.5t43 98.5t99 42.5t93 -31t37 -88t-43 -98t-99 -41zM45 0l203 1006h219l-201 -1006h-221z" />
    <glyph glyph-name="j" unicode="j" horiz-adv-x="516" 
d="M419 1184q-56 0 -94 30.5t-38 86.5t43 98.5t99 42.5t94 -31t38 -88t-43 -98t-99 -41zM-86 -422q-94 0 -176 41l69 160q41 -25 92.5 -25t82 41t51.5 131l217 1080h219l-217 -1084q-74 -344 -338 -344z" />
    <glyph glyph-name="k" unicode="k" horiz-adv-x="1026" 
d="M45 0l291 1446h219l-182 -909h8l444 469h246l-405 -431l239 -575h-221l-172 446l-197 -198l-49 -248h-221z" />
    <glyph glyph-name="l" unicode="l" horiz-adv-x="536" 
d="M252 -25q-170 0 -170 164q0 47 14 107l240 1200h219l-242 -1210q-4 -20 -4 -39q0 -43 35 -43q18 0 37 6l-4 -164q-51 -21 -125 -21z" />
    <glyph glyph-name="m" unicode="m" horiz-adv-x="1665" 
d="M750 1030q199 0 233 -186q197 186 348 186q238 0 238 -254q0 -55 -17 -141l-127 -635h-221l123 606q16 76 16 107q0 129 -122 129q-92 0 -240 -156l-137 -686h-219l120 606q16 76 17 107q0 129 -121 129q-96 0 -240 -156l-135 -686h-221l201 1006h178l-10 -142h8
q188 166 328 166z" />
    <glyph glyph-name="n" unicode="n" horiz-adv-x="1103" 
d="M768 1030q238 0 238 -254q0 -70 -17 -141l-127 -635h-219l123 606q16 94 16 107q0 129 -127 129q-100 0 -254 -156l-135 -686h-221l201 1006h178l-10 -142h8q197 166 346 166z" />
    <glyph glyph-name="o" unicode="o" horiz-adv-x="1073" 
d="M469 154q123 0 215 135t92 325q0 115 -45 176.5t-131 61.5q-123 0 -216 -135t-93 -324q0 -115 46 -177t132 -62zM444 -25q-170 0 -272 112t-102 298q0 279 169 462t384 183q172 0 274 -110.5t102 -298.5q0 -276 -169 -461t-386 -185z" />
    <glyph glyph-name="p" unicode="p" horiz-adv-x="1114" 
d="M669.5 850q-66.5 0 -137.5 -38t-124 -107l-86 -431q61 -119 165 -118q129 0 228.5 143t99.5 336q0 106 -39.5 160.5t-106 54.5zM743.5 1030q145.5 0 221 -95t75.5 -271q0 -283 -163.5 -486t-374.5 -203q-141 0 -223 131h-5l-32 -204l-58 -299h-219l283 1403h178l-4 -123
h6q170 147 315.5 147z" />
    <glyph glyph-name="q" unicode="q" horiz-adv-x="1114" 
d="M299 373q0 -217 147.5 -217t266.5 170l82 401q-63 123 -170 123q-129 0 -227.5 -142.5t-98.5 -334.5zM358 -25q-133 0 -209.5 96.5t-76.5 270.5q0 283 163.5 485.5t376.5 202.5q74 0 135.5 -38t96.5 -103h4l43 117h176l-281 -1403h-221l62 299l69 239h-4
q-160 -166 -334 -166z" />
    <glyph glyph-name="r" unicode="r" horiz-adv-x="743" 
d="M725 1030q61 0 100 -18l-73 -193q-33 16 -95 17q-152 0 -272 -228l-119 -608h-221l201 1006h178l-18 -195h8q139 219 311 219z" />
    <glyph glyph-name="s" unicode="s" horiz-adv-x="845" 
d="M340 -25q-96 0 -196.5 54.5t-155.5 138.5l131 106q102 -135 237 -135q72 0 124 38t52 88t-37.5 83t-142.5 90q-215 119 -215 279q0 135 106.5 224t273.5 89t302 -143l-123 -117q-94 94 -192 94q-68 0 -114 -36.5t-46 -90.5q0 -71 172 -157q117 -61 170 -127t53 -156
q0 -145 -111.5 -233.5t-287.5 -88.5z" />
    <glyph glyph-name="t" unicode="t" horiz-adv-x="708" 
d="M381.5 -25q-119.5 0 -183 67t-63.5 179q0 37 12 119l103 491h-141l32 164l154 11l80 270h184l-53 -270h242l-35 -175h-246l-102 -499q-6 -37 -7 -72q0 -111 117 -110q41 0 94 26l41 -156q-109 -45 -228.5 -45z" />
    <glyph glyph-name="u" unicode="u" horiz-adv-x="1099" 
d="M336 -25q-240 0 -240 254q0 59 17 142l127 635h219l-121 -607q-16 -76 -16 -106q0 -129 124 -129q100 0 248 155l135 687h220l-199 -1006h-178l8 143h-8q-186 -168 -336 -168z" />
    <glyph glyph-name="v" unicode="v" horiz-adv-x="970" 
d="M258 0l-137 1006h219l53 -535q6 -51 21 -305h8q79 160 141 305l260 535h217l-524 -1006h-258z" />
    <glyph glyph-name="w" unicode="w" horiz-adv-x="1490" 
d="M377 178h8q98 248 117 289l233 539h201l27 -539q4 -98 4 -289h8q92 244 110 289l224 539h204l-442 -1006h-262l-18 483l-3 297h-8q-14 -35 -35.5 -96t-41 -110.5t-35.5 -90.5l-207 -483h-256l-60 1006h217l17 -539q2 -55 0 -155.5t-2 -133.5z" />
    <glyph glyph-name="x" unicode="x" horiz-adv-x="942" 
d="M-86 0l438 537l-182 469h223l74 -197q39 -125 53 -170h8q86 123 117 170l139 197h236l-404 -519l195 -487h-225l-76 205q-37 111 -66 180h-8q-45 -68 -127 -178l-157 -207h-238z" />
    <glyph glyph-name="y" unicode="y" horiz-adv-x="970" 
d="M31 -414q-66 0 -129 37l69 160q97 -55 197 29q60 50 102 137l31 61l-174 996h219l64 -508q18 -164 24 -301h8q16 33 65.5 140t76.5 161l250 508h213l-566 -1059q-102 -180 -205.5 -270.5t-244.5 -90.5z" />
    <glyph glyph-name="z" unicode="z" horiz-adv-x="874" 
d="M-20 0l24 125l598 706h-409l34 175h686l-24 -127l-600 -705h473l-35 -174h-747z" />
    <glyph glyph-name="braceleft" unicode="{" horiz-adv-x="632" 
d="M283 -311q-100 0 -145 42q-44 42 -44 128q0 85 54 281t55 245q0 115 -144 119l29 131q172 4 201 162q12 59 27 176t30 192q33 161 95 223t192 62h112l-26 -121h-45q-70 0 -103 -40q-33 -39 -48 -117t-33 -196t-36 -199q-35 -174 -180 -210l-2 -8q102 -29 103 -135
q0 -74 -50 -270q-51 -196 -51 -249q0 -52 22 -74t79 -21h41l-25 -121h-108z" />
    <glyph glyph-name="bar" unicode="|" horiz-adv-x="497" 
d="M188 -512v2048h142v-2048h-142z" />
    <glyph glyph-name="braceright" unicode="}" horiz-adv-x="638" 
d="M-20 -190q70 0 104 38t47 117q14 78 33 196q18 118 35 200q36 176 180 210l2 9q-102 29 -102 135q0 73 50 269t50 249t-22 75t-78 21h-41l24 121h109q100 0 144 -42t44 -128t-54 -283t-54 -245q0 -113 143 -117l-29 -131q-172 -4 -200 -162q-11 -59 -27 -177t-31 -194
q-33 -162 -95 -222t-192 -60h-112l26 121h46z" />
    <glyph glyph-name="asciitilde" unicode="~" horiz-adv-x="1011" 
d="M690 518q-62 0 -126 42t-120 83t-98 41q-84 0 -145 -119l-115 76q109 197 268 197q62 0 126 -42t120 -83t98 -41q84 0 146 119l114 -76q-108 -197 -268 -197z" />
    <glyph glyph-name="uni00A0" unicode="&#xa0;" horiz-adv-x="399" 
 />
    <glyph glyph-name="exclamdown" unicode="&#xa1;" horiz-adv-x="628" 
d="M380 727q-64 0 -96 36q-32 35 -32 99t48 116t112 52t96 -36q33 -36 33 -96t-49 -116q-48 -55 -112 -55zM39 -369l49 226l174 716h148l-152 -942h-219z" />
    <glyph glyph-name="cent" unicode="&#xa2;" horiz-adv-x="1011" 
d="M154 588q0 244 152 404t358 184l41 202h129l-41 -204q123 -20 227 -140l-131 -123q-63 70 -131 86l-127 -647q100 10 192 80l70 -145q-150 -96 -297 -113l-41 -205h-129l41 209q-145 20 -229 128t-84 284zM369 623q0 -203 135 -261l125 629q-113 -31 -187 -130t-73 -238z
" />
    <glyph glyph-name="sterling" unicode="&#xa3;" horiz-adv-x="1011" 
d="M297 877q0 209 128 335q129 126 319 127q190 0 309 -172l-146 -116q-74 111 -174 111t-166 -82q-66 -81 -65 -228q0 -37 8 -127h307l-31 -160h-268q-8 -215 -156 -370l-2 -9h506l-32 -186h-832l27 133q137 63 213 178t75 254h-196l31 150l155 10q-10 88 -10 152z" />
    <glyph glyph-name="currency" unicode="&#xa4;" horiz-adv-x="1011" 
d="M497 436q86 0 163 86t77 192q0 203 -159 206q-96 0 -174 -86t-76 -209q0 -189 169 -189zM127 604q0 182 121 314l-96 120l120 103l101 -129q111 66 231 66t201 -64l149 129l97 -115l-142 -125q31 -63 31 -153q0 -176 -115 -308l103 -131l-119 -100l-111 137
q-106 -72 -230 -72t-206 66l-147 -129l-97 115l140 121q-31 68 -31 155z" />
    <glyph glyph-name="yen" unicode="&#xa5;" horiz-adv-x="1011" 
d="M295 0l63 317h-311l23 111h311l25 129h-312l23 113h260l-176 635h223l65 -324q33 -180 54 -274h6q119 201 166 274l188 324h221l-428 -635h260l-22 -113h-311l-25 -129h311l-24 -111h-310l-63 -317h-217z" />
    <glyph glyph-name="brokenbar" unicode="&#xa6;" horiz-adv-x="497" 
d="M188 -512v940h142v-940h-142zM188 612v924h142v-924h-142z" />
    <glyph glyph-name="section" unicode="&#xa7;" horiz-adv-x="1005" 
d="M383 -143q-207 0 -367 163l113 138q127 -135 266 -135q66 1 108 37t42 90t-45 96q-45 43 -110 79q-66 37 -130 79t-108 110q-46 68 -46 162t60 172t160 121q-35 57 -35 123q0 139 94 227t242 88q180 0 329 -156l-116 -125q-104 113 -215 113q-55 0 -95 -34t-38 -84
q0 -50 46 -92t110 -81t130 -84q66 -46 112 -114t46 -152q0 -209 -215 -309q25 -49 24 -109q0 -143 -101 -233t-261 -90zM297 694q0 -61 48 -107q48 -45 144 -101t138 -87q117 51 116 172q0 59 -45 105t-144 106q-99 59 -134 86q-123 -55 -123 -174z" />
    <glyph glyph-name="dieresis" unicode="&#xa8;" horiz-adv-x="1077" 
d="M897 1188q-49 0 -78 28t-29 77q0 50 38 90t88 40q50 1 78 -27t28 -80t-38 -90t-87 -38zM510 1423q49 -1 78 -29q28 -28 28 -79t-38 -89t-87 -38t-77 28t-29 77q0 50 38 90t87 40z" />
    <glyph glyph-name="copyright" unicode="&#xa9;" horiz-adv-x="1368" 
d="M673 258q-142 0 -227 83q-84 83 -84 230q0 211 138 347t303 135q123 0 205 -107l-99 -92q-55 64 -138 64t-165 -94t-82 -210q0 -220 181 -221q72 0 176 70l65 -103q-131 -102 -273 -102zM618 84q270 0 454 204q183 204 183 474q0 207 -117 341q-118 134 -325 134
q-269 0 -453 -204t-184 -474q0 -207 118 -341t324 -134zM610 -20q-238 0 -390 160t-152 409q0 209 94 389t268 291t402 111t380 -160q152 -158 152 -408q0 -322 -214 -557t-540 -235z" />
    <glyph glyph-name="ordfeminine" unicode="&#xaa;" horiz-adv-x="737" 
d="M421 901q93 0 173 113l47 250q-37 78 -111 78t-138 -92q-64 -91 -64 -220t93 -129zM166 1016q0 186 109 320q110 134 253 134q98 0 146 -92h8l29 76h127l-131 -666h-129l8 93h-8q-98 -109 -220 -109q-88 0 -140 64t-52 180z" />
    <glyph glyph-name="guillemotleft" unicode="&#xab;" horiz-adv-x="894" 
d="M649 127l-211 315l29 164l317 295l72 -78l-281 -315l166 -322zM293 127l-211 315l29 164l317 295l72 -78l-281 -315l166 -322z" />
    <glyph glyph-name="logicalnot" unicode="&#xac;" horiz-adv-x="1011" 
d="M803 203v395h-705v158h869v-553h-164z" />
    <glyph glyph-name="uni00AD" unicode="&#xad;" horiz-adv-x="634" 
d="M70 436l32 162h465l-35 -162h-462z" />
    <glyph glyph-name="registered" unicode="&#xae;" horiz-adv-x="870" 
d="M530 1059q43 0 67 20t24 54q0 55 -62 55h-43l-24 -129h38zM590 1262q59 0 96 -32t37 -87q0 -96 -100 -133l53 -156h-96l-41 133h-62l-28 -133h-95l84 408h152zM829 1083q1 135 -71 213t-199 78t-219 -108t-92 -241q0 -134 72 -213t198 -79q127 0 219 108t92 242zM502 651
q-144 1 -244 101t-100 266t120 303t297 137q141 0 241 -101t104 -253q0 -180 -121 -316t-297 -137z" />
    <glyph glyph-name="macron" unicode="&#xaf;" horiz-adv-x="1077" 
d="M410 1223l28 145h551l-26 -145h-553z" />
    <glyph glyph-name="degree" unicode="&#xb0;" horiz-adv-x="677" 
d="M476 1290q-62 0 -108 -56q-44 -56 -44 -122t32 -105q32 -38 96 -38q62 0 106 56q44 57 44 123t-32 104t-94 38zM444 856q-110 0 -177 67t-67 183t87 207q86 90 196 90t177 -67q67 -68 67 -184t-86 -206q-87 -90 -197 -90z" />
    <glyph glyph-name="plusminus" unicode="&#xb1;" horiz-adv-x="1011" 
d="M98 0v160h869v-160h-869zM446 291v350h-348v160h353v344h163v-344h353v-160h-355v-350h-166z" />
    <glyph glyph-name="two.sups" unicode="&#xb2;" horiz-adv-x="733" 
d="M612 1360q0 109 -114 108q-61 0 -146 -84l-92 99q135 129 259 129t192 -60q67 -60 67 -168t-83 -212t-263 -244h287l-27 -140h-547l17 97q242 163 346 271t104 204z" />
    <glyph glyph-name="three.sups" unicode="&#xb3;" horiz-adv-x="729" 
d="M434 764q-195 0 -289 164l111 78q61 -109 166 -109q68 0 110 33t41 90q0 125 -196 125l22 104q115 0 166 40q51 41 51 91q0 102 -106 101q-74 0 -154 -58l-69 111q117 78 239 78t189 -54q66 -54 65 -143q0 -160 -174 -221q129 -57 129 -175q0 -119 -86 -187t-215 -68z
" />
    <glyph glyph-name="acute" unicode="&#xb4;" horiz-adv-x="1077" 
d="M633 1186l-98 125l362 327l133 -170z" />
    <glyph glyph-name="uni00B5" unicode="&#xb5;" horiz-adv-x="1097" 
d="M324 293q0 -129 125 -129q96 0 247 153l135 689h218l-197 -1006h-180l10 143h-8q-139 -157 -258 -157t-152 80l-22 -148l-58 -299h-219l277 1387h219l-121 -607q-16 -76 -16 -106z" />
    <glyph glyph-name="paragraph" unicode="&#xb6;" horiz-adv-x="1171" 
d="M592 436q-188 0 -318 98t-129 271q0 260 168 397t412 137h94l-180 -903h-47zM629 -164l299 1503h219l-299 -1503h-219z" />
    <glyph glyph-name="periodcentered" unicode="&#xb7;" horiz-adv-x="546" 
d="M288 520q-64 0 -98 36q-32 36 -32 98t49 115q49 54 111 54t96 -36q32 -35 32 -99t-48 -116q-46 -52 -110 -52z" />
    <glyph glyph-name="cedilla" unicode="&#xb8;" horiz-adv-x="1077" 
d="M162 -477l-2 100q223 12 235 103q4 70 -141 86l129 194h143l-84 -135q74 -18 104 -51t23 -88q-24 -199 -407 -209z" />
    <glyph glyph-name="one.sups" unicode="&#xb9;" horiz-adv-x="749" 
d="M391 788l123 611h-180l20 104q135 20 234 84h127l-156 -799h-168z" />
    <glyph glyph-name="ordmasculine" unicode="&#xba;" horiz-adv-x="722" 
d="M383 899q84 0 143 87t60 208q0 150 -111 149q-84 0 -143 -87t-60 -207q0 -150 111 -150zM369 772q-113 0 -184 73t-70 199q0 186 112 307q113 120 260 119q115 0 186 -72t70 -200q1 -186 -113 -306t-261 -120z" />
    <glyph glyph-name="guillemotright" unicode="&#xbb;" horiz-adv-x="894" 
d="M479 127l-71 78l280 315l-168 322l94 59l211 -315l-30 -164zM123 127l-72 78l281 315l-168 322l94 59l211 -315l-31 -164z" />
    <glyph glyph-name="onequarter" unicode="&#xbc;" horiz-adv-x="1560" 
d="M1004 311h215l24 127l55 234h-8l-131 -172zM1155 0l39 199h-367l17 88l418 512h194l-96 -488h119l-25 -112h-117l-39 -199h-143zM250 -25l981 1401h135l-981 -1401h-135zM287 553l123 610h-181l21 105q135 20 233 84h127l-155 -799h-168z" />
    <glyph glyph-name="onehalf" unicode="&#xbd;" horiz-adv-x="1624" 
d="M1237 680q-61 0 -145 -84l-93 98q135 129 259 129t192 -60t68 -168t-83 -212t-264 -244h287l-26 -139h-547l16 96q242 164 346 272t105 203q0 109 -115 109zM213 -25l981 1401h135l-981 -1401h-135zM279 553l122 610h-180l21 105q135 20 233 84h127l-156 -799h-167z" />
    <glyph glyph-name="threequarters" unicode="&#xbe;" horiz-adv-x="1589" 
d="M1034 311h215l25 127l55 234h-8l-131 -172zM1186 0l39 199h-367l16 88l418 512h195l-96 -488h118l-24 -112h-117l-39 -199h-143zM309 -25l981 1401h135l-981 -1401h-135zM557 1144q0 102 -119 102q-61 0 -141 -58l-70 110q117 78 239 78t189 -54q66 -54 66 -142
q0 -160 -174 -222q129 -57 129 -175q0 -119 -86 -187t-215 -68q-195 0 -289 164l111 78q61 -109 165 -108q68 0 110 32t42 90q0 125 -197 125l23 105q115 0 166 40t51 90z" />
    <glyph glyph-name="questiondown" unicode="&#xbf;" horiz-adv-x="874" 
d="M542 729q-62 0 -96 36q-32 37 -32 99t48 115t112 53t96 -36t32 -98t-49 -115q-49 -54 -111 -54zM349 -389q-169 0 -261 79t-92 232t135 280q57 54 116 106q143 128 159 272l188 -17q-8 -92 -50 -170t-98 -131t-109 -101q-128 -114 -128 -218q0 -72 41 -113
q42 -41 124 -41t175 92l113 -127q-144 -143 -313 -143z" />
    <glyph glyph-name="Agrave" unicode="&#xc0;" horiz-adv-x="1083" 
d="M784 1401l-305 268l154 139l276 -299zM-119 0l717 1339h262l144 -1339h-230l-26 377h-437l-186 -377h-244zM696 1163h-8q-120 -270 -194 -415l-101 -203h342l-14 203q-25 401 -25 415z" />
    <glyph glyph-name="Aacute" unicode="&#xc1;" horiz-adv-x="1083" 
d="M680 1421l-86 127l369 246l102 -164zM-119 0l717 1339h262l144 -1339h-230l-26 377h-437l-186 -377h-244zM696 1163h-8q-120 -270 -194 -415l-101 -203h342l-14 203q-25 401 -25 415z" />
    <glyph glyph-name="Acircumflex" unicode="&#xc2;" horiz-adv-x="1083" 
d="M502 1417l-92 74l239 221h254l158 -227l-111 -66l-180 180h-8zM-119 0l717 1339h262l144 -1339h-230l-26 377h-437l-186 -377h-244zM696 1163h-8q-120 -270 -194 -415l-101 -203h342l-14 203q-25 401 -25 415z" />
    <glyph glyph-name="Atilde" unicode="&#xc3;" horiz-adv-x="1083" 
d="M870 1434q-47 0 -89 20q-43 20 -67 46q-61 65 -108 67q-74 0 -108 -119l-150 12q29 135 104 204t177 69q61 0 109 -33t86 -66t69 -32q70 0 108 118l150 -12q-29 -135 -103 -205q-76 -69 -178 -69zM-119 0l717 1339h262l144 -1339h-230l-26 377h-437l-186 -377h-244z
M696 1163h-8q-120 -270 -194 -415l-101 -203h342l-14 203q-25 401 -25 415z" />
    <glyph glyph-name="Adieresis" unicode="&#xc4;" horiz-adv-x="1083" 
d="M940 1450q-49 0 -77 27q-27 27 -27 75t36 90q38 41 86 41q48 -1 76 -27t29 -75q0 -49 -37 -90t-86 -41zM552 1683q48 -1 77 -27t29 -75t-38 -90q-37 -41 -86 -41q-48 0 -76 27t-28 75t37 90q37 41 85 41zM-119 0l717 1339h262l144 -1339h-230l-26 377h-437l-186 -377
h-244zM696 1163h-8q-120 -270 -194 -415l-101 -203h342l-14 203q-25 401 -25 415z" />
    <glyph glyph-name="Aring" unicode="&#xc5;" horiz-adv-x="1083" 
d="M746 1522q40 0 73 34t33 75q0 42 -22 66q-22 23 -62 23t-73 -32q-31 -32 -31 -76q0 -42 21 -66t61 -24zM769 1812q91 0 149 -43t57 -129q0 -86 -69 -148t-161 -62t-148 43t-56 129t68 148q69 62 160 62zM-119 0l717 1339h262l144 -1339h-230l-26 377h-437l-186 -377h-244
zM696 1163h-8q-120 -270 -194 -415l-101 -203h342l-14 203q-25 401 -25 415z" />
    <glyph glyph-name="AE" unicode="&#xc6;" horiz-adv-x="1681" 
d="M-70 0l901 1339h893l-36 -186h-527l-71 -360h444l-37 -187h-442l-86 -420h544l-36 -186h-764l71 356h-376l-228 -356h-250zM940 1176q-177 -268 -270 -412l-150 -234h297l129 646h-6z" />
    <glyph glyph-name="Ccedilla" unicode="&#xc7;" horiz-adv-x="1144" 
d="M117 525q0 221 89 413t252 309t361 117q223 0 342 -205l-151 -117q-82 131 -203 132q-197 0 -331 -194t-134 -437q0 -177 76 -277t217 -100t272 110l97 -141q-166 -145 -357 -158l-65 -106q74 -18 104 -51t23 -88q-25 -199 -408 -209l-2 100q223 12 236 103q4 70 -142 86
l115 172q-184 33 -288 176q-103 143 -103 365z" />
    <glyph glyph-name="Egrave" unicode="&#xc8;" horiz-adv-x="1054" 
d="M799 1401l-305 268l153 139l277 -299zM66 0l266 1339h768l-37 -186h-549l-72 -360h465l-37 -187h-462l-86 -420h565l-37 -186h-784z" />
    <glyph glyph-name="Eacute" unicode="&#xc9;" horiz-adv-x="1054" 
d="M694 1421l-86 127l369 246l102 -164zM66 0l266 1339h768l-37 -186h-549l-72 -360h465l-37 -187h-462l-86 -420h565l-37 -186h-784z" />
    <glyph glyph-name="Ecircumflex" unicode="&#xca;" horiz-adv-x="1054" 
d="M516 1417l-92 74l240 221h254l157 -227l-110 -66l-181 180h-8zM66 0l266 1339h768l-37 -186h-549l-72 -360h465l-37 -187h-462l-86 -420h565l-37 -186h-784z" />
    <glyph glyph-name="Edieresis" unicode="&#xcb;" horiz-adv-x="1054" 
d="M954 1450q-48 0 -76 27t-28 75t37 90q37 41 85 41q48 -1 77 -27t29 -75t-38 -90q-37 -41 -86 -41zM549 1450q-49 0 -77 27t-28 75t37 90q37 41 85 41q48 -1 77 -27t29 -75t-37 -90t-86 -41zM66 0l266 1339h768l-37 -186h-549l-72 -360h465l-37 -187h-462l-86 -420h565
l-37 -186h-784z" />
    <glyph glyph-name="Igrave" unicode="&#xcc;" horiz-adv-x="559" 
d="M506 1401l-305 268l153 139l277 -299zM66 0l266 1339h221l-266 -1339h-221z" />
    <glyph glyph-name="Iacute" unicode="&#xcd;" horiz-adv-x="559" 
d="M401 1421l-86 127l369 246l102 -164zM66 0l266 1339h221l-266 -1339h-221z" />
    <glyph glyph-name="Icircumflex" unicode="&#xce;" horiz-adv-x="559" 
d="M223 1417l-92 74l240 221h254l157 -227l-110 -66l-180 180h-9zM66 0l266 1339h221l-266 -1339h-221z" />
    <glyph glyph-name="Idieresis" unicode="&#xcf;" horiz-adv-x="559" 
d="M679 1683q48 -1 77 -27q28 -26 28 -75t-37 -90t-86 -41t-77 27t-27 75q0 48 37 90q37 41 85 41zM256 1450q-49 0 -77 27q-27 27 -27 75t36 90q38 41 86 41q48 -1 76 -27t29 -75q0 -49 -37 -90t-86 -41zM66 0l266 1339h221l-266 -1339h-221z" />
    <glyph glyph-name="Eth" unicode="&#xd0;" horiz-adv-x="1273" 
d="M487 178q229 0 369 166q139 166 139 457q0 176 -94 268t-266 92h-82l-80 -401h281l-25 -115h-278l-93 -467h129zM641 1339q281 0 431 -135t149 -389q0 -379 -199 -597t-530 -218h-390l129 645h-145l23 107l145 8l115 579h272z" />
    <glyph glyph-name="Ntilde" unicode="&#xd1;" horiz-adv-x="1292" 
d="M735 1733q61 0 109 -33t87 -66q38 -33 68 -32q70 0 109 118l149 -12q-29 -135 -103 -205q-75 -69 -172 -69t-161 66q-63 66 -108 67q-74 0 -109 -119l-149 12q29 135 103 204q75 69 177 69zM66 0l266 1339h217l262 -776l78 -289h8q4 33 19 186t40 271l121 608h213
l-268 -1339h-215l-260 774l-78 293h-8q-37 -332 -64 -453l-121 -614h-210z" />
    <glyph glyph-name="Ograve" unicode="&#xd2;" horiz-adv-x="1325" 
d="M901 1401l-305 268l154 139l276 -299zM614 166q174 0 302 189t128 429q0 182 -68 286q-69 103 -202 104q-174 0 -301 -190t-127 -429q0 -181 68 -285t200 -104zM602 -25q-225 0 -354 152t-129 412q-1 337 195 581t472 244q224 0 354 -152t130 -411q0 -336 -194 -581
t-474 -245z" />
    <glyph glyph-name="Oacute" unicode="&#xd3;" horiz-adv-x="1325" 
d="M797 1421l-86 127l368 246l103 -164zM614 166q174 0 302 189t128 429q0 182 -68 286q-69 103 -202 104q-174 0 -301 -190t-127 -429q0 -181 68 -285t200 -104zM602 -25q-225 0 -354 152t-129 412q-1 337 195 581t472 244q224 0 354 -152t130 -411q0 -336 -194 -581
t-474 -245z" />
    <glyph glyph-name="Ocircumflex" unicode="&#xd4;" horiz-adv-x="1325" 
d="M618 1417l-92 74l240 221h254l158 -227l-111 -66l-180 180h-8zM614 166q174 0 302 189t128 429q0 182 -68 286q-69 103 -202 104q-174 0 -301 -190t-127 -429q0 -181 68 -285t200 -104zM602 -25q-225 0 -354 152t-129 412q-1 337 195 581t472 244q224 0 354 -152
t130 -411q0 -336 -194 -581t-474 -245z" />
    <glyph glyph-name="Otilde" unicode="&#xd5;" horiz-adv-x="1325" 
d="M745 1733q61 0 109 -33t87 -66q38 -33 69 -32q70 0 108 118l150 -12q-29 -134 -104 -204t-172 -70t-161 66q-63 66 -108 67q-74 0 -109 -119l-149 12q29 135 103 204q75 69 177 69zM614 166q174 0 302 189t128 429q0 182 -68 286q-69 103 -202 104q-174 0 -301 -190
t-127 -429q0 -181 68 -285t200 -104zM602 -25q-225 0 -354 152t-129 412q-1 337 195 581t472 244q224 0 354 -152t130 -411q0 -336 -194 -581t-474 -245z" />
    <glyph glyph-name="Odieresis" unicode="&#xd6;" horiz-adv-x="1325" 
d="M1057 1450q-49 0 -77 27t-28 75t37 90q37 41 85 41q48 -1 77 -27t29 -75t-37 -90t-86 -41zM651 1450q-49 0 -77 27t-28 75t38 90q37 41 85 41q49 -1 77 -27t28 -75t-37 -90t-86 -41zM614 166q174 0 302 189t128 429q0 182 -68 286q-69 103 -202 104q-174 0 -301 -190
t-127 -429q0 -181 68 -285t200 -104zM602 -25q-225 0 -354 152t-129 412q-1 337 195 581t472 244q224 0 354 -152t130 -411q0 -336 -194 -581t-474 -245z" />
    <glyph glyph-name="multiply" unicode="&#xd7;" horiz-adv-x="1011" 
d="M242 262l-111 111l291 305l-291 303l111 111l290 -304l291 304l111 -111l-291 -303l291 -305l-111 -111l-291 305z" />
    <glyph glyph-name="Oslash" unicode="&#xd8;" horiz-adv-x="1325" 
d="M614 166q174 0 302 189.5t128 428.5q0 74 -12 136l-618 -652q69 -102 200 -102zM346 555q0 -78 12 -145l623 653q-72 111 -207 111q-174 0 -301 -189.5t-127 -429.5zM602 -25q-211 0 -340 136l-172 -183l-102 92l196 205q-66 131 -65 314q0 336 195.5 580.5t471.5 244.5
q217 0 347 -141l186 194l98 -92l-209 -219q61 -125 62 -305q0 -336 -194.5 -581t-473.5 -245z" />
    <glyph glyph-name="Ugrave" unicode="&#xd9;" horiz-adv-x="1290" 
d="M883 1401l-305 268l153 139l277 -299zM379 432q0 -266 237 -266q227 0 302 375l159 798h217l-161 -798q-113 -565 -525 -566q-451 0 -450 445q-1 68 24 203l144 716h221l-150 -749q-18 -86 -18 -158z" />
    <glyph glyph-name="Uacute" unicode="&#xda;" horiz-adv-x="1290" 
d="M778 1421l-86 127l369 246l102 -164zM379 432q0 -266 237 -266q227 0 302 375l159 798h217l-161 -798q-113 -565 -525 -566q-451 0 -450 445q-1 68 24 203l144 716h221l-150 -749q-18 -86 -18 -158z" />
    <glyph glyph-name="Ucircumflex" unicode="&#xdb;" horiz-adv-x="1290" 
d="M600 1417l-92 74l240 221h253l158 -227l-110 -66l-181 180h-8zM379 432q0 -266 237 -266q227 0 302 375l159 798h217l-161 -798q-113 -565 -525 -566q-451 0 -450 445q-1 68 24 203l144 716h221l-150 -749q-18 -86 -18 -158z" />
    <glyph glyph-name="Udieresis" unicode="&#xdc;" horiz-adv-x="1290" 
d="M1038 1450q-48 0 -76 27t-28 75t37 90q37 41 85 41q48 -1 77 -27t29 -75t-38 -90q-37 -41 -86 -41zM633 1450q-49 0 -77 27t-28 75t37 90q37 41 85 41q48 -1 77 -27t29 -75t-37 -90t-86 -41zM379 432q0 -266 237 -266q227 0 302 375l159 798h217l-161 -798
q-113 -565 -525 -566q-451 0 -450 445q-1 68 24 203l144 716h221l-150 -749q-18 -86 -18 -158z" />
    <glyph glyph-name="Yacute" unicode="&#xdd;" horiz-adv-x="995" 
d="M614 1421l-86 127l369 246l102 -164zM283 0l100 504l-215 835h227l76 -352q13 -57 31 -157t26 -138h9q139 240 174 297l219 350h237l-563 -835l-100 -504h-221z" />
    <glyph glyph-name="Thorn" unicode="&#xde;" horiz-adv-x="1185" 
d="M547 465q180 0 274 74t94 215q0 197 -251 196h-191l-96 -485h170zM717 1126q195 0 307 -83t111 -257q0 -252 -167 -374t-438 -123h-190l-57 -289h-217l266 1352h221l-43 -226h207z" />
    <glyph glyph-name="germandbls" unicode="&#xdf;" horiz-adv-x="1193" 
d="M725 -25q-160 0 -289 97l94 145q104 -76 186 -76t126 43q45 42 45 102q0 99 -147 196q-54 36 -100 96t-46 122q0 103 90 195q37 37 74 73q90 88 90 185q0 141 -135 141q-89 0 -153 -80t-93 -204l-201 -1010h-221l213 1055q37 182 159 299t306 116q143 0 241 -73
q97 -74 97 -213q0 -82 -39 -151t-87 -107q-126 -101 -126 -172q0 -70 99 -150q42 -32 84 -70q100 -89 100 -225q0 -135 -104 -235t-263 -99z" />
    <glyph glyph-name="agrave" unicode="&#xe0;" horiz-adv-x="1114" 
d="M745 1165l-292 344l188 142l240 -379zM449 156q150 0 264 170l82 401q-63 123 -170 123q-129 0 -227 -142t-99 -335q0 -217 150 -217zM358 -25q-133 1 -210 97t-76 270q0 284 164 486t376 202q74 0 136 -38t96 -103h4l43 117h176l-201 -1006h-180l10 139h-6
q-158 -164 -332 -164z" />
    <glyph glyph-name="aacute" unicode="&#xe1;" horiz-adv-x="1114" 
d="M629 1186l-99 125l363 327l133 -170zM449 156q150 0 264 170l82 401q-63 123 -170 123q-129 0 -227 -142t-99 -335q0 -217 150 -217zM358 -25q-133 1 -210 97t-76 270q0 284 164 486t376 202q74 0 136 -38t96 -103h4l43 117h176l-201 -1006h-180l10 139h-6
q-158 -164 -332 -164z" />
    <glyph glyph-name="acircumflex" unicode="&#xe2;" horiz-adv-x="1114" 
d="M424 1155l-80 92l274 273h240l178 -279l-102 -86l-205 217h-8zM449 156q150 0 264 170l82 401q-63 123 -170 123q-129 0 -227 -142t-99 -335q0 -217 150 -217zM358 -25q-133 1 -210 97t-76 270q0 284 164 486t376 202q74 0 136 -38t96 -103h4l43 117h176l-201 -1006h-180
l10 139h-6q-158 -164 -332 -164z" />
    <glyph glyph-name="atilde" unicode="&#xe3;" horiz-adv-x="1114" 
d="M836 1178q-47 0 -86 24t-61 52q-58 78 -114 77q-78 0 -106 -139l-150 8q27 141 96 218t173 77q59 0 104 -38t81 -76t75 -38q82 0 106 138l150 -8q-27 -141 -95 -219q-69 -76 -173 -76zM449 156q150 0 264 170l82 401q-63 123 -170 123q-129 0 -227 -142t-99 -335
q0 -217 150 -217zM358 -25q-133 1 -210 97t-76 270q0 284 164 486t376 202q74 0 136 -38t96 -103h4l43 117h176l-201 -1006h-180l10 139h-6q-158 -164 -332 -164z" />
    <glyph glyph-name="adieresis" unicode="&#xe4;" horiz-adv-x="1114" 
d="M893 1188q-49 0 -78 28t-29 77q0 50 38 90t87 40q49 1 78 -27t29 -80t-38 -90t-87 -38zM487 1188q-49 0 -77 28t-29 77q0 50 38 90t87 40q49 -1 78 -29q28 -28 28 -79t-38 -89t-87 -38zM449 156q150 0 264 170l82 401q-63 123 -170 123q-129 0 -227 -142t-99 -335
q0 -217 150 -217zM358 -25q-133 1 -210 97t-76 270q0 284 164 486t376 202q74 0 136 -38t96 -103h4l43 117h176l-201 -1006h-180l10 139h-6q-158 -164 -332 -164z" />
    <glyph glyph-name="aring" unicode="&#xe5;" horiz-adv-x="1114" 
d="M610 1339q0 -96 89 -96q44 0 78 40t34 86t-23 72q-22 25 -66 25t-78 -40t-34 -87zM728 1559q106 1 166 -47t60 -137t-76 -157t-182 -67q-106 0 -167 47q-60 47 -60 136t77 157t182 68zM449 156q150 0 264 170l82 401q-63 123 -170 123q-129 0 -227 -142t-99 -335
q0 -217 150 -217zM358 -25q-133 1 -210 97t-76 270q0 284 164 486t376 202q74 0 136 -38t96 -103h4l43 117h176l-201 -1006h-180l10 139h-6q-158 -164 -332 -164z" />
    <glyph glyph-name="ae" unicode="&#xe6;" horiz-adv-x="1552" 
d="M406 147q123 0 258 148q-14 92 0 192q-190 -4 -292 -61t-102 -158q0 -57 37 -89t99 -32zM1143 860q-84 0 -159 -74t-110 -200h420q10 54 10 112t-38 110q-39 52 -123 52zM55 223q0 383 637 404q6 41 6 65q0 164 -153 164q-111 0 -271 -82l-53 154q195 102 373 102
q203 0 252 -166q143 166 315 166t249 -101t77 -270q0 -115 -43 -213h-588q-18 -139 45 -221t167 -82t218 80l80 -141q-145 -106 -330 -107q-104 -1 -191 51t-128 130q-201 -180 -398 -181q-115 1 -189 67t-75 181z" />
    <glyph glyph-name="ccedilla" unicode="&#xe7;" horiz-adv-x="899" 
d="M645 1030q160 0 264 -123l-123 -133q-70 78 -155 78q-135 0 -237 -136t-101 -323q0 -240 203 -239q94 0 190 77l94 -139q-143 -104 -293 -115l-65 -106q74 -18 104 -51t23 -88q-25 -199 -408 -209l-2 100q223 12 236 103q4 70 -142 86l117 176q-129 31 -206 134t-76 263
q0 269 170 457t407 188z" />
    <glyph glyph-name="egrave" unicode="&#xe8;" horiz-adv-x="999" 
d="M719 1165l-293 344l188 142l240 -379zM587 860q-89 0 -170 -74t-118 -200h444q32 142 -28 222q-39 52 -128 52zM68 401q0 269 170 449t378 180q166 0 243 -101t77 -270q0 -115 -43 -213h-612q-15 -152 55 -228t179 -75q109 0 218 80l82 -141q-152 -106 -339 -106
q-188 0 -298 112q-110 114 -110 313z" />
    <glyph glyph-name="eacute" unicode="&#xe9;" horiz-adv-x="999" 
d="M602 1186l-98 125l362 327l133 -170zM587 860q-89 0 -170 -74t-118 -200h444q32 142 -28 222q-39 52 -128 52zM68 401q0 269 170 449t378 180q166 0 243 -101t77 -270q0 -115 -43 -213h-612q-15 -152 55 -228t179 -75q109 0 218 80l82 -141q-152 -106 -339 -106
q-188 0 -298 112q-110 114 -110 313z" />
    <glyph glyph-name="ecircumflex" unicode="&#xea;" horiz-adv-x="999" 
d="M397 1155l-80 92l275 273h239l179 -279l-103 -86l-205 217h-8zM587 860q-89 0 -170 -74t-118 -200h444q32 142 -28 222q-39 52 -128 52zM68 401q0 269 170 449t378 180q166 0 243 -101t77 -270q0 -115 -43 -213h-612q-15 -152 55 -228t179 -75q109 0 218 80l82 -141
q-152 -106 -339 -106q-188 0 -298 112q-110 114 -110 313z" />
    <glyph glyph-name="edieresis" unicode="&#xeb;" horiz-adv-x="999" 
d="M866 1188q-49 0 -78 28q-28 28 -28 77q0 50 38 90t87 40q49 1 78 -27t29 -80t-39 -90q-38 -38 -87 -38zM461 1188q-49 0 -78 28t-29 77q0 50 38 90t87 40q49 -1 78 -29t29 -79t-38 -89t-87 -38zM587 860q-89 0 -170 -74t-118 -200h444q32 142 -28 222q-39 52 -128 52z
M68 401q0 269 170 449t378 180q166 0 243 -101t77 -270q0 -115 -43 -213h-612q-15 -152 55 -228t179 -75q109 0 218 80l82 -141q-152 -106 -339 -106q-188 0 -298 112q-110 114 -110 313z" />
    <glyph glyph-name="igrave" unicode="&#xec;" horiz-adv-x="514" 
d="M457 1165l-293 344l188 142l240 -379zM45 0l203 1006h219l-201 -1006h-221z" />
    <glyph glyph-name="iacute" unicode="&#xed;" horiz-adv-x="514" 
d="M340 1186l-98 125l362 327l133 -170zM45 0l203 1006h219l-201 -1006h-221z" />
    <glyph glyph-name="icircumflex" unicode="&#xee;" horiz-adv-x="514" 
d="M135 1155l-80 92l275 273h239l179 -279l-103 -86l-205 217h-8zM45 0l203 1006h219l-201 -1006h-221z" />
    <glyph glyph-name="idieresis" unicode="&#xef;" horiz-adv-x="514" 
d="M604 1188q-49 0 -78 28q-28 28 -28 77q0 50 38 90t87 40q49 1 77 -27t29 -80q0 -52 -38 -90t-87 -38zM199 1188q-49 0 -78 28t-29 77q0 50 38 90t87 40q49 -1 78 -29t29 -79t-38 -89t-87 -38zM45 0l203 1006h219l-201 -1006h-221z" />
    <glyph glyph-name="eth" unicode="&#xf0;" horiz-adv-x="1087" 
d="M471 154q125 0 208 131t99 333q-82 136 -210 136t-209 -113t-80 -260q0 -95 51 -161t141 -66zM455 -25q-164 0 -271 108q-106 108 -106 279q0 222 130 392t341 170q150 0 229 -131q-14 199 -108 346l-301 -123l-43 108l266 109q-68 70 -180 143l100 129q158 -88 258 -200
l297 120l43 -108l-264 -107q141 -209 141 -489q0 -197 -59 -363t-184 -274t-289 -109z" />
    <glyph glyph-name="ntilde" unicode="&#xf1;" horiz-adv-x="1103" 
d="M881 1178q-47 0 -86 24t-61 52q-58 78 -113 77q-78 0 -107 -139l-149 8q27 141 95 218q69 77 173 77q59 0 104 -38t81 -76t75 -38q82 0 106 138l150 -8q-27 -141 -95 -219q-69 -76 -173 -76zM768 1030q238 0 238 -254q0 -70 -17 -141l-127 -635h-219l123 606
q16 94 16 107q0 129 -127 129q-100 0 -254 -156l-135 -686h-221l201 1006h178l-10 -142h8q197 166 346 166z" />
    <glyph glyph-name="ograve" unicode="&#xf2;" horiz-adv-x="1073" 
d="M750 1165l-293 344l188 142l240 -379zM469 154q123 0 215 135t92 325q0 114 -45 176t-131 62q-123 0 -216 -135t-93 -324q0 -115 46 -177t132 -62zM444 -25q-170 0 -272 112t-102 298q0 279 169 462t384 183q172 0 274 -110t102 -299q0 -276 -169 -461t-386 -185z" />
    <glyph glyph-name="oacute" unicode="&#xf3;" horiz-adv-x="1073" 
d="M633 1186l-98 125l362 327l133 -170zM469 154q123 0 215 135t92 325q0 114 -45 176t-131 62q-123 0 -216 -135t-93 -324q0 -115 46 -177t132 -62zM444 -25q-170 0 -272 112t-102 298q0 279 169 462t384 183q172 0 274 -110t102 -299q0 -276 -169 -461t-386 -185z" />
    <glyph glyph-name="ocircumflex" unicode="&#xf4;" horiz-adv-x="1073" 
d="M428 1155l-80 92l275 273h239l178 -279l-102 -86l-205 217h-8zM469 154q123 0 215 135t92 325q0 114 -45 176t-131 62q-123 0 -216 -135t-93 -324q0 -115 46 -177t132 -62zM444 -25q-170 0 -272 112t-102 298q0 279 169 462t384 183q172 0 274 -110t102 -299
q0 -276 -169 -461t-386 -185z" />
    <glyph glyph-name="otilde" unicode="&#xf5;" horiz-adv-x="1073" 
d="M840 1178q-47 0 -86 24t-61 52q-58 78 -113 77q-78 0 -107 -139l-149 8q27 141 95 218q69 77 173 77q59 0 104 -38t81 -76t75 -38q82 0 106 138l150 -8q-27 -141 -95 -219q-69 -76 -173 -76zM469 154q123 0 215 135t92 325q0 114 -45 176t-131 62q-123 0 -216 -135
t-93 -324q0 -115 46 -177t132 -62zM444 -25q-170 0 -272 112t-102 298q0 279 169 462t384 183q172 0 274 -110t102 -299q0 -276 -169 -461t-386 -185z" />
    <glyph glyph-name="odieresis" unicode="&#xf6;" horiz-adv-x="1073" 
d="M897 1188q-49 0 -78 28t-29 77q0 50 38 90t88 40q50 1 78 -27t28 -80t-38 -90t-87 -38zM510 1423q49 -1 78 -29q28 -28 28 -79t-38 -89t-87 -38t-77 28t-29 77q0 50 38 90t87 40zM469 154q123 0 215 135t92 325q0 114 -45 176t-131 62q-123 0 -216 -135t-93 -324
q0 -115 46 -177t132 -62zM444 -25q-170 0 -272 112t-102 298q0 279 169 462t384 183q172 0 274 -110t102 -299q0 -276 -169 -461t-386 -185z" />
    <glyph glyph-name="divide" unicode="&#xf7;" horiz-adv-x="1011" 
d="M532 920q-55 0 -93 36t-38 92q0 54 38 90t93 36q56 0 94 -36t38 -90t-38 -92q-39 -36 -94 -36zM532 176q-55 0 -93 36t-38 90t38 91t93 37q56 0 94 -37t38 -91t-38 -90t-94 -36zM98 598v158h869v-158h-869z" />
    <glyph glyph-name="oslash" unicode="&#xf8;" horiz-adv-x="1073" 
d="M461 150q141 0 235.5 141t94.5 319q0 37 -7 72l-458 -471q49 -61 135 -61zM276 393q0 -43 7 -80l462 475q-51 68 -139 68q-139 0 -234.5 -143.5t-95.5 -319.5zM444 -25q-152 0 -256 95l-114 -119l-74 69l127 130q-57 98 -57 235q0 279 169 462t384 183q158 0 262 -98
l116 121l76 -70l-131 -135q53 -94 53 -227q0 -279 -169 -462.5t-386 -183.5z" />
    <glyph glyph-name="ugrave" unicode="&#xf9;" horiz-adv-x="1099" 
d="M737 1165l-293 344l189 142l239 -379zM336 -25q-240 0 -240 254q0 59 17 142l127 635h219l-121 -607q-16 -76 -16 -106q0 -129 124 -129q100 0 248 155l135 687h220l-199 -1006h-178l8 143h-8q-186 -168 -336 -168z" />
    <glyph glyph-name="uacute" unicode="&#xfa;" horiz-adv-x="1099" 
d="M621 1186l-99 125l363 327l133 -170zM336 -25q-240 0 -240 254q0 59 17 142l127 635h219l-121 -607q-16 -76 -16 -106q0 -129 124 -129q100 0 248 155l135 687h220l-199 -1006h-178l8 143h-8q-186 -168 -336 -168z" />
    <glyph glyph-name="ucircumflex" unicode="&#xfb;" horiz-adv-x="1099" 
d="M416 1155l-80 92l274 273h240l178 -279l-102 -86l-205 217h-8zM336 -25q-240 0 -240 254q0 59 17 142l127 635h219l-121 -607q-16 -76 -16 -106q0 -129 124 -129q100 0 248 155l135 687h220l-199 -1006h-178l8 143h-8q-186 -168 -336 -168z" />
    <glyph glyph-name="udieresis" unicode="&#xfc;" horiz-adv-x="1099" 
d="M885 1188q-49 0 -78 28t-29 77q0 50 38 90t87 40q49 1 78 -27t29 -80t-38 -90t-87 -38zM479 1188q-49 0 -78 28t-29 77q0 50 39 90q38 40 87 40q50 -1 78 -29t28 -79t-38 -89t-87 -38zM336 -25q-240 0 -240 254q0 59 17 142l127 635h219l-121 -607q-16 -76 -16 -106
q0 -129 124 -129q100 0 248 155l135 687h220l-199 -1006h-178l8 143h-8q-186 -168 -336 -168z" />
    <glyph glyph-name="yacute" unicode="&#xfd;" horiz-adv-x="970" 
d="M543 1186l-99 125l363 327l133 -170zM31 -414q-66 0 -129 37l69 160q97 -55 197 30q59 50 102 136l31 61l-174 996h219l64 -508q18 -164 24 -301h8q16 33 66 141t76 160l250 508h213l-566 -1059q-101 -181 -205 -271t-245 -90z" />
    <glyph glyph-name="thorn" unicode="&#xfe;" horiz-adv-x="1114" 
d="M487 156q129 0 228.5 143t99.5 336q0 106 -40 160.5t-106 54.5t-137 -38t-124 -107l-86 -431q61 -118 165 -118zM746.5 1030q142.5 0 218 -95t75.5 -271q0 -283 -163.5 -486t-374.5 -203q-141 0 -223 131h-5l-32 -204l-58 -299h-219l371 1843h219l-72 -356l-49 -193h4
q166 133 308.5 133z" />
    <glyph glyph-name="ydieresis" unicode="&#xff;" horiz-adv-x="970" 
d="M807 1188q-49 0 -78 28t-29 77q0 50 38 90t87 40q49 1 78 -27t29 -80t-38 -90t-87 -38zM401 1188q-49 0 -77 28t-29 77q0 50 38 90t87 40q49 -1 78 -29q28 -28 28 -79t-38 -89t-87 -38zM31 -414q-66 0 -129 37l69 160q97 -55 197 30q59 50 102 136l31 61l-174 996h219
l64 -508q18 -164 24 -301h8q16 33 66 141t76 160l250 508h213l-566 -1059q-101 -181 -205 -271t-245 -90z" />
    <glyph glyph-name="Amacron" unicode="&#x100;" horiz-adv-x="1083" 
d="M451 1483l28 147h557l-28 -147h-557zM-119 0l717 1339h262l144 -1339h-230l-26 377h-437l-186 -377h-244zM696 1163h-8q-120 -270 -194 -415l-101 -203h342l-14 203q-25 401 -25 415z" />
    <glyph glyph-name="amacron" unicode="&#x101;" horiz-adv-x="1114" 
d="M406 1223l28 145h551l-27 -145h-552zM449 156q150 0 264 170l82 401q-63 123 -170 123q-129 0 -227 -142t-99 -335q0 -217 150 -217zM358 -25q-133 1 -210 97t-76 270q0 284 164 486t376 202q74 0 136 -38t96 -103h4l43 117h176l-201 -1006h-180l10 139h-6
q-158 -164 -332 -164z" />
    <glyph glyph-name="Abreve" unicode="&#x102;" horiz-adv-x="1083" 
d="M725 1436q-143 0 -210 72t-60 200l139 23q0 -70 40 -112t116 -42q147 0 211 154l129 -23q-35 -127 -128 -200q-94 -72 -237 -72zM-119 0l717 1339h262l144 -1339h-230l-26 377h-437l-186 -377h-244zM696 1163h-8q-120 -270 -194 -415l-101 -203h342l-14 203
q-25 401 -25 415z" />
    <glyph glyph-name="abreve" unicode="&#x103;" horiz-adv-x="1114" 
d="M678 1169q-160 1 -226 91t-53 227l146 22q-4 -78 36 -133t124 -55t142 54t85 134l135 -22q-31 -137 -130 -227t-259 -91zM449 156q150 0 264 170l82 401q-63 123 -170 123q-129 0 -227 -142t-99 -335q0 -217 150 -217zM358 -25q-133 1 -210 97t-76 270q0 284 164 486
t376 202q74 0 136 -38t96 -103h4l43 117h176l-201 -1006h-180l10 139h-6q-158 -164 -332 -164z" />
    <glyph glyph-name="Aogonek" unicode="&#x104;" horiz-adv-x="1083" 
d="M696 1163h-8q-120 -270 -194 -415l-101 -203h342l-14 203q-25 401 -25 415zM805 -442q-187 0 -187 155q0 78 59.5 155t137.5 132h-41l-26 377h-437l-186 -377h-244l717 1339h262l144 -1339q-104 -49 -155.5 -108.5t-51.5 -104.5t20.5 -64.5t51 -19.5t65.5 21l45 -113
q-86 -53 -174 -53z" />
    <glyph glyph-name="aogonek" unicode="&#x105;" horiz-adv-x="1114" 
d="M449 156q63 0 134.5 42t129.5 128l82 403q-63 121 -170 121q-129 0 -227.5 -142.5t-98.5 -334.5q0 -217 150 -217zM655 -426q-176 0 -176 152q0 78 64.5 155.5t144.5 126.5l8 133h-4q-160 -166 -334 -166q-133 0 -209.5 96.5t-76.5 270.5q0 283 163.5 485.5t376.5 202.5
q74 0 136.5 -39t95.5 -104h4l43 119h176l-201 -1006q-104 -41 -162.5 -98.5t-58.5 -122.5q0 -31 20.5 -49.5t54.5 -18.5t68 23l41 -99q-90 -61 -174 -61z" />
    <glyph glyph-name="Cacute" unicode="&#x106;" horiz-adv-x="1144" 
d="M815 1421l-86 127l369 246l102 -164zM601 -25q-222 1 -353 149t-131 386t89 428q89 192 252 309t361 117q223 0 342 -205l-151 -117q-82 131 -203 132q-197 0 -331 -194t-134 -437q0 -177 76 -277t217 -100t272 110l97 -141q-181 -160 -403 -160z" />
    <glyph glyph-name="cacute" unicode="&#x107;" horiz-adv-x="899" 
d="M606 1186l-98 125l362 327l134 -170zM451 -25q-170 0 -277 110q-106 110 -106 300q0 269 170 457t407 188q160 0 264 -123l-123 -133q-70 78 -155 78q-135 0 -237 -136t-101 -323q0 -240 203 -239q94 0 190 77l94 -139q-159 -117 -329 -117z" />
    <glyph glyph-name="Ccircumflex" unicode="&#x108;" horiz-adv-x="1144" 
d="M637 1417l-92 74l239 221h254l158 -227l-111 -66l-180 180h-8zM601 -25q-222 1 -353 149t-131 386t89 428q89 192 252 309t361 117q223 0 342 -205l-151 -117q-82 131 -203 132q-197 0 -331 -194t-134 -437q0 -177 76 -277t217 -100t272 110l97 -141q-181 -160 -403 -160
z" />
    <glyph glyph-name="ccircumflex" unicode="&#x109;" horiz-adv-x="899" 
d="M401 1155l-79 92l274 273h240l178 -279l-103 -86l-204 217h-9zM451 -25q-170 0 -277 110q-106 110 -106 300q0 269 170 457t407 188q160 0 264 -123l-123 -133q-70 78 -155 78q-135 0 -237 -136t-101 -323q0 -240 203 -239q94 0 190 77l94 -139q-159 -117 -329 -117z" />
    <glyph glyph-name="Cdotaccent" unicode="&#x10a;" horiz-adv-x="1144" 
d="M1020 1589q0 -57 -44 -97t-100 -40q-57 0 -94 31t-37 86q1 55 45 98t99 43t93 -32t38 -89zM601 -25q-222 1 -353 149t-131 386t89 428q89 192 252 309t361 117q223 0 342 -205l-151 -117q-82 131 -203 132q-197 0 -331 -194t-134 -437q0 -177 76 -277t217 -100t272 110
l97 -141q-181 -160 -403 -160z" />
    <glyph glyph-name="cdotaccent" unicode="&#x10b;" horiz-adv-x="899" 
d="M671 1184q-56 0 -94 30t-38 86q0 54 44 98t99 44t93 -31t38 -88t-43 -98t-99 -41zM451 -25q-170 0 -277 110q-106 110 -106 300q0 269 170 457t407 188q160 0 264 -123l-123 -133q-70 78 -155 78q-135 0 -237 -136t-101 -323q0 -240 203 -239q94 0 190 77l94 -139
q-159 -117 -329 -117z" />
    <glyph glyph-name="Ccaron" unicode="&#x10c;" horiz-adv-x="1144" 
d="M725 1442l-156 229l109 66l180 -181h8l260 181l93 -74l-240 -221h-254zM601 -25q-222 1 -353 149t-131 386t89 428q89 192 252 309t361 117q223 0 342 -205l-151 -117q-82 131 -203 132q-197 0 -331 -194t-134 -437q0 -177 76 -277t217 -100t272 110l97 -141
q-181 -160 -403 -160z" />
    <glyph glyph-name="ccaron" unicode="&#x10d;" horiz-adv-x="899" 
d="M518 1182l-180 278l102 84l207 -215h8l295 215l82 -90l-276 -272h-238zM451 -25q-170 0 -277 110q-106 110 -106 300q0 269 170 457t407 188q160 0 264 -123l-123 -133q-70 78 -155 78q-135 0 -237 -136t-101 -323q0 -240 203 -239q94 0 190 77l94 -139
q-159 -117 -329 -117z" />
    <glyph glyph-name="Dcaron" unicode="&#x10e;" horiz-adv-x="1236" 
d="M647 1442l-155 229l108 66l180 -181h8l261 181l92 -74l-240 -221h-254zM451 178q229 0 368 166t139 457q0 176 -94 268t-266 92h-82l-194 -983h129zM604 1339q280 0 430 -135t150 -389q0 -379 -199 -597t-530 -218h-389l266 1339h272z" />
    <glyph glyph-name="dcaron" unicode="&#x10f;" horiz-adv-x="1138" 
d="M1182 1122l82 445h145l-27 -129l-100 -316h-100zM299 373q-1 -217 147 -217t267 170l82 401q-63 123 -170 123q-129 0 -227 -142t-99 -335zM358 -25q-133 1 -210 97t-76 270q0 284 164 486t376 202q150 0 222 -133h6l28 193l70 356h219l-291 -1446h-180l10 139h-6
q-158 -164 -332 -164z" />
    <glyph glyph-name="Dcroat" unicode="&#x110;" horiz-adv-x="1273" 
d="M487 178q229 0 369 166q139 166 139 457q0 176 -94 268t-266 92h-82l-80 -401h281l-25 -115h-278l-93 -467h129zM641 1339q281 0 431 -135t149 -389q0 -379 -199 -597t-530 -218h-390l129 645h-145l23 107l145 8l115 579h272z" />
    <glyph glyph-name="dcroat" unicode="&#x111;" horiz-adv-x="1110" 
d="M299 373q-1 -217 147 -217t267 170l73 360q-59 123 -163 123q-125 0 -225 -136t-99 -300zM358 -25q-133 1 -210 97t-76 270q0 256 164 452t374 195q150 0 215 -133h6l29 193l21 108h-306l23 115h305l35 174h219l-35 -174h142l-25 -105l-139 -10l-234 -1157h-180l10 139
h-6q-158 -164 -332 -164z" />
    <glyph glyph-name="Emacron" unicode="&#x112;" horiz-adv-x="1054" 
d="M465 1483l29 147h557l-29 -147h-557zM66 0l266 1339h768l-37 -186h-549l-72 -360h465l-37 -187h-462l-86 -420h565l-37 -186h-784z" />
    <glyph glyph-name="emacron" unicode="&#x113;" horiz-adv-x="999" 
d="M379 1223l29 145h550l-26 -145h-553zM587 860q-89 0 -170 -74t-118 -200h444q32 142 -28 222q-39 52 -128 52zM68 401q0 269 170 449t378 180q166 0 243 -101t77 -270q0 -115 -43 -213h-612q-15 -152 55 -228t179 -75q109 0 218 80l82 -141q-152 -106 -339 -106
q-188 0 -298 112q-110 114 -110 313z" />
    <glyph glyph-name="Ebreve" unicode="&#x114;" horiz-adv-x="1054" 
d="M739 1436q-143 0 -210 72t-60 200l139 23q0 -70 40 -112t116 -42q147 0 211 154l129 -23q-35 -127 -128 -200q-94 -72 -237 -72zM66 0l266 1339h768l-37 -186h-549l-72 -360h465l-37 -187h-462l-86 -420h565l-37 -186h-784z" />
    <glyph glyph-name="ebreve" unicode="&#x115;" horiz-adv-x="999" 
d="M651 1169q-161 1 -227 91t-51 227l145 22q-4 -78 36 -133t124 -55t142 54t85 134l135 -22q-31 -137 -130 -227t-259 -91zM587 860q-89 0 -170 -74t-118 -200h444q32 142 -28 222q-39 52 -128 52zM68 401q0 269 170 449t378 180q166 0 243 -101t77 -270q0 -115 -43 -213
h-612q-15 -152 55 -228t179 -75q109 0 218 80l82 -141q-152 -106 -339 -106q-188 0 -298 112q-110 114 -110 313z" />
    <glyph glyph-name="Edotaccent" unicode="&#x116;" horiz-adv-x="1054" 
d="M756 1452q-57 0 -94 31t-37 86t44 98t99 43t93 -32t38 -89t-43 -97t-100 -40zM66 0l266 1339h768l-37 -186h-549l-72 -360h465l-37 -187h-462l-86 -420h565l-37 -186h-784z" />
    <glyph glyph-name="edotaccent" unicode="&#x117;" horiz-adv-x="999" 
d="M667 1184q-56 0 -95 30q-38 31 -38 86q0 54 45 98q44 44 99 44t93 -31t38 -88t-43 -98t-99 -41zM587 860q-89 0 -170 -74t-118 -200h444q32 142 -28 222q-39 52 -128 52zM68 401q0 269 170 449t378 180q166 0 243 -101t77 -270q0 -115 -43 -213h-612q-15 -152 55 -228
t179 -75q109 0 218 80l82 -141q-152 -106 -339 -106q-188 0 -298 112q-110 114 -110 313z" />
    <glyph glyph-name="Eogonek" unicode="&#x118;" horiz-adv-x="1054" 
d="M641 -442q-186 0 -186 155q0 78 62.5 160t131.5 127h-583l266 1339h768l-37 -186h-549l-72 -360h465l-37 -187h-462l-86 -420h565l-37 -186q-88 -12 -152.5 -87t-64.5 -138q0 -33 20.5 -52.5t51 -19.5t65.5 21l45 -113q-86 -53 -174 -53z" />
    <glyph glyph-name="eogonek" unicode="&#x119;" horiz-adv-x="999" 
d="M587 860q-89 0 -170 -73.5t-118 -200.5h444q32 142 -28 222q-39 52 -128 52zM356 -283q0 125 160 263q-29 -4 -43 -5q-184 0 -294.5 113t-110.5 313q0 268 170 448.5t378 180.5q166 0 243 -101.5t77 -269.5q0 -115 -43 -213h-612q-16 -152 54.5 -227.5t179.5 -75.5
t218 80l82 -141q-295 -158 -295 -303q0 -31 20.5 -49.5t53.5 -18.5t72 23l39 -99q-90 -61 -174.5 -61t-129.5 37.5t-45 105.5z" />
    <glyph glyph-name="Ecaron" unicode="&#x11a;" horiz-adv-x="1054" 
d="M604 1442l-155 229l108 66l180 -181h8l261 181l92 -74l-240 -221h-254zM66 0l266 1339h768l-37 -186h-549l-72 -360h465l-37 -187h-462l-86 -420h565l-37 -186h-784z" />
    <glyph glyph-name="ecaron" unicode="&#x11b;" horiz-adv-x="999" 
d="M514 1182l-180 278l102 84l207 -215h8l295 215l82 -90l-276 -272h-238zM587 860q-89 0 -170 -74t-118 -200h444q32 142 -28 222q-39 52 -128 52zM68 401q0 269 170 449t378 180q166 0 243 -101t77 -270q0 -115 -43 -213h-612q-15 -152 55 -228t179 -75q109 0 218 80
l82 -141q-152 -106 -339 -106q-188 0 -298 112q-110 114 -110 313z" />
    <glyph glyph-name="Gcircumflex" unicode="&#x11c;" horiz-adv-x="1228" 
d="M631 1417l-92 74l239 221h254l158 -227l-111 -66l-180 180h-8zM624 -25q-236 -1 -372 147q-135 148 -135 388t89 430t257 307t377 117q236 0 354 -205l-152 -117q-82 131 -215 132q-209 0 -347 -193t-138 -438q0 -175 78 -277t246 -102q109 0 186 63l66 316h-248l35 180
h444l-121 -610q-168 -138 -404 -138z" />
    <glyph glyph-name="gcircumflex" unicode="&#x11d;" horiz-adv-x="1101" 
d="M410 1155l-80 92l274 273h240l178 -279l-102 -86l-205 217h-8zM444 203q150 0 261 151l75 373q-68 123 -168 123q-123 0 -218 -134t-95 -313q1 -98 39 -149t106 -51zM354 -446q-196 0 -368 139l98 147q137 -111 270 -110q221 0 287 254l51 194q-154 -158 -327 -158
q-133 0 -213 92t-80 263q0 268 159 462q160 194 369 193q74 0 134 -38t93 -103h7l43 117h178l-205 -1020q-43 -212 -172 -322q-128 -110 -324 -110z" />
    <glyph glyph-name="Gbreve" unicode="&#x11e;" horiz-adv-x="1228" 
d="M854 1436q-143 0 -210 72t-60 200l139 23q0 -70 40 -112t116 -42q147 0 211 154l129 -23q-35 -127 -128 -200q-94 -72 -237 -72zM624 -25q-236 -1 -372 147q-135 148 -135 388t89 430t257 307t377 117q236 0 354 -205l-152 -117q-82 131 -215 132q-209 0 -347 -193
t-138 -438q0 -175 78 -277t246 -102q109 0 186 63l66 316h-248l35 180h444l-121 -610q-168 -138 -404 -138z" />
    <glyph glyph-name="gbreve" unicode="&#x11f;" horiz-adv-x="1101" 
d="M664 1169q-160 1 -227 91t-52 227l145 22q-4 -78 36 -133t124 -55t143 54q58 54 85 134l135 -22q-31 -137 -130 -227t-259 -91zM444 203q150 0 261 151l75 373q-68 123 -168 123q-123 0 -218 -134t-95 -313q1 -98 39 -149t106 -51zM354 -446q-196 0 -368 139l98 147
q137 -111 270 -110q221 0 287 254l51 194q-154 -158 -327 -158q-133 0 -213 92t-80 263q0 268 159 462q160 194 369 193q74 0 134 -38t93 -103h7l43 117h178l-205 -1020q-43 -212 -172 -322q-128 -110 -324 -110z" />
    <glyph glyph-name="Gdotaccent" unicode="&#x120;" horiz-adv-x="1228" 
d="M1014 1589q0 -57 -44 -97t-100 -40q-57 0 -94 31t-37 86t44 98q43 43 99 43t94 -32t38 -89zM624 -25q-236 -1 -372 147q-135 148 -135 388t89 430t257 307t377 117q236 0 354 -205l-152 -117q-82 131 -215 132q-209 0 -347 -193t-138 -438q0 -175 78 -277t246 -102
q109 0 186 63l66 316h-248l35 180h444l-121 -610q-168 -138 -404 -138z" />
    <glyph glyph-name="gdotaccent" unicode="&#x121;" horiz-adv-x="1101" 
d="M679 1184q-56 0 -94 30t-38 86q0 54 44 98t99 44t93 -31t38 -88t-43 -98t-99 -41zM444 203q150 0 261 151l75 373q-68 123 -168 123q-123 0 -218 -134t-95 -313q1 -98 39 -149t106 -51zM354 -446q-196 0 -368 139l98 147q137 -111 270 -110q221 0 287 254l51 194
q-154 -158 -327 -158q-133 0 -213 92t-80 263q0 268 159 462q160 194 369 193q74 0 134 -38t93 -103h7l43 117h178l-205 -1020q-43 -212 -172 -322q-128 -110 -324 -110z" />
    <glyph glyph-name="uni0122" unicode="&#x122;" horiz-adv-x="1228" 
d="M768 -238q0 -106 -112 -162t-298 -61l2 101q229 12 230 98q0 68 -121 74l61 92q138 -8 188 -43t50 -99zM624 -25q-236 -1 -372 147q-135 148 -135 388t89 430t257 307t377 117q236 0 354 -205l-152 -117q-82 131 -215 132q-209 0 -347 -193t-138 -438q0 -175 78 -277
t246 -102q109 0 186 63l66 316h-248l35 180h444l-121 -610q-168 -138 -404 -138z" />
    <glyph glyph-name="uni0123" unicode="&#x123;" horiz-adv-x="1101" 
d="M520 1315q0 105 112 161t298 60l-2 -100q-229 -8 -230 -99q0 -66 121 -71l-61 -95q-138 9 -188 45t-50 99zM444 203q150 0 261 151l75 373q-68 123 -168 123q-123 0 -218 -134t-95 -313q1 -98 39 -149t106 -51zM354 -446q-196 0 -368 139l98 147q137 -111 270 -110
q221 0 287 254l51 194q-154 -158 -327 -158q-133 0 -213 92t-80 263q0 268 159 462q160 194 369 193q74 0 134 -38t93 -103h7l43 117h178l-205 -1020q-43 -212 -172 -322q-128 -110 -324 -110z" />
    <glyph glyph-name="Hcircumflex" unicode="&#x124;" horiz-adv-x="1306" 
d="M586 1417l-92 74l239 221h254l158 -227l-111 -66l-180 180h-8zM66 0l266 1339h221l-111 -542h531l108 542h222l-269 -1339h-221l123 604h-530l-119 -604h-221z" />
    <glyph glyph-name="hcircumflex" unicode="&#x125;" horiz-adv-x="1091" 
d="M236 1520l-93 73l240 222h254l158 -228l-111 -65l-180 180h-8zM768 1030q238 0 238 -254q0 -70 -17 -141l-127 -635h-219l123 606q16 94 16 107q0 129 -127 129q-100 0 -254 -156l-135 -686h-221l291 1446h219l-88 -426l-39 -146h8q180 156 332 156z" />
    <glyph glyph-name="Hbar" unicode="&#x126;" horiz-adv-x="1331" 
d="M455 797h530l41 209h-528zM150 1006l22 106l129 6l43 221h221l-45 -219h531l43 219h221l-43 -219h180l-22 -114h-183l-200 -1006h-222l123 604h-530l-119 -604h-221l201 1006h-129z" />
    <glyph glyph-name="hbar" unicode="&#x127;" horiz-adv-x="1091" 
d="M774 672q0 129 -127 129q-100 0 -254 -156l-127 -645h-221l234 1157h-144l21 105l145 10l35 174h219l-37 -174h346l-24 -115h-344l-37 -178l-39 -145h8q180 156 332 155q238 0 237 -254q0 -70 -16 -141l-119 -594h-219l115 565q16 94 16 107z" />
    <glyph glyph-name="Itilde" unicode="&#x128;" horiz-adv-x="559" 
d="M350 1733q62 0 110 -33t86 -66t68 -32q70 0 109 118l149 -12q-29 -135 -103 -205q-75 -69 -172 -69t-161 66q-63 66 -108 67q-74 0 -109 -119l-149 12q29 135 103 204q75 69 177 69zM66 0l266 1339h221l-266 -1339h-221z" />
    <glyph glyph-name="itilde" unicode="&#x129;" horiz-adv-x="514" 
d="M547 1178q-47 0 -86 24t-61 52q-58 78 -113 77q-78 0 -107 -139l-149 8q27 141 95 218q69 77 173 77q59 0 104 -38t81 -76t75 -38q82 0 107 138l149 -8q-27 -141 -95 -219q-69 -76 -173 -76zM45 0l203 1006h219l-201 -1006h-221z" />
    <glyph glyph-name="Imacron" unicode="&#x12a;" horiz-adv-x="559" 
d="M172 1483l29 147h557l-29 -147h-557zM66 0l266 1339h221l-266 -1339h-221z" />
    <glyph glyph-name="imacron" unicode="&#x12b;" horiz-adv-x="514" 
d="M117 1223l28 145h551l-26 -145h-553zM45 0l203 1006h219l-201 -1006h-221z" />
    <glyph glyph-name="uni012C" unicode="&#x12c;" horiz-adv-x="559" 
d="M446 1436q-144 0 -210 72t-60 200l139 23q0 -70 40 -112t116 -42q147 0 211 154l129 -23q-35 -127 -128 -200q-94 -72 -237 -72zM66 0l266 1339h221l-266 -1339h-221z" />
    <glyph glyph-name="uni012D" unicode="&#x12d;" horiz-adv-x="514" 
d="M389 1169q-161 1 -227 91t-51 227l145 22q-4 -78 36 -133t124 -55t142 54t85 134l135 -22q-31 -137 -130 -227t-259 -91zM45 0l203 1006h219l-201 -1006h-221z" />
    <glyph glyph-name="Iogonek" unicode="&#x12e;" horiz-adv-x="559" 
d="M109 -442q-185 0 -185 155q0 78 60.5 158t128.5 129h-47l266 1339h221l-266 -1339q-84 -41 -135.5 -105.5t-51.5 -108.5t21.5 -63.5t51.5 -19.5t65 21l45 -109q-83 -57 -174 -57z" />
    <glyph glyph-name="iogonek" unicode="&#x12f;" horiz-adv-x="514" 
d="M415 1184q-56 0 -93 30t-37 87t43 99t99 42t93 -31t37 -88t-43 -98t-99 -41zM92 -426q-174 0 -174 152q0 76 58 151q58 76 128 123h-59l203 1006h219l-201 -1006q-184 -94 -184 -221q0 -31 20 -49t54 -18t69 22l41 -99q-90 -61 -174 -61z" />
    <glyph glyph-name="Idotaccent" unicode="&#x130;" horiz-adv-x="559" 
d="M463 1452q-57 0 -94 31t-37 86t44 98t99 43t93 -32t38 -89t-43 -97t-100 -40zM66 0l266 1339h221l-266 -1339h-221z" />
    <glyph glyph-name="dotlessi" unicode="&#x131;" horiz-adv-x="514" 
d="M45 0l203 1006h219l-201 -1006h-221z" />
    <glyph glyph-name="Jcircumflex" unicode="&#x134;" horiz-adv-x="970" 
d="M643 1417l-92 74l240 221h253l158 -227l-110 -66l-181 180h-8zM344 -25q-117 1 -210 55t-144 150l139 129q66 -143 215 -143q178 0 231 266l181 907h221l-189 -942q-36 -190 -148 -306t-296 -116z" />
    <glyph glyph-name="jcircumflex" unicode="&#x135;" horiz-adv-x="516" 
d="M131 1155l-80 92l275 273h239l178 -279l-102 -86l-205 217h-8zM-86 -422q-94 0 -176 41l69 160q41 -25 93 -25t82 41q31 41 51 131l217 1080h219l-217 -1084q-74 -344 -338 -344z" />
    <glyph glyph-name="uni0136" unicode="&#x136;" horiz-adv-x="1191" 
d="M719 -238q0 -106 -112 -162t-298 -61l2 101q229 12 230 98q0 68 -121 74l61 92q137 -8 187 -43t51 -99zM66 0l266 1339h221l-121 -606h8l586 606h244l-494 -532l301 -807h-229l-236 668l-241 -246l-84 -422h-221z" />
    <glyph glyph-name="uni0137" unicode="&#x137;" horiz-adv-x="1026" 
d="M428 -262q0 68 -121 74l62 92q137 -8 187 -43t50 -99q0 -106 -112 -162t-297 -61l2 101q229 12 229 98zM45 0l291 1446h219l-182 -909h8l444 469h246l-405 -431l239 -575h-221l-172 446l-197 -198l-49 -248h-221z" />
    <glyph glyph-name="kgreenlandic" unicode="&#x138;" horiz-adv-x="1026" 
d="M45 0l201 1006h219l-92 -469h8l444 469h246l-405 -431l239 -575h-221l-172 446l-197 -198l-49 -248h-221z" />
    <glyph glyph-name="Lacute" unicode="&#x139;" horiz-adv-x="985" 
d="M422 1421l-86 127l369 246l102 -164zM66 0l266 1339h221l-229 -1153h534l-37 -186h-755z" />
    <glyph glyph-name="lacute" unicode="&#x13a;" horiz-adv-x="536" 
d="M424 1532l-86 127l369 246l102 -164zM252 -25q-170 0 -170 164q0 47 14 107l240 1200h219l-242 -1210q-4 -20 -4 -39q0 -43 35 -43q18 0 37 6l-4 -164q-51 -21 -125 -21z" />
    <glyph glyph-name="uni013B" unicode="&#x13b;" horiz-adv-x="985" 
d="M432 -262q0 68 -121 74l62 92q137 -8 187 -43t50 -99q0 -106 -112 -162t-297 -61l2 101q229 12 229 98zM66 0l266 1339h221l-229 -1153h534l-37 -186h-755z" />
    <glyph glyph-name="uni013C" unicode="&#x13c;" horiz-adv-x="536" 
d="M297 -238q0 -106 -112 -162t-298 -61l2 101q229 12 230 98q0 68 -121 74l61 92q137 -8 187 -43t51 -99zM252 -25q-170 0 -170 164q0 47 14 107l240 1200h219l-242 -1210q-4 -20 -4 -39q0 -43 35 -43q18 0 37 6l-4 -164q-51 -21 -125 -21z" />
    <glyph glyph-name="Lcaron" unicode="&#x13d;" horiz-adv-x="985" 
d="M778 1044l82 445h146l-27 -129l-100 -316h-101zM66 0l266 1339h221l-229 -1153h534l-37 -186h-755z" />
    <glyph glyph-name="lcaron" unicode="&#x13e;" horiz-adv-x="536" 
d="M580 1122l82 445h145l-27 -129l-100 -316h-100zM252 -25q-170 0 -170 164q0 47 14 107l240 1200h219l-242 -1210q-4 -20 -4 -39q0 -43 35 -43q18 0 37 6l-4 -164q-51 -21 -125 -21z" />
    <glyph glyph-name="Ldot" unicode="&#x13f;" horiz-adv-x="985" 
d="M792 520q-64 0 -96 36t-32 98t49 115q49 54 113 54t95 -36q31 -35 31 -99t-48 -116t-112 -52zM66 0l266 1339h221l-229 -1153h534l-37 -186h-755z" />
    <glyph glyph-name="ldot" unicode="&#x140;" horiz-adv-x="772" 
d="M532 664q0 62 50 115q50 55 112 55q64 0 96 -36t32 -100t-49 -116q-47 -52 -111 -52t-97 36t-33 98zM252 -25q-170 0 -170 164q0 47 14 107l240 1200h219l-242 -1210q-4 -20 -4 -39q0 -43 35 -43q18 0 37 6l-4 -164q-51 -21 -125 -21z" />
    <glyph glyph-name="Lslash" unicode="&#x141;" horiz-adv-x="985" 
d="M27 389l-54 143l220 107l139 700h221l-117 -585l342 170l56 -146l-435 -213l-75 -379h534l-37 -186h-755l90 453z" />
    <glyph glyph-name="lslash" unicode="&#x142;" horiz-adv-x="550" 
d="M266 -25q-170 0 -170 164q0 47 15 107l77 393l-110 -61l-51 133l198 106l125 629h219l-104 -518l123 71l55 -133l-213 -118l-102 -512q-4 -20 -4 -39q0 -43 34 -43q18 0 37 6l-4 -164q-51 -21 -125 -21z" />
    <glyph glyph-name="Nacute" unicode="&#x143;" horiz-adv-x="1292" 
d="M786 1421l-86 127l369 246l102 -164zM66 0l266 1339h217l262 -776l78 -289h8q4 33 19 186t40 271l121 608h213l-268 -1339h-215l-260 774l-78 293h-8q-37 -332 -64 -453l-121 -614h-210z" />
    <glyph glyph-name="nacute" unicode="&#x144;" horiz-adv-x="1103" 
d="M674 1186l-99 125l363 327l133 -170zM768 1030q238 0 238 -254q0 -70 -17 -141l-127 -635h-219l123 606q16 94 16 107q0 129 -127 129q-100 0 -254 -156l-135 -686h-221l201 1006h178l-10 -142h8q197 166 346 166z" />
    <glyph glyph-name="uni0145" unicode="&#x145;" horiz-adv-x="1292" 
d="M725 -254q0 -106 -112 -162t-298 -61l2 100q229 12 230 98q0 68 -121 74l61 92q137 -8 187 -43t51 -98zM66 0l266 1339h217l262 -776l78 -289h8q4 33 19 186t40 271l121 608h213l-268 -1339h-215l-260 774l-78 293h-8q-37 -332 -64 -453l-121 -614h-210z" />
    <glyph glyph-name="uni0146" unicode="&#x146;" horiz-adv-x="1103" 
d="M434 -262q0 68 -121 74l62 92q137 -8 187 -43t50 -99q0 -106 -112 -162t-297 -61l2 101q229 12 229 98zM768 1030q238 0 238 -254q0 -70 -17 -141l-127 -635h-219l123 606q16 94 16 107q0 129 -127 129q-100 0 -254 -156l-135 -686h-221l201 1006h178l-10 -142h8
q197 166 346 166z" />
    <glyph glyph-name="Ncaron" unicode="&#x147;" horiz-adv-x="1292" 
d="M696 1442l-155 229l108 66l180 -181h9l260 181l92 -74l-240 -221h-254zM66 0l266 1339h217l262 -776l78 -289h8q4 33 19 186t40 271l121 608h213l-268 -1339h-215l-260 774l-78 293h-8q-37 -332 -64 -453l-121 -614h-210z" />
    <glyph glyph-name="ncaron" unicode="&#x148;" horiz-adv-x="1103" 
d="M586 1182l-180 278l102 84l207 -215h8l295 215l82 -90l-277 -272h-237zM768 1030q238 0 238 -254q0 -70 -17 -141l-127 -635h-219l123 606q16 94 16 107q0 129 -127 129q-100 0 -254 -156l-135 -686h-221l201 1006h178l-10 -142h8q197 166 346 166z" />
    <glyph glyph-name="napostrophe" unicode="&#x149;" horiz-adv-x="1599" 
d="M1272 1030q238 0 237 -254q0 -70 -16 -141l-127 -635h-219l123 606q16 94 16 107q0 129 -127 129q-100 0 -254 -156l-135 -686h-221l201 1006h178l-10 -142h8q197 166 346 166zM438 1178h-10q-55 0 -90 28t-35 85q0 55 40 97t101 42q60 0 96 -44t35 -124q0 -156 -88 -266
t-225 -160l-39 100q98 41 157 113q58 72 58 129z" />
    <glyph glyph-name="Omacron" unicode="&#x14c;" horiz-adv-x="1325" 
d="M567 1483l29 147h557l-29 -147h-557zM614 166q174 0 302 189t128 429q0 182 -68 286q-69 103 -202 104q-174 0 -301 -190t-127 -429q0 -181 68 -285t200 -104zM602 -25q-225 0 -354 152t-129 412q-1 337 195 581t472 244q224 0 354 -152t130 -411q0 -336 -194 -581
t-474 -245z" />
    <glyph glyph-name="omacron" unicode="&#x14d;" horiz-adv-x="1073" 
d="M410 1223l28 145h551l-26 -145h-553zM469 154q123 0 215 135t92 325q0 114 -45 176t-131 62q-123 0 -216 -135t-93 -324q0 -115 46 -177t132 -62zM444 -25q-170 0 -272 112t-102 298q0 279 169 462t384 183q172 0 274 -110t102 -299q0 -276 -169 -461t-386 -185z" />
    <glyph glyph-name="uni014E" unicode="&#x14e;" horiz-adv-x="1325" 
d="M842 1436q-143 0 -210 72t-61 200l140 23q0 -70 40 -112t115 -42q147 0 211 154l129 -23q-35 -128 -128 -200t-236 -72zM614 166q174 0 302 189t128 429q0 182 -68 286q-69 103 -202 104q-174 0 -301 -190t-127 -429q0 -181 68 -285t200 -104zM602 -25q-225 0 -354 152
t-129 412q-1 337 195 581t472 244q224 0 354 -152t130 -411q0 -336 -194 -581t-474 -245z" />
    <glyph glyph-name="uni014F" unicode="&#x14f;" horiz-adv-x="1073" 
d="M682 1169q-160 1 -226 91t-53 227l146 22q-4 -78 36 -133t124 -55t142 54t85 134l135 -22q-31 -137 -130 -227t-259 -91zM469 154q123 0 215 135t92 325q0 114 -45 176t-131 62q-123 0 -216 -135t-93 -324q0 -115 46 -177t132 -62zM444 -25q-170 0 -272 112t-102 298
q0 279 169 462t384 183q172 0 274 -110t102 -299q0 -276 -169 -461t-386 -185z" />
    <glyph glyph-name="Ohungarumlaut" unicode="&#x150;" horiz-adv-x="1325" 
d="M1085 1436l-108 67l254 301l137 -100zM729 1436l-108 67l253 301l138 -100zM614 166q174 0 302 189t128 429q0 182 -68 286q-69 103 -202 104q-174 0 -301 -190t-127 -429q0 -181 68 -285t200 -104zM602 -25q-225 0 -354 152t-129 412q-1 337 195 581t472 244
q224 0 354 -152t130 -411q0 -336 -194 -581t-474 -245z" />
    <glyph glyph-name="ohungarumlaut" unicode="&#x151;" horiz-adv-x="1073" 
d="M920 1165l-117 70l244 342l145 -90zM582 1165l-117 70l244 342l145 -90zM469 154q123 0 215 135t92 325q0 114 -45 176t-131 62q-123 0 -216 -135t-93 -324q0 -115 46 -177t132 -62zM444 -25q-170 0 -272 112t-102 298q0 279 169 462t384 183q172 0 274 -110t102 -299
q0 -276 -169 -461t-386 -185z" />
    <glyph glyph-name="OE" unicode="&#x152;" horiz-adv-x="1689" 
d="M707 178h61l195 983h-109q-229 0 -368.5 -166t-139.5 -456q0 -176 94.5 -268.5t266.5 -92.5zM700 0q-281 0 -431 135t-150 389q0 379 198.5 597t532.5 218h883l-37 -186h-516l-70 -360h432l-37 -187h-432l-86 -420h535l-37 -186h-785z" />
    <glyph glyph-name="oe" unicode="&#x153;" horiz-adv-x="1648" 
d="M1401 674q0 82 -39 134t-124 52t-157.5 -73.5t-105.5 -200.5h418q8 53 8 88zM469 154q117 0 206 135t89 325q0 115 -45 176.5t-131 61.5q-115 0 -206 -136t-91 -323q0 -115 46 -177t132 -62zM432 -25q-164 0 -263 112t-99 298q0 279 165.5 462t382.5 183t291 -225
q68 106 163 165.5t192 59.5q166 0 243.5 -101.5t77.5 -269.5q0 -111 -45 -213h-586q-12 -152 51.5 -227.5t164 -75.5t212.5 80l80 -141q-147 -106 -344 -107q-109 0 -187.5 61.5t-111.5 176.5q-72 -113 -175 -175.5t-212 -62.5z" />
    <glyph glyph-name="Racute" unicode="&#x154;" horiz-adv-x="1179" 
d="M719 1421l-86 127l368 246l103 -164zM598 705q168 -1 258 73t90 203q0 182 -262 182h-168l-88 -458h170zM727 1339q438 0 438 -327q0 -180 -99 -296t-267 -161l221 -555h-236l-194 528h-199l-104 -528h-221l266 1339h395z" />
    <glyph glyph-name="racute" unicode="&#x155;" horiz-adv-x="743" 
d="M510 1186l-98 125l362 327l133 -170zM725 1030q61 0 100 -18l-73 -193q-33 16 -95 17q-152 0 -272 -228l-119 -608h-221l201 1006h178l-18 -195h8q139 219 311 219z" />
    <glyph glyph-name="uni0156" unicode="&#x156;" horiz-adv-x="1179" 
d="M514 -279q0 68 -121 74l62 92q137 -8 187 -43t50 -98q0 -106 -111 -163q-112 -56 -298 -60l2 100q229 12 229 98zM598 705q168 -1 258 73t90 203q0 182 -262 182h-168l-88 -458h170zM727 1339q438 0 438 -327q0 -180 -99 -296t-267 -161l221 -555h-236l-194 528h-199
l-104 -528h-221l266 1339h395z" />
    <glyph glyph-name="uni0157" unicode="&#x157;" horiz-adv-x="743" 
d="M125 -262q0 68 -121 74l62 92q137 -8 187 -43t50 -99q1 -106 -111 -162t-298 -61l2 101q229 12 229 98zM725 1030q61 0 100 -18l-73 -193q-33 16 -95 17q-152 0 -272 -228l-119 -608h-221l201 1006h178l-18 -195h8q139 219 311 219z" />
    <glyph glyph-name="Rcaron" unicode="&#x158;" horiz-adv-x="1179" 
d="M629 1442l-156 229l109 66l180 -181h8l260 181l92 -74l-239 -221h-254zM598 705q168 -1 258 73t90 203q0 182 -262 182h-168l-88 -458h170zM727 1339q438 0 438 -327q0 -180 -99 -296t-267 -161l221 -555h-236l-194 528h-199l-104 -528h-221l266 1339h395z" />
    <glyph glyph-name="rcaron" unicode="&#x159;" horiz-adv-x="743" 
d="M422 1182l-180 278l102 84l207 -215h8l295 215l82 -90l-277 -272h-237zM725 1030q61 0 100 -18l-73 -193q-33 16 -95 17q-152 0 -272 -228l-119 -608h-221l201 1006h178l-18 -195h8q139 219 311 219z" />
    <glyph glyph-name="Sacute" unicode="&#x15a;" horiz-adv-x="1060" 
d="M680 1430l-86 126l369 246l102 -164zM479 -25q-289 0 -463 244l160 123q127 -178 322 -178q106 0 173 55t66 148q0 57 -39 99t-123 93l-141 86q-203 125 -203 326q0 161 128 277t317 116q236 0 393 -197l-141 -129q-121 135 -264 136q-92 0 -148 -54t-57 -120
q0 -66 40 -105t130 -94l143 -86q100 -59 148 -132t47 -186q-1 -182 -137 -302t-351 -120z" />
    <glyph glyph-name="sacute" unicode="&#x15b;" horiz-adv-x="845" 
d="M514 1186l-98 125l362 327l133 -170zM340 -25q-96 1 -196 55t-156 138l131 106q102 -135 237 -135q72 0 124 38t52 88t-37 83q-38 33 -143 90q-215 119 -215 279q1 135 107 224t273 89t302 -143l-123 -117q-94 94 -192 94q-68 0 -114 -37t-46 -87t54 -92q50 -34 142 -81
q199 -102 199 -270q0 -145 -111 -234q-112 -88 -288 -88z" />
    <glyph glyph-name="Scircumflex" unicode="&#x15c;" horiz-adv-x="1060" 
d="M502 1425l-92 74l239 221h254l158 -227l-111 -66l-180 181h-8zM479 -25q-289 0 -463 244l160 123q127 -178 322 -178q106 0 173 55t66 148q0 57 -39 99t-123 93l-141 86q-203 125 -203 326q0 161 128 277t317 116q236 0 393 -197l-141 -129q-121 135 -264 136
q-92 0 -148 -54t-57 -120q0 -66 40 -105t130 -94l143 -86q100 -59 148 -132t47 -186q-1 -182 -137 -302t-351 -120z" />
    <glyph glyph-name="scircumflex" unicode="&#x15d;" horiz-adv-x="845" 
d="M309 1155l-80 92l275 273h239l179 -279l-103 -86l-205 217h-8zM340 -25q-96 1 -196 55t-156 138l131 106q102 -135 237 -135q72 0 124 38t52 88t-37 83q-38 33 -143 90q-215 119 -215 279q1 135 107 224t273 89t302 -143l-123 -117q-94 94 -192 94q-68 0 -114 -37
t-46 -87t54 -92q50 -34 142 -81q199 -102 199 -270q0 -145 -111 -234q-112 -88 -288 -88z" />
    <glyph glyph-name="uni015E" unicode="&#x15e;" horiz-adv-x="1060" 
d="M498 164q106 0 173 55t66 148q0 57 -39 99t-123 93l-141 86q-203 125 -203 326q0 161 128 277t317 116q236 0 393 -197l-141 -129q-121 135 -264 136q-92 0 -148 -54t-57 -120q0 -66 40 -105t130 -94l143 -86q100 -59 148 -132t47 -186q0 -165 -114 -281t-300 -136
l-68 -109q74 -18 104 -51t23 -88q-24 -199 -407 -209l-2 100q223 12 235 103q4 70 -141 86l111 168q-242 31 -392 239l160 123q127 -178 322 -178z" />
    <glyph glyph-name="uni015F" unicode="&#x15f;" horiz-adv-x="845" 
d="M356 139q72 0 124 38t52 88t-37 83q-38 33 -143 90q-215 119 -215 279q1 135 107 224t273 89t302 -143l-123 -117q-94 94 -192 94q-68 0 -114 -37t-46 -87t54 -92q50 -34 142 -81q199 -102 199 -270q0 -127 -88 -212t-233 -105l-68 -109q74 -18 104 -51t23 -88
q-24 -199 -407 -209l-2 100q223 12 235 103q4 70 -141 86l112 170q-84 16 -162 65t-124 121l131 106q102 -135 237 -135z" />
    <glyph glyph-name="Scaron" unicode="&#x160;" horiz-adv-x="1060" 
d="M590 1450l-156 229l109 66l180 -180h8l260 180l92 -74l-239 -221h-254zM479 -25q-289 0 -463 244l160 123q127 -178 322 -178q106 0 173 55t66 148q0 57 -39 99t-123 93l-141 86q-203 125 -203 326q0 161 128 277t317 116q236 0 393 -197l-141 -129q-121 135 -264 136
q-92 0 -148 -54t-57 -120q0 -66 40 -105t130 -94l143 -86q100 -59 148 -132t47 -186q-1 -182 -137 -302t-351 -120z" />
    <glyph glyph-name="scaron" unicode="&#x161;" horiz-adv-x="845" 
d="M426 1182l-180 278l102 84l207 -215h8l295 215l82 -90l-276 -272h-238zM340 -25q-96 1 -196 55t-156 138l131 106q102 -135 237 -135q72 0 124 38t52 88t-37 83q-38 33 -143 90q-215 119 -215 279q1 135 107 224t273 89t302 -143l-123 -117q-94 94 -192 94
q-68 0 -114 -37t-46 -87t54 -92q50 -34 142 -81q199 -102 199 -270q0 -145 -111 -234q-112 -88 -288 -88z" />
    <glyph glyph-name="uni0162" unicode="&#x162;" horiz-adv-x="1067" 
d="M322 0l229 1151h-371l37 188h963l-37 -188h-371l-229 -1151h-37l-80 -129q74 -18 104 -51t23 -88q-25 -199 -408 -209l-2 100q223 12 236 103q4 70 -141 86l124 188h-40z" />
    <glyph glyph-name="uni0163" unicode="&#x163;" horiz-adv-x="708" 
d="M135 221q0 37 12 119l103 491h-141l32 164l154 11l80 270h184l-53 -270h242l-35 -175h-246l-102 -499q-6 -37 -7 -72q0 -111 117 -110q41 0 94 26l41 -156q-88 -37 -182 -45l-66 -104q74 -18 104 -51t23 -88q-24 -199 -407 -209l-2 100q223 12 235 103q4 70 -141 86
l119 178q-158 45 -158 231z" />
    <glyph glyph-name="Tcaron" unicode="&#x164;" horiz-adv-x="1067" 
d="M565 1442l-155 229l108 66l180 -181h9l260 181l92 -74l-240 -221h-254zM322 0l229 1151h-371l37 188h963l-37 -188h-371l-229 -1151h-221z" />
    <glyph glyph-name="tcaron" unicode="&#x165;" horiz-adv-x="708" 
d="M659 1122l82 445h146l-27 -129l-100 -316h-101zM382 -25q-120 0 -183 67t-64 179q0 37 12 119l103 491h-141l32 164l154 11l80 270h184l-53 -270h242l-35 -175h-246l-102 -499q-6 -37 -7 -72q0 -111 117 -110q41 0 94 26l41 -156q-108 -45 -228 -45z" />
    <glyph glyph-name="Utilde" unicode="&#x168;" horiz-adv-x="1290" 
d="M727 1733q61 0 109 -33t87 -66q38 -33 68 -32q70 0 109 118l149 -12q-29 -135 -103 -205q-75 -69 -172 -69t-161 66q-63 66 -108 67q-74 0 -109 -119l-150 12q29 135 104 204t177 69zM379 432q0 -266 237 -266q227 0 302 375l159 798h217l-161 -798q-113 -565 -525 -566
q-451 0 -450 445q-1 68 24 203l144 716h221l-150 -749q-18 -86 -18 -158z" />
    <glyph glyph-name="utilde" unicode="&#x169;" horiz-adv-x="1099" 
d="M827 1178q-47 0 -86 24t-61 52q-57 78 -113 77q-78 0 -106 -139l-150 8q27 141 96 218t173 77q59 0 104 -38t81 -76t75 -38q82 0 106 138l150 -8q-27 -141 -96 -218t-173 -77zM336 -25q-240 0 -240 254q0 59 17 142l127 635h219l-121 -607q-16 -76 -16 -106
q0 -129 124 -129q100 0 248 155l135 687h220l-199 -1006h-178l8 143h-8q-186 -168 -336 -168z" />
    <glyph glyph-name="Umacron" unicode="&#x16a;" horiz-adv-x="1290" 
d="M549 1483l29 147h557l-29 -147h-557zM379 432q0 -266 237 -266q227 0 302 375l159 798h217l-161 -798q-113 -565 -525 -566q-451 0 -450 445q-1 68 24 203l144 716h221l-150 -749q-18 -86 -18 -158z" />
    <glyph glyph-name="umacron" unicode="&#x16b;" horiz-adv-x="1099" 
d="M397 1223l29 145h551l-27 -145h-553zM336 -25q-240 0 -240 254q0 59 17 142l127 635h219l-121 -607q-16 -76 -16 -106q0 -129 124 -129q100 0 248 155l135 687h220l-199 -1006h-178l8 143h-8q-186 -168 -336 -168z" />
    <glyph glyph-name="Ubreve" unicode="&#x16c;" horiz-adv-x="1290" 
d="M823 1436q-143 0 -210 72t-60 200l139 23q0 -70 40 -112t116 -42q147 0 211 154l129 -23q-35 -127 -128 -200q-94 -72 -237 -72zM379 432q0 -266 237 -266q227 0 302 375l159 798h217l-161 -798q-113 -565 -525 -566q-451 0 -450 445q-1 68 24 203l144 716h221l-150 -749
q-18 -86 -18 -158z" />
    <glyph glyph-name="ubreve" unicode="&#x16d;" horiz-adv-x="1099" 
d="M670 1169q-160 1 -227 91t-52 227l146 22q-5 -78 35 -133t124 -55t143 54q58 54 85 134l135 -22q-31 -137 -130 -227t-259 -91zM336 -25q-240 0 -240 254q0 59 17 142l127 635h219l-121 -607q-16 -76 -16 -106q0 -129 124 -129q100 0 248 155l135 687h220l-199 -1006
h-178l8 143h-8q-186 -168 -336 -168z" />
    <glyph glyph-name="Uring" unicode="&#x16e;" horiz-adv-x="1290" 
d="M762 1608q0 -86 83 -86q40 0 73 34q32 34 32 75q-1 91 -84 89q-40 0 -72 -32t-32 -80zM844 1430q-92 0 -149 43q-56 43 -56 129t69 148q70 62 160 62t148 -43t57 -129q0 -86 -68 -148q-69 -62 -161 -62zM379 432q0 -266 237 -266q227 0 302 375l159 798h217l-161 -798
q-113 -565 -525 -566q-451 0 -450 445q-1 68 24 203l144 716h221l-150 -749q-18 -86 -18 -158z" />
    <glyph glyph-name="uring" unicode="&#x16f;" horiz-adv-x="1099" 
d="M602 1339q0 -96 89 -96q44 0 78 40t34 86t-23 72q-22 25 -66 25t-78 -40t-34 -87zM720 1559q106 1 166 -47t60 -137t-76 -157t-182 -67q-106 0 -167 47q-60 47 -60 136t77 157t182 68zM336 -25q-240 0 -240 254q0 59 17 142l127 635h219l-121 -607q-16 -76 -16 -106
q0 -129 124 -129q100 0 248 155l135 687h220l-199 -1006h-178l8 143h-8q-186 -168 -336 -168z" />
    <glyph glyph-name="Uhungarumlaut" unicode="&#x170;" horiz-adv-x="1290" 
d="M1067 1436l-109 67l254 301l138 -100zM711 1436l-109 67l254 301l137 -100zM379 432q0 -266 237 -266q227 0 302 375l159 798h217l-161 -798q-113 -565 -525 -566q-451 0 -450 445q-1 68 24 203l144 716h221l-150 -749q-18 -86 -18 -158z" />
    <glyph glyph-name="uhungarumlaut" unicode="&#x171;" horiz-adv-x="1099" 
d="M907 1165l-116 70l243 342l146 -90zM569 1165l-116 70l243 342l146 -90zM336 -25q-240 0 -240 254q0 59 17 142l127 635h219l-121 -607q-16 -76 -16 -106q0 -129 124 -129q100 0 248 155l135 687h220l-199 -1006h-178l8 143h-8q-186 -168 -336 -168z" />
    <glyph glyph-name="Uogonek" unicode="&#x172;" horiz-adv-x="1290" 
d="M512 -213q0 -45 20.5 -64.5t51 -19.5t63.5 21l45 -113q-84 -53 -173 -53t-137 38.5t-48 111.5t53 149.5t123 126.5q-352 51 -352 436q0 68 24 203l144 716h221l-150 -749q-18 -86 -18 -158q0 -266 237 -266q227 0 302 375l159 798h217l-161 -798q-45 -246 -141.5 -369
t-268.5 -186q-104 -35 -157.5 -94.5t-53.5 -104.5z" />
    <glyph glyph-name="uogonek" unicode="&#x173;" horiz-adv-x="1099" 
d="M639 -426q-174 0 -174 152q0 76 63.5 154.5t143.5 127.5l8 135h-8q-186 -168 -336 -168q-240 0 -240 254q0 59 17 142l127 635h219l-121 -607q-16 -76 -16 -106q0 -129 124 -129q100 0 248 155l135 687h220l-199 -1006q-221 -88 -221 -221q0 -31 20.5 -49.5t53 -18.5
t71.5 23l39 -99q-90 -61 -174 -61z" />
    <glyph glyph-name="Wcircumflex" unicode="&#x174;" horiz-adv-x="1587" 
d="M737 1417l-92 74l240 221h254l157 -227l-110 -66l-180 180h-9zM176 0l33 1339h225l-31 -688q-2 -16 -12 -182t-18 -252h8q29 70 91 216t91 218l305 688h191l12 -688q0 -217 -6 -434h8q29 82 85 232t75 202l258 688h213l-537 -1339h-278l-4 729q0 104 12 313h-8
q-25 -70 -125 -313l-313 -729h-275z" />
    <glyph glyph-name="wcircumflex" unicode="&#x175;" horiz-adv-x="1490" 
d="M618 1155l-79 92l274 273h240l178 -279l-103 -86l-204 217h-9zM377 178h8q98 248 117 289l233 539h201l27 -539q4 -98 4 -289h8q92 244 110 289l224 539h204l-442 -1006h-262l-18 483q0 144 -3 297h-8q-14 -35 -40 -107t-72 -190l-207 -483h-256l-60 1006h217l17 -539
q2 -55 0 -155t-2 -134z" />
    <glyph glyph-name="Ycircumflex" unicode="&#x176;" horiz-adv-x="995" 
d="M436 1417l-92 74l240 221h254l157 -227l-110 -66l-180 180h-9zM283 0l100 504l-215 835h227l76 -352q13 -57 31 -157t26 -138h9q139 240 174 297l219 350h237l-563 -835l-100 -504h-221z" />
    <glyph glyph-name="ycircumflex" unicode="&#x177;" horiz-adv-x="970" 
d="M338 1155l-80 92l274 273h240l178 -279l-102 -86l-205 217h-8zM31 -414q-66 0 -129 37l69 160q97 -55 197 30q59 50 102 136l31 61l-174 996h219l64 -508q18 -164 24 -301h8q16 33 66 141t76 160l250 508h213l-566 -1059q-101 -181 -205 -271t-245 -90z" />
    <glyph glyph-name="Ydieresis" unicode="&#x178;" horiz-adv-x="995" 
d="M892 1683q48 -1 77 -27t29 -75t-38 -90q-37 -41 -86 -41q-48 0 -76 27t-28 75t37 90q37 41 85 41zM469 1450q-49 0 -77 27t-28 75t37 90q37 41 85 41q48 -1 78 -27q28 -26 28 -75t-37 -90t-86 -41zM283 0l100 504l-215 835h227l76 -352q13 -57 31 -157t26 -138h9
q139 240 174 297l219 350h237l-563 -835l-100 -504h-221z" />
    <glyph glyph-name="Zacute" unicode="&#x179;" horiz-adv-x="1062" 
d="M672 1421l-86 127l368 246l103 -164zM-6 0l29 133l798 1020h-569l37 186h833l-26 -133l-793 -1020h627l-39 -186h-897z" />
    <glyph glyph-name="zacute" unicode="&#x17a;" horiz-adv-x="874" 
d="M539 1186l-99 125l363 327l133 -170zM-20 0l24 125l598 706h-409l34 175h686l-24 -127l-600 -705h473l-35 -174h-747z" />
    <glyph glyph-name="Zdotaccent" unicode="&#x17b;" horiz-adv-x="1062" 
d="M877 1589q1 -57 -43 -97t-101 -40t-94 31t-37 86t44 98t100 43t93 -32q38 -32 38 -89zM-6 0l29 133l798 1020h-569l37 186h833l-26 -133l-793 -1020h627l-39 -186h-897z" />
    <glyph glyph-name="zdotaccent" unicode="&#x17c;" horiz-adv-x="874" 
d="M603 1184q-56 0 -94 30t-38 86q0 54 44 98t99 44q56 0 94 -31t38 -88t-44 -98q-43 -41 -99 -41zM-20 0l24 125l598 706h-409l34 175h686l-24 -127l-600 -705h473l-35 -174h-747z" />
    <glyph glyph-name="Zcaron" unicode="&#x17d;" horiz-adv-x="1062" 
d="M582 1442l-156 229l109 66l180 -181h8l260 181l92 -74l-239 -221h-254zM-6 0l29 133l798 1020h-569l37 186h833l-26 -133l-793 -1020h627l-39 -186h-897z" />
    <glyph glyph-name="zcaron" unicode="&#x17e;" horiz-adv-x="874" 
d="M451 1182l-181 278l103 84l207 -215h8l295 215l82 -90l-277 -272h-237zM-20 0l24 125l598 706h-409l34 175h686l-24 -127l-600 -705h473l-35 -174h-747z" />
    <glyph glyph-name="uni0180" unicode="&#x180;" horiz-adv-x="1091" 
d="M807 614q0 96 -40 146q-41 50 -107 49q-66 0 -137 -38t-124 -107l-77 -385q61 -123 165 -123q127 0 224 137q96 137 96 321zM738 989q142 0 218 -90t76 -256q0 -274 -160 -471t-370 -197q-154 0 -228 142h-4l-43 -117h-182l234 1157h-144l21 105l145 10l35 174h219
l-35 -174h344l-24 -115h-342l-23 -108l-49 -193h4q166 133 308 133z" />
    <glyph glyph-name="uni018F" unicode="&#x18f;" horiz-adv-x="1335" 
d="M610 164q141 0 258 111.5t166 295.5h-692q-27 -186 50 -296.5t218 -110.5zM592 -25q-215 0 -338 140.5t-123 373.5q0 106 39 246h891q2 18 2 60q0 393 -277 393q-154 0 -301 -125l-96 149q182 164 417.5 164t356.5 -148.5t121 -408.5q0 -365 -201.5 -604.5t-490.5 -239.5
z" />
    <glyph glyph-name="uni0192" unicode="&#x192;" horiz-adv-x="1011" 
d="M92 -199q-111 0 -178 49l66 158q46 -31 108 -31t111 69t98 228l123 402h-162l33 153l143 9h35l43 141q58 199 158 297t254 98q86 0 174 -47l-70 -160q-56 31 -114 31t-109 -63t-82 -160l-43 -137h225l-33 -162h-241l-148 -477q-59 -190 -150 -294t-241 -104z" />
    <glyph glyph-name="Ohorn" unicode="&#x1a0;" horiz-adv-x="1325" 
d="M614 166q174 0 302 189.5t128 428.5q0 182 -68.5 286t-201.5 104q-174 0 -301 -189.5t-127 -429.5q0 -182 67.5 -285.5t200.5 -103.5zM602 -25q-225 0 -354 152t-129 412q0 336 195.5 580.5t471.5 244.5q137 0 242 -57q88 10 136 62q48 51 48 111t-20 107l170 55
q29 -74 29 -133q0 -115 -71 -190.5t-185 -97.5q135 -152 135 -420q0 -336 -194.5 -581t-473.5 -245z" />
    <glyph glyph-name="ohorn" unicode="&#x1a1;" horiz-adv-x="1081" 
d="M469 154q123 0 215 135t92 325q0 115 -45 176.5t-131 61.5q-123 0 -216 -135t-93 -324q0 -115 46 -177t132 -62zM444 -25q-170 0 -272 112t-102 298q0 279 169 462t384 183q104 0 190 -45q80 12 127 70.5t49 126.5t-14 110l168 56q25 -61 24 -136q0 -117 -69.5 -199.5
t-184.5 -111.5q86 -109 86 -280q0 -276 -169 -461t-386 -185z" />
    <glyph glyph-name="Uhorn" unicode="&#x1af;" horiz-adv-x="1327" 
d="M379 432q0 -266 237 -266q227 0 302 375l159 798h123q180 23 180 168q0 45 -20 92l170 56q29 -66 29 -131q0 -225 -283 -273l-143 -710q-113 -565 -525 -566q-451 0 -450 445q-1 68 24 203l144 716h221l-150 -749q-18 -86 -18 -158z" />
    <glyph glyph-name="uhorn" unicode="&#x1b0;" horiz-adv-x="1136" 
d="M336 -25q-240 0 -240 254q0 59 17 142l127 635h219l-121 -607q-16 -76 -16 -106q0 -129 124 -129q100 0 248 155l135 687h93q72 8 121 64t51 142q4 39 -17 95l168 55q27 -70 27 -137q0 -115 -66.5 -195t-173.5 -108l-182 -922h-178l8 143h-8q-186 -168 -336 -168z" />
    <glyph glyph-name="uni01CD" unicode="&#x1cd;" horiz-adv-x="1083" 
d="M590 1442l-156 229l109 66l180 -181h8l260 181l92 -74l-239 -221h-254zM-119 0l717 1339h262l144 -1339h-230l-26 377h-437l-186 -377h-244zM696 1163h-8q-120 -270 -194 -415l-101 -203h342l-14 203q-25 401 -25 415z" />
    <glyph glyph-name="uni01CE" unicode="&#x1ce;" horiz-adv-x="1114" 
d="M541 1182l-181 278l103 84l207 -215h8l295 215l82 -90l-277 -272h-237zM449 156q150 0 264 170l82 401q-63 123 -170 123q-129 0 -227 -142t-99 -335q0 -217 150 -217zM358 -25q-133 1 -210 97t-76 270q0 284 164 486t376 202q74 0 136 -38t96 -103h4l43 117h176
l-201 -1006h-180l10 139h-6q-158 -164 -332 -164z" />
    <glyph glyph-name="uni01CF" unicode="&#x1cf;" horiz-adv-x="559" 
d="M311 1442l-155 229l108 66l180 -181h9l260 181l92 -74l-240 -221h-254zM66 0l266 1339h221l-266 -1339h-221z" />
    <glyph glyph-name="uni01D0" unicode="&#x1d0;" horiz-adv-x="514" 
d="M252 1182l-180 278l102 84l207 -215h8l295 215l82 -90l-277 -272h-237zM45 0l203 1006h219l-201 -1006h-221z" />
    <glyph glyph-name="uni01D1" unicode="&#x1d1;" horiz-adv-x="1325" 
d="M707 1442l-156 229l108 66l181 -181h8l260 181l92 -74l-239 -221h-254zM614 166q174 0 302 189t128 429q0 182 -68 286q-69 103 -202 104q-174 0 -301 -190t-127 -429q0 -181 68 -285t200 -104zM602 -25q-225 0 -354 152t-129 412q-1 337 195 581t472 244q224 0 354 -152
t130 -411q0 -336 -194 -581t-474 -245z" />
    <glyph glyph-name="uni01D2" unicode="&#x1d2;" horiz-adv-x="1073" 
d="M545 1182l-180 278l102 84l207 -215h8l295 215l82 -90l-277 -272h-237zM469 154q123 0 215 135t92 325q0 114 -45 176t-131 62q-123 0 -216 -135t-93 -324q0 -115 46 -177t132 -62zM444 -25q-170 0 -272 112t-102 298q0 279 169 462t384 183q172 0 274 -110t102 -299
q0 -276 -169 -461t-386 -185z" />
    <glyph glyph-name="uni01D3" unicode="&#x1d3;" horiz-adv-x="1290" 
d="M688 1442l-156 229l109 66l180 -181h8l261 181l92 -74l-240 -221h-254zM379 432q0 -266 237 -266q227 0 302 375l159 798h217l-161 -798q-113 -565 -525 -566q-451 0 -450 445q-1 68 24 203l144 716h221l-150 -749q-18 -86 -18 -158z" />
    <glyph glyph-name="uni01D4" unicode="&#x1d4;" horiz-adv-x="1099" 
d="M532 1182l-180 278l103 84l207 -215h8l295 215l82 -90l-277 -272h-238zM336 -25q-240 0 -240 254q0 59 17 142l127 635h219l-121 -607q-16 -76 -16 -106q0 -129 124 -129q100 0 248 155l135 687h220l-199 -1006h-178l8 143h-8q-186 -168 -336 -168z" />
    <glyph glyph-name="uni01D5" unicode="&#x1d5;" horiz-adv-x="1290" 
d="M610 1769l23 113h559l-25 -113h-557zM1040 1450q-42 0 -68 25t-26 69t34 81q34 38 78 38t68 -26q24 -25 25 -69q0 -44 -34 -81t-77 -37zM642 1450q-44 0 -69 25t-25 69t35 81q34 38 77 38q42 0 68 -26q26 -25 26 -69t-34 -81t-78 -37zM379 432q0 -266 237 -266
q227 0 302 375l159 798h217l-161 -798q-113 -565 -525 -566q-451 0 -450 445q-1 68 24 203l144 716h221l-150 -749q-18 -86 -18 -158z" />
    <glyph glyph-name="uni01D6" unicode="&#x1d6;" horiz-adv-x="1099" 
d="M467 1538l25 113h548l-24 -113h-549zM883 1188q-43 0 -68 26t-25 69q0 44 35 81t78 37t68 -24q25 -25 25 -69t-36 -82q-34 -38 -77 -38zM500 1401q94 1 94 -93q0 -46 -35 -83t-79 -37t-68 26t-25 70q0 45 34 81t79 36zM336 -25q-240 0 -240 254q0 59 17 142l127 635h219
l-121 -607q-16 -76 -16 -106q0 -129 124 -129q100 0 248 155l135 687h220l-199 -1006h-178l8 143h-8q-186 -168 -336 -168z" />
    <glyph glyph-name="uni01D7" unicode="&#x1d7;" horiz-adv-x="1290" 
d="M885 1696l-92 73l241 252l131 -106zM1040 1450q-42 0 -68 25t-26 69t34 81q34 38 78 38t68 -26q24 -25 25 -69q0 -44 -34 -81t-77 -37zM642 1450q-44 0 -69 25t-25 69t35 81q34 38 77 38q42 0 68 -26q26 -25 26 -69t-34 -81t-78 -37zM379 432q0 -266 237 -266
q227 0 302 375l159 798h217l-161 -798q-113 -565 -525 -566q-451 0 -450 445q-1 68 24 203l144 716h221l-150 -749q-18 -86 -18 -158z" />
    <glyph glyph-name="uni01D8" unicode="&#x1d8;" horiz-adv-x="1099" 
d="M883 1188q-43 0 -68 26t-25 69q0 44 35 81t78 37t68 -24q25 -25 25 -69t-36 -82q-34 -38 -77 -38zM500 1401q94 1 94 -93q0 -46 -35 -83t-79 -37t-68 26t-25 70q0 45 34 81t79 36zM741 1458l-82 70l209 237l113 -98zM336 -25q-240 0 -240 254q0 59 17 142l127 635h219
l-121 -607q-16 -76 -16 -106q0 -129 124 -129q100 0 248 155l135 687h220l-199 -1006h-178l8 143h-8q-186 -168 -336 -168z" />
    <glyph glyph-name="uni01D9" unicode="&#x1d9;" horiz-adv-x="1290" 
d="M780 1733l-151 196l104 66l162 -144h8l217 144l86 -66l-221 -196h-205zM1040 1450q-42 0 -68 25t-26 69t34 81q34 38 78 38t68 -26q24 -25 25 -69q0 -44 -34 -81t-77 -37zM642 1450q-44 0 -69 25t-25 69t35 81q34 38 77 38q42 0 68 -26q26 -25 26 -69t-34 -81t-78 -37z
M379 432q0 -266 237 -266q227 0 302 375l159 798h217l-161 -798q-113 -565 -525 -566q-451 0 -450 445q-1 68 24 203l144 716h221l-150 -749q-18 -86 -18 -158z" />
    <glyph glyph-name="uni01DA" unicode="&#x1da;" horiz-adv-x="1099" 
d="M883 1188q-43 0 -68 26t-25 69q0 44 35 81t78 37t68 -24q25 -25 25 -69t-36 -82q-34 -38 -77 -38zM500 1401q94 1 94 -93q0 -46 -35 -83t-79 -37t-68 26t-25 70q0 45 34 81t79 36zM635 1493l-164 190l90 74l182 -141h9l237 141l68 -76l-232 -188h-190zM336 -25
q-240 0 -240 254q0 59 17 142l127 635h219l-121 -607q-16 -76 -16 -106q0 -129 124 -129q100 0 248 155l135 687h220l-199 -1006h-178l8 143h-8q-186 -168 -336 -168z" />
    <glyph glyph-name="uni01DB" unicode="&#x1db;" horiz-adv-x="1290" 
d="M860 1686l-196 258l163 79l146 -282zM1040 1450q-42 0 -68 25t-26 69t34 81q34 38 78 38t68 -26q24 -25 25 -69q0 -44 -34 -81t-77 -37zM642 1450q-44 0 -69 25t-25 69t35 81q34 38 77 38q42 0 68 -26q26 -25 26 -69t-34 -81t-78 -37zM379 432q0 -266 237 -266
q227 0 302 375l159 798h217l-161 -798q-113 -565 -525 -566q-451 0 -450 445q-1 68 24 203l144 716h221l-150 -749q-18 -86 -18 -158z" />
    <glyph glyph-name="uni01DC" unicode="&#x1dc;" horiz-adv-x="1099" 
d="M715 1448l-160 244l141 75l121 -266zM883 1188q-43 0 -68 26t-25 69q0 44 35 81t78 37t68 -24q25 -25 25 -69t-36 -82q-34 -38 -77 -38zM500 1401q94 1 94 -93q0 -46 -35 -83t-79 -37t-68 26t-25 70q0 45 34 81t79 36zM336 -25q-240 0 -240 254q0 59 17 142l127 635h219
l-121 -607q-16 -76 -16 -106q0 -129 124 -129q100 0 248 155l135 687h220l-199 -1006h-178l8 143h-8q-186 -168 -336 -168z" />
    <glyph glyph-name="Gcaron" unicode="&#x1e6;" horiz-adv-x="1228" 
d="M719 1442l-156 229l109 66l180 -181h8l260 181l92 -74l-239 -221h-254zM624 -25q-236 -1 -372 147q-135 148 -135 388t89 430t257 307t377 117q236 0 354 -205l-152 -117q-82 131 -215 132q-209 0 -347 -193t-138 -438q0 -175 78 -277t246 -102q109 0 186 63l66 316h-248
l35 180h444l-121 -610q-168 -138 -404 -138z" />
    <glyph glyph-name="gcaron" unicode="&#x1e7;" horiz-adv-x="1101" 
d="M526 1182l-180 278l103 84l206 -215h9l294 215l82 -90l-276 -272h-238zM444 203q150 0 261 151l75 373q-68 123 -168 123q-123 0 -218 -134t-95 -313q1 -98 39 -149t106 -51zM354 -446q-196 0 -368 139l98 147q137 -111 270 -110q221 0 287 254l51 194
q-154 -158 -327 -158q-133 0 -213 92t-80 263q0 268 159 462q160 194 369 193q74 0 134 -38t93 -103h7l43 117h178l-205 -1020q-43 -212 -172 -322q-128 -110 -324 -110z" />
    <glyph glyph-name="uni01EA" unicode="&#x1ea;" horiz-adv-x="1325" 
d="M614 166q174 0 302 189.5t128 428.5q0 182 -68.5 286t-201.5 104q-174 0 -301 -189.5t-127 -429.5q0 -182 67.5 -285.5t200.5 -103.5zM548 -442q-89 0 -137.5 38.5t-48.5 113.5t54.5 151t120.5 119q-199 25 -308.5 171t-109.5 388q0 336 195.5 580.5t471.5 244.5
q225 0 354.5 -151.5t129.5 -421t-135.5 -486.5t-382.5 -311q-106 -43 -158.5 -101.5t-52.5 -104.5t20.5 -65.5t51 -19.5t63.5 21l45 -113q-84 -53 -173 -53z" />
    <glyph glyph-name="uni01EB" unicode="&#x1eb;" horiz-adv-x="1073" 
d="M469 154q123 0 215 135t92 325q0 115 -45 176.5t-131 61.5q-123 0 -216 -135t-93 -324q0 -115 46 -177t132 -62zM379 -210q-1 -79 73 -79q32 0 72 23l39 -99q-90 -61 -174 -61q-174 0 -174 150q0 74 57.5 149.5t112.5 110.5q-147 20 -231 123.5t-84 277.5q0 279 169 462
t384 183q166 0 271 -109.5t105 -299.5q0 -236 -113.5 -391.5t-305.5 -237.5q-96 -41 -148.5 -100.5t-52.5 -101.5z" />
    <glyph glyph-name="uni0218" unicode="&#x218;" horiz-adv-x="1060" 
d="M436 -279q0 68 -121 74l62 92q137 -8 187 -43t50 -98q0 -106 -111 -163q-112 -56 -298 -60l2 100q229 12 229 98zM479 -25q-289 0 -463 244l160 123q127 -178 322 -178q106 0 173 55t66 148q0 57 -39 99t-123 93l-141 86q-203 125 -203 326q0 161 128 277t317 116
q236 0 393 -197l-141 -129q-121 135 -264 136q-92 0 -148 -54t-57 -120q0 -66 40 -105t130 -94l143 -86q100 -59 148 -132t47 -186q-1 -182 -137 -302t-351 -120z" />
    <glyph glyph-name="uni0219" unicode="&#x219;" horiz-adv-x="845" 
d="M500 -238q0 -106 -112 -162t-298 -61l2 101q229 12 230 98q0 68 -121 74l61 92q138 -8 188 -43t50 -99zM340 -25q-96 1 -196 55t-156 138l131 106q102 -135 237 -135q72 0 124 38t52 88t-37 83q-38 33 -143 90q-215 119 -215 279q1 135 107 224t273 89t302 -143
l-123 -117q-94 94 -192 94q-68 0 -114 -37t-46 -87t54 -92q50 -34 142 -81q199 -102 199 -270q0 -145 -111 -234q-112 -88 -288 -88z" />
    <glyph glyph-name="uni021A" unicode="&#x21a;" horiz-adv-x="1067" 
d="M393 -262q0 68 -121 74l62 92q137 -8 187 -43t50 -99q1 -106 -111 -162t-298 -61l2 101q229 12 229 98zM322 0l229 1151h-371l37 188h963l-37 -188h-371l-229 -1151h-221z" />
    <glyph glyph-name="uni021B" unicode="&#x21b;" horiz-adv-x="708" 
d="M305 -262q0 68 -121 74l62 92q137 -8 187 -43t50 -99q1 -106 -111 -162t-298 -61l2 101q229 12 229 98zM382 -25q-120 0 -183 67t-64 179q0 37 12 119l103 491h-141l32 164l154 11l80 270h184l-53 -270h242l-35 -175h-246l-102 -499q-6 -37 -7 -72q0 -111 117 -110
q41 0 94 26l41 -156q-108 -45 -228 -45z" />
    <glyph glyph-name="uni0237" unicode="&#x237;" horiz-adv-x="516" 
d="M-86 -422q-94 0 -176 41l69 160q41 -25 93 -25t82 41t51 131l217 1080h219l-217 -1084q-74 -344 -338 -344z" />
    <glyph glyph-name="uni0243" unicode="&#x243;" horiz-adv-x="1273" 
d="M557 160q168 0 262 72t94 217q0 94 -66 149q-67 55 -190 55h-204l-35 -174h280l-24 -114h-281l-41 -205h205zM641 797q158 0 239 58t81 161q0 162 -252 162h-152l-78 -381h162zM754 1339q204 -1 318 -73t114 -202t-84 -217t-211 -118l-2 -8q237 -61 237 -281t-156 -330
t-411 -110h-457l72 365h-143l22 104l144 10l172 860h385z" />
    <glyph glyph-name="uni0251" unicode="&#x251;" horiz-adv-x="1114" 
d="M449 156q150 0 264 170l82 401q-63 123 -170 123q-129 0 -227 -142t-99 -335q0 -217 150 -217zM358 -25q-133 1 -210 97t-76 270q0 284 164 486t376 202q74 0 136 -38t96 -103h4l43 117h176l-201 -1006h-180l10 139h-6q-158 -164 -332 -164z" />
    <glyph glyph-name="uni0259" unicode="&#x259;" horiz-adv-x="993" 
d="M397 147q94 0 175 73t116 206h-442q-12 -45 -13 -94q0 -185 164 -185zM920 604q0 -268 -170 -448t-379 -181q-166 -1 -243 101t-77 270q0 113 45 219h613q10 141 -47 219q-56 78 -154 78t-223 -67l-66 145q174 90 337 90q164 0 264 -110t100 -316z" />
    <glyph glyph-name="uni0261" unicode="&#x261;" horiz-adv-x="1101" 
d="M444 203q150 0 261 151l75 373q-68 123 -168 123q-123 0 -218 -134t-95 -313q1 -98 39 -149t106 -51zM354 -446q-196 0 -368 139l98 147q137 -111 270 -110q221 0 287 254l51 194q-154 -158 -327 -158q-133 0 -213 92t-80 263q0 268 159 462q160 194 369 193
q74 0 134 -38t93 -103h7l43 117h178l-205 -1020q-43 -212 -172 -322q-128 -110 -324 -110z" />
    <glyph glyph-name="h.sups" unicode="&#x2b0;" horiz-adv-x="739" 
d="M594 1470q160 0 160 -172q0 -35 -13 -92l-84 -418h-157l78 398q12 47 12 67q0 82 -72 82t-170 -100l-88 -447h-160l191 953h160l-45 -225l-37 -144h6q117 98 219 98z" />
    <glyph glyph-name="j.sups" unicode="&#x2b2;" horiz-adv-x="352" 
d="M349 1567q-41 0 -67 20q-26 21 -26 61t31 68t71 29q40 -1 66 -21q27 -20 27 -60t-31 -68t-71 -29zM16 502q-66 0 -125 28l52 113q37 -16 67 -16q30 1 49 27q18 26 31 83l143 717h158l-143 -729q-46 -223 -232 -223z" />
    <glyph glyph-name="r.sups" unicode="&#x2b3;" horiz-adv-x="487" 
d="M514 1329q-94 0 -172 -121l-84 -420h-158l131 666h129l-8 -104h6q92 121 197 120q37 0 61 -12l-53 -139q-16 10 -49 10z" />
    <glyph glyph-name="w.sups" unicode="&#x2b7;" horiz-adv-x="1007" 
d="M604 1280h-6l-72 -186l-135 -306h-182l-43 666h153l15 -344l-2 -195h6l74 195l157 344h138l24 -344l4 -195h6l74 195l146 344h145l-295 -666h-188l-19 308v184z" />
    <glyph glyph-name="y.sups" unicode="&#x2b8;" horiz-adv-x="659" 
d="M106 502q-57 0 -108 26l49 113q33 -14 57 -14q86 0 152 114l16 35l-118 678h153l45 -346l15 -199h4l88 199l168 346h153l-372 -713q-62 -117 -132 -178t-170 -61z" />
    <glyph glyph-name="uni02B9" unicode="&#x2b9;" horiz-adv-x="546" 
d="M211 807l168 602h215l-82 -242l-156 -360h-145z" />
    <glyph glyph-name="uni02BB" unicode="&#x2bb;" horiz-adv-x="546" 
d="M344 807q-61 0 -97 45t-36 123q0 157 88 267t225 159l39 -101q-98 -40 -156 -112t-59 -129h10q54 0 90 -29t36 -85t-40 -97q-39 -41 -100 -41z" />
    <glyph glyph-name="uni02BC" unicode="&#x2bc;" horiz-adv-x="546" 
d="M438 1178h-10q-55 0 -90 28t-35 85q0 55 40 97t101 42q60 0 96 -44t35 -124q0 -156 -88 -266t-225 -160l-39 100q98 41 157 113q58 72 58 129z" />
    <glyph glyph-name="uni02BE" unicode="&#x2be;" horiz-adv-x="309" 
d="M473 1330q1 -88 -73 -152t-203 -64l18 90q70 2 107 37t36 86q0 90 -102 90l20 88q197 8 197 -175z" />
    <glyph glyph-name="uni02BF" unicode="&#x2bf;" horiz-adv-x="327" 
d="M172 1296q0 88 74 152t205 63l-19 -90q-70 -2 -108 -37t-37 -86q0 -90 102 -90l-18 -88q-98 -4 -149 42q-50 46 -50 134z" />
    <glyph glyph-name="circumflex" unicode="&#x2c6;" horiz-adv-x="1077" 
d="M428 1155l-80 92l275 273h239l178 -279l-102 -86l-205 217h-8z" />
    <glyph glyph-name="caron" unicode="&#x2c7;" horiz-adv-x="1077" 
d="M545 1182l-180 278l102 84l207 -215h8l295 215l82 -90l-277 -272h-237z" />
    <glyph glyph-name="uni02C8" unicode="&#x2c8;" horiz-adv-x="253" 
d="M174 1122l59 394h183l-92 -394h-150z" />
    <glyph glyph-name="uni02C9" unicode="&#x2c9;" horiz-adv-x="569" 
d="M145 1223l29 145h551l-27 -145h-553z" />
    <glyph glyph-name="uni02CA" unicode="&#x2ca;" horiz-adv-x="446" 
d="M305 1186l-98 125l362 327l133 -170z" />
    <glyph glyph-name="uni02CB" unicode="&#x2cb;" horiz-adv-x="446" 
d="M422 1165l-293 344l188 142l240 -379z" />
    <glyph glyph-name="uni02CC" unicode="&#x2cc;" horiz-adv-x="253" 
d="M78 -139l-62 -393h-180l92 393h150z" />
    <glyph glyph-name="breve" unicode="&#x2d8;" horiz-adv-x="1077" 
d="M682 1169q-160 1 -226 91t-53 227l146 22q-4 -78 36 -133t124 -55t142 54t85 134l135 -22q-31 -137 -130 -227t-259 -91z" />
    <glyph glyph-name="dotaccent" unicode="&#x2d9;" horiz-adv-x="1077" 
d="M840 1323q0 -57 -44 -98t-99 -41q-56 0 -94 30t-38 86q0 54 44 98q43 44 99 44t94 -31t38 -88z" />
    <glyph glyph-name="ring" unicode="&#x2da;" horiz-adv-x="1077" 
d="M815 1367q0 99 -89 97q-44 0 -78 -40t-34 -87q0 -96 89 -96q44 0 78 40t34 86zM958 1373q0 -89 -76 -157t-182 -67q-106 0 -166 47t-60 136t76 157q77 67 182 67q106 0 166 -47t60 -136z" />
    <glyph glyph-name="ogonek" unicode="&#x2db;" horiz-adv-x="1077" 
d="M389 -426q-174 0 -174 150q0 76 60 154q60 77 137 128h133q-164 -117 -164 -227q0 -31 20 -49q47 -42 123 4l41 -99q-94 -61 -176 -61z" />
    <glyph glyph-name="tilde" unicode="&#x2dc;" horiz-adv-x="1077" 
d="M840 1178q-47 0 -86 24t-61 52q-58 78 -113 77q-78 0 -107 -139l-149 8q27 141 95 218q69 77 173 77q59 0 104 -38t81 -76t75 -38q82 0 106 138l150 -8q-27 -141 -95 -219q-69 -76 -173 -76z" />
    <glyph glyph-name="hungarumlaut" unicode="&#x2dd;" horiz-adv-x="1077" 
d="M920 1165l-117 70l244 342l145 -90zM582 1165l-117 70l244 342l145 -90z" />
    <glyph glyph-name="l.sups" unicode="&#x2e1;" horiz-adv-x="352" 
d="M289 928q0 -29 26 -29q12 0 23 6v-119q-35 -14 -90 -14q-121 0 -121 119q0 27 10 78l154 772h160l-158 -787q-4 -10 -4 -26z" />
    <glyph glyph-name="s.sups" unicode="&#x2e2;" horiz-adv-x="569" 
d="M289 772q-133 0 -238 115l92 86q86 -86 170 -86q49 -1 78 23t29 55t-25 51t-94 59q-141 81 -141 179t70 157q71 59 184 59t217 -90l-76 -96q-80 72 -152 72q-43 0 -69 -24t-25 -58q0 -43 113 -100q145 -74 145 -180t-72 -165q-73 -57 -206 -57z" />
    <glyph glyph-name="x.sups" unicode="&#x2e3;" horiz-adv-x="643" 
d="M8 788l297 353l-123 313h162l84 -231h6l160 231h176l-274 -346l131 -320h-160l-94 242h-8l-74 -104l-107 -138h-176z" />
    <glyph glyph-name="uni0300" unicode="&#x300;" 
d="M303 1165l-293 344l189 142l239 -379z" />
    <glyph glyph-name="uni0301" unicode="&#x301;" 
d="M186 1186l-98 125l363 327l133 -170z" />
    <glyph glyph-name="uni0302" unicode="&#x302;" 
d="M-18 1155l-80 92l274 273h240l178 -279l-102 -86l-205 217h-8z" />
    <glyph glyph-name="uni0303" unicode="&#x303;" 
d="M393 1178q-47 0 -86 24q-39 22 -61 52q-56 76 -113 77q-78 0 -106 -139l-150 8q27 141 95.5 218t172.5 77q59 0 104.5 -38t81.5 -76t75 -38q82 0 106 138l150 -8q-27 -141 -96 -218t-173 -77z" />
    <glyph glyph-name="uni0304" unicode="&#x304;" 
d="M-37 1223l29 145h551l-27 -145h-553z" />
    <glyph glyph-name="uni0306" unicode="&#x306;" 
d="M235 1169q-160 0 -226 90.5t-52 227.5l145 22q-4 -78 36 -133t124 -55t142.5 54.5t84.5 133.5l136 -22q-31 -137 -130.5 -227.5t-259.5 -90.5z" />
    <glyph glyph-name="uni0307" unicode="&#x307;" 
d="M251 1184q-56 0 -94 30.5t-38 85.5t44 98.5t99 43.5t93 -31t38 -88t-43 -98t-99 -41z" />
    <glyph glyph-name="uni0308" unicode="&#x308;" 
d="M450 1188q-49 0 -77.5 27.5t-28.5 77.5t38 90t87 40t77.5 -27.5t28.5 -79.5t-38 -90t-87 -38zM45 1188q-49 0 -77.5 27.5t-28.5 77.5t37.5 90t87 40t78 -28.5t28.5 -79.5t-38 -89t-87 -38z" />
    <glyph glyph-name="uni0309" unicode="&#x309;" 
d="M150 1167l-3 101q106 27 117 84q20 82 -147 90l41 149q166 -4 236.5 -61t51.5 -160q-32 -172 -296 -203z" />
    <glyph glyph-name="uni030A" unicode="&#x30a;" 
d="M168 1337q0 -96 89 -96q44 0 78 40t34 86q0 97 -89 97q-44 0 -78 -40t-34 -87zM253.5 1149q-105.5 0 -166 47t-60.5 136t76.5 156.5t182 67.5t166 -47t60.5 -136t-76.5 -156.5t-182 -67.5z" />
    <glyph glyph-name="uni030B" unicode="&#x30b;" 
d="M473 1165l-117 70l244 342l145 -90zM135 1165l-117 70l244 342l146 -90z" />
    <glyph glyph-name="uni030C" unicode="&#x30c;" 
d="M98 1182l-180 278l102 84l207 -215h9l294 215l82 -90l-276 -272h-238z" />
    <glyph glyph-name="uni030F" unicode="&#x30f;" 
d="M311 1159l-151 359l176 61l113 -375zM-27 1159l-151 359l176 61l113 -375z" />
    <glyph glyph-name="uni0312" unicode="&#x312;" 
d="M220 1112q-46 0 -73.5 33t-27.5 86q0 205 239 285l21 -80q-120 -48 -148 -127q4 2 26 2t47.5 -24.5t25.5 -68.5t-32 -75t-78 -31z" />
    <glyph glyph-name="uni0313" unicode="&#x313;" 
d="M270 1317q-33 0 -58.5 24.5t-25.5 68.5t33 75t79 31t72.5 -33t26.5 -86q1 -207 -237 -285l-23 80q121 45 148 125h-15z" />
    <glyph glyph-name="uni031B" unicode="&#x31b;" 
d="M346 1135q0 33 -12 69l166 56q25 -59 24 -111q0 -106 -91 -180t-267 -84l-2 100q80 6 131 48t51 102z" />
    <glyph glyph-name="uni0323" unicode="&#x323;" 
d="M-77 -455q-56 0 -94 31t-38 86t44 98t99.5 43t93.5 -30.5t38 -87.5t-43.5 -98.5t-99.5 -41.5z" />
    <glyph glyph-name="uni0324" unicode="&#x324;" 
d="M129 -426q-49 0 -77.5 27.5t-28.5 77.5t37.5 90.5t87 40.5t78 -28t28.5 -80t-38 -90t-87 -38zM-277 -426q-49 0 -77.5 27.5t-28.5 77.5t38 90.5t87 40.5t77.5 -29t28.5 -80t-38 -89t-87 -38z" />
    <glyph glyph-name="uni0326" unicode="&#x326;" 
d="M125 -254q0 -106 -112 -162.5t-298 -60.5l2 100q229 12 230 98q0 68 -121 74l61 92q137 -8 187.5 -42.5t50.5 -98.5z" />
    <glyph glyph-name="uni0327" unicode="&#x327;" 
d="M-285 -477l-2 100q223 12 236 103q4 70 -142 86l130 194h143l-84 -135q74 -18 103.5 -51t23.5 -88q-25 -199 -408 -209z" />
    <glyph glyph-name="uni0328" unicode="&#x328;" 
d="M-58 -426q-173 0 -173 150q0 76 60 153.5t136 128.5h133q-164 -117 -164 -227q0 -31 20.5 -49.5t52.5 -18.5t71 23l41 -99q-95 -61 -177 -61z" />
    <glyph glyph-name="uni032E" unicode="&#x32e;" 
d="M-88 -449q-160 0 -226.5 90.5t-52.5 227.5l146 22q-4 -78 36 -133t124 -55t142 54.5t85 133.5l135 -22q-31 -137 -130 -227.5t-259 -90.5z" />
    <glyph glyph-name="uni0331" unicode="&#x331;" 
d="M-356 -367l28 146h551l-26 -146h-553z" />
    <glyph glyph-name="pi" unicode="&#x3c0;" horiz-adv-x="1189" 
d="M887 -25q-199 0 -199 201q0 79 62 339q62 261 73 316h-305q-86 -428 -199 -849l-213 18q127 403 211 831h-190l33 164l143 11h926l-35 -175h-164q-43 -169 -88 -377t-45 -233q0 -68 74 -67q2 0 51 8l-4 -162q-65 -25 -131 -25z" />
    <glyph glyph-name="a.sups" unicode="&#x1d43;" horiz-adv-x="737" 
d="M421 901q93 0 173 113l47 250q-37 78 -111 78t-138 -92q-64 -91 -64 -220t93 -129zM166 1016q0 186 109 320q110 134 253 134q98 0 146 -92h8l29 76h127l-131 -666h-129l8 93h-8q-98 -109 -220 -109q-88 0 -140 64t-52 180z" />
    <glyph glyph-name="b.sups" unicode="&#x1d47;" horiz-adv-x="747" 
d="M520 1341q-96 0 -172 -100l-49 -262q37 -78 109 -78t138 91q65 91 64 214q0 66 -24 101q-25 34 -66 34zM570 1470q98 0 150 -63t52 -180q0 -186 -109 -321q-110 -134 -253 -134q-98 0 -144 92h-8l-31 -76h-127l191 953h160l-45 -225l-37 -134h6q97 88 195 88z" />
    <glyph glyph-name="d.sups" unicode="&#x1d48;" horiz-adv-x="761" 
d="M369 901q96 0 176 113l45 250q-37 78 -110 78q-74 0 -138 -92q-64 -91 -63 -214q1 -66 25 -100t65 -35zM309 772q-88 0 -140 64t-52 180q0 186 109 320q110 134 253 134q98 0 142 -86h8l14 134l43 219h158l-189 -949h-127l9 93h-9q-102 -109 -219 -109z" />
    <glyph glyph-name="e.sups" unicode="&#x1d49;" horiz-adv-x="671" 
d="M569 1231q0 117 -104 117q-57 0 -109 -45t-75 -123h282q6 18 6 51zM115 1057q0 176 113 295q114 118 242 118t180 -70t52 -160q0 -91 -32 -163h-406q-6 -88 38 -136t114 -48t147 47l49 -104q-114 -64 -232 -64t-192 76q-73 76 -73 209z" />
    <glyph glyph-name="g.sups" unicode="&#x1d4d;" horiz-adv-x="737" 
d="M373 926q94 0 170 88l47 250q-37 78 -110 78t-136 -88q-63 -87 -63 -203q0 -61 25 -94q26 -31 67 -31zM314 483q-136 0 -253 90l68 109q104 -74 193 -74q133 0 182 168l28 105h-8q-106 -84 -204 -84t-150 61q-51 61 -51 172q0 180 108 310q109 130 252 130q98 0 144 -92
h8l31 76h126l-135 -676q-29 -143 -117 -219q-86 -76 -222 -76z" />
    <glyph glyph-name="k.sups" unicode="&#x1d4f;" horiz-adv-x="696" 
d="M100 788l191 953h160l-119 -584h8l283 297h174l-271 -285l164 -381h-158l-114 289l-125 -121l-33 -168h-160z" />
    <glyph glyph-name="m.sups" unicode="&#x1d50;" horiz-adv-x="1116" 
d="M895 1335q-70 0 -160 -100l-88 -447h-155l77 398q12 53 13 67q0 82 -76 82q-68 0 -158 -100l-88 -447h-158l131 666h127l-4 -92h9q119 109 221 108q123 0 151 -120q139 121 234 120q158 0 157 -174q0 -43 -12 -92l-82 -416h-157l77 398q10 45 11 69q0 80 -70 80z" />
    <glyph glyph-name="o.sups" unicode="&#x1d52;" horiz-adv-x="722" 
d="M383 899q84 0 143 87t60 208q0 150 -111 149q-84 0 -143 -87t-60 -207q0 -150 111 -150zM369 772q-113 0 -184 73t-70 199q0 186 112 307q113 120 260 119q115 0 186 -72t70 -200q1 -186 -113 -306t-261 -120z" />
    <glyph glyph-name="p.sups" unicode="&#x1d56;" horiz-adv-x="745" 
d="M520 1341q-96 0 -172 -100l-49 -262q37 -78 107 -78t138 92q67 92 66 213q0 66 -24 101q-25 34 -66 34zM572 1470q96 0 148 -63t52 -180q0 -186 -109 -321q-110 -134 -253 -134q-98 0 -144 92h-8l-12 -143l-41 -209h-160l188 942h127l2 -76h9q105 92 201 92z" />
    <glyph glyph-name="t.sups" unicode="&#x1d57;" horiz-adv-x="481" 
d="M387 897q20 0 64 14l26 -114q-74 -25 -137 -25q-182 0 -182 170q0 35 10 82l63 305h-94l23 119l102 6l53 178h131l-34 -178h166l-23 -125h-168l-63 -311q-4 -33 -5 -45q0 -76 68 -76z" />
    <glyph glyph-name="u.sups" unicode="&#x1d58;" horiz-adv-x="737" 
d="M295 989q0 -82 70 -82t167 101l89 446h159l-133 -666h-127l4 93h-8q-123 -109 -225 -109q-162 0 -162 172l12 92l84 418h160l-80 -397q-10 -39 -10 -68z" />
    <glyph glyph-name="v.sups" unicode="&#x1d5b;" horiz-adv-x="661" 
d="M244 788l-94 666h157l33 -346l14 -203h6l95 203l168 346h155l-350 -666h-184z" />
    <glyph glyph-name="c.sups" unicode="&#x1d9c;" horiz-adv-x="602" 
d="M381 772q-119 0 -193 72t-73 192q0 172 110 303q111 131 275 131q113 0 184 -79l-92 -97q-43 49 -100 49q-90 0 -154 -89t-64 -181t38 -133t92 -41t126 43l52 -100q-82 -70 -201 -70z" />
    <glyph glyph-name="f.sups" unicode="&#x1da0;" horiz-adv-x="428" 
d="M532 1640q-78 0 -102 -112l-14 -74h129l-25 -125h-131l-108 -541h-158l108 541h-86l21 117l90 8l16 76q47 238 246 237q70 0 135 -34l-51 -113q-33 20 -70 20z" />
    <glyph glyph-name="z.sups" unicode="&#x1dbb;" horiz-adv-x="591" 
d="M51 788l17 89l387 452h-265l25 125h465l-16 -90l-388 -451h306l-25 -125h-506z" />
    <glyph glyph-name="uni1E06" unicode="&#x1e06;" horiz-adv-x="1216" 
d="M186 -350l29 145h551l-27 -145h-553zM522 172q354 0 355 252q0 94 -68 146t-193 53h-206l-91 -451h203zM604 778q160 0 240 60t80 166q0 164 -252 163h-152l-80 -389h164zM717 1339q203 -1 317 -77t115 -210q0 -134 -84 -225q-84 -90 -211 -122l-2 -9q238 -57 238 -269
q0 -211 -157 -319t-411 -108h-456l266 1339h385z" />
    <glyph glyph-name="uni1E07" unicode="&#x1e07;" horiz-adv-x="1116" 
d="M141 -350l29 145h551l-27 -145h-553zM815 635q1 107 -39 161t-106 54t-138 -38t-124 -107l-86 -426q61 -123 165 -123q129 0 229 143q99 143 99 336zM746 1030q142 0 219 -95q76 -95 75 -271q0 -283 -164 -486t-374 -203q-154 0 -228 142h-4l-43 -117h-182l291 1446h219
l-72 -356l-49 -193h4q166 133 308 133z" />
    <glyph glyph-name="uni1E0C" unicode="&#x1e0c;" horiz-adv-x="1236" 
d="M497 -438q-56 0 -95 30q-38 31 -38 86q0 54 45 98q44 44 99 44t93 -31t38 -88t-43 -98t-99 -41zM451 178q229 0 368 166t139 457q0 176 -94 268t-266 92h-82l-194 -983h129zM604 1339q280 0 430 -135t150 -389q0 -379 -199 -597t-530 -218h-389l266 1339h272z" />
    <glyph glyph-name="uni1E0D" unicode="&#x1e0d;" horiz-adv-x="1105" 
d="M415 -438q-56 0 -94 30t-38 86q0 54 44 98t99 44t93 -31t38 -88t-43 -98t-99 -41zM299 373q-1 -217 147 -217t267 170l82 401q-63 123 -170 123q-129 0 -227 -142t-99 -335zM358 -25q-133 1 -210 97t-76 270q0 284 164 486t376 202q150 0 222 -133h6l28 193l70 356h219
l-291 -1446h-180l10 139h-6q-158 -164 -332 -164z" />
    <glyph glyph-name="uni1E0E" unicode="&#x1e0e;" horiz-adv-x="1236" 
d="M217 -350l29 145h551l-27 -145h-553zM451 178q229 0 368 166t139 457q0 176 -94 268t-266 92h-82l-194 -983h129zM604 1339q280 0 430 -135t150 -389q0 -379 -199 -597t-530 -218h-389l266 1339h272z" />
    <glyph glyph-name="uni1E0F" unicode="&#x1e0f;" horiz-adv-x="1105" 
d="M135 -350l29 145h551l-27 -145h-553zM299 373q-1 -217 147 -217t267 170l82 401q-63 123 -170 123q-129 0 -227 -142t-99 -335zM358 -25q-133 1 -210 97t-76 270q0 284 164 486t376 202q150 0 222 -133h6l28 193l70 356h219l-291 -1446h-180l10 139h-6
q-158 -164 -332 -164z" />
    <glyph glyph-name="uni1E16" unicode="&#x1e16;" horiz-adv-x="1054" 
d="M801 1696l-92 73l241 252l131 -106zM465 1483l29 147h557l-29 -147h-557zM66 0l266 1339h768l-37 -186h-549l-72 -360h465l-37 -187h-462l-86 -420h565l-37 -186h-784z" />
    <glyph glyph-name="uni1E17" unicode="&#x1e17;" horiz-adv-x="999" 
d="M713 1458l-80 70l207 237l112 -98zM379 1223l29 145h550l-26 -145h-553zM587 860q-89 0 -170 -74t-118 -200h444q32 142 -28 222q-39 52 -128 52zM68 401q0 269 170 449t378 180q166 0 243 -101t77 -270q0 -115 -43 -213h-612q-15 -152 55 -228t179 -75q109 0 218 80
l82 -141q-152 -106 -339 -106q-188 0 -298 112q-110 114 -110 313z" />
    <glyph glyph-name="uni1E20" unicode="&#x1e20;" horiz-adv-x="1228" 
d="M580 1483l28 147h557l-28 -147h-557zM624 -25q-236 -1 -372 147q-135 148 -135 388t89 430t257 307t377 117q236 0 354 -205l-152 -117q-82 131 -215 132q-209 0 -347 -193t-138 -438q0 -175 78 -277t246 -102q109 0 186 63l66 316h-248l35 180h444l-121 -610
q-168 -138 -404 -138z" />
    <glyph glyph-name="uni1E21" unicode="&#x1e21;" horiz-adv-x="1101" 
d="M391 1223l29 145h551l-27 -145h-553zM444 203q150 0 261 151l75 373q-68 123 -168 123q-123 0 -218 -134t-95 -313q1 -98 39 -149t106 -51zM354 -446q-196 0 -368 139l98 147q137 -111 270 -110q221 0 287 254l51 194q-154 -158 -327 -158q-133 0 -213 92t-80 263
q0 268 159 462q160 194 369 193q74 0 134 -38t93 -103h7l43 117h178l-205 -1020q-43 -212 -172 -322q-128 -110 -324 -110z" />
    <glyph glyph-name="uni1E24" unicode="&#x1e24;" horiz-adv-x="1306" 
d="M509 -438q-56 0 -94 30t-38 86q0 54 44 98t99 44t93 -31t38 -88t-43 -98t-99 -41zM66 0l266 1339h221l-111 -542h531l108 542h222l-269 -1339h-221l123 604h-530l-119 -604h-221z" />
    <glyph glyph-name="uni1E25" unicode="&#x1e25;" horiz-adv-x="1091" 
d="M551 -299q1 -57 -43 -98t-100 -41t-94 30t-38 86q0 54 44 98t100 44q55 0 93 -31t38 -88zM768 1030q238 0 238 -254q0 -70 -17 -141l-127 -635h-219l123 606q16 94 16 107q0 129 -127 129q-100 0 -254 -156l-135 -686h-221l291 1446h219l-88 -426l-39 -146h8
q180 156 332 156z" />
    <glyph glyph-name="uni1E2A" unicode="&#x1e2a;" horiz-adv-x="1306" 
d="M498 -432q-160 0 -227 90t-52 227l146 23q-5 -78 35 -133t124 -55t142 54t86 134l135 -23q-31 -137 -130 -227t-259 -90zM66 0l266 1339h221l-111 -542h531l108 542h222l-269 -1339h-221l123 604h-530l-119 -604h-221z" />
    <glyph glyph-name="uni1E2B" unicode="&#x1e2b;" horiz-adv-x="1091" 
d="M397 -432q-161 0 -227 90t-51 227l145 23q-4 -78 36 -133t124 -55t142 54t85 134l135 -23q-31 -137 -130 -227t-259 -90zM768 1030q238 0 238 -254q0 -70 -17 -141l-127 -635h-219l123 606q16 94 16 107q0 129 -127 129q-100 0 -254 -156l-135 -686h-221l291 1446h219
l-88 -426l-39 -146h8q180 156 332 156z" />
    <glyph glyph-name="uni1E34" unicode="&#x1e34;" horiz-adv-x="1191" 
d="M238 -350l28 145h551l-26 -145h-553zM66 0l266 1339h221l-121 -606h8l586 606h244l-494 -532l301 -807h-229l-236 668l-241 -246l-84 -422h-221z" />
    <glyph glyph-name="uni1E35" unicode="&#x1e35;" horiz-adv-x="1026" 
d="M129 -350l29 145h551l-27 -145h-553zM45 0l291 1446h219l-182 -909h8l444 469h246l-405 -431l239 -575h-221l-172 446l-197 -198l-49 -248h-221z" />
    <glyph glyph-name="uni1E36" unicode="&#x1e36;" horiz-adv-x="985" 
d="M551 -299q1 -57 -43 -98t-100 -41t-94 30t-38 86q0 54 44 98t100 44q55 0 93 -31t38 -88zM66 0l266 1339h221l-229 -1153h534l-37 -186h-755z" />
    <glyph glyph-name="uni1E37" unicode="&#x1e37;" horiz-adv-x="536" 
d="M238 -299q0 -57 -44 -98t-99 -41q-56 0 -94 30t-38 86q0 54 44 98q43 44 99 44t94 -31t38 -88zM252 -25q-170 0 -170 164q0 47 14 107l240 1200h219l-242 -1210q-4 -20 -4 -39q0 -43 35 -43q18 0 37 6l-4 -164q-51 -21 -125 -21z" />
    <glyph glyph-name="uni1E38" unicode="&#x1e38;" horiz-adv-x="985" 
d="M551 -299q1 -57 -43 -98t-100 -41t-94 30t-38 86q0 54 44 98t100 44q55 0 93 -31t38 -88zM193 1483l28 147h557l-28 -147h-557zM66 0l266 1339h221l-229 -1153h534l-37 -186h-755z" />
    <glyph glyph-name="uni1E39" unicode="&#x1e39;" horiz-adv-x="536" 
d="M238 -299q0 -57 -44 -98t-99 -41q-56 0 -94 30t-38 86q0 54 44 98q43 44 99 44t94 -31t38 -88zM201 1665l28 145h551l-26 -145h-553zM252 -25q-170 0 -170 164q0 47 14 107l240 1200h219l-242 -1210q-4 -20 -4 -39q0 -43 35 -43q18 0 37 6l-4 -164q-51 -21 -125 -21z" />
    <glyph glyph-name="uni1E3A" unicode="&#x1e3a;" horiz-adv-x="985" 
d="M129 -350l29 145h551l-27 -145h-553zM66 0l266 1339h221l-229 -1153h534l-37 -186h-755z" />
    <glyph glyph-name="uni1E3B" unicode="&#x1e3b;" horiz-adv-x="536" 
d="M-184 -350l28 145h551l-26 -145h-553zM252 -25q-170 0 -170 164q0 47 14 107l240 1200h219l-242 -1210q-4 -20 -4 -39q0 -43 35 -43q18 0 37 6l-4 -164q-51 -21 -125 -21z" />
    <glyph glyph-name="uni1E42" unicode="&#x1e42;" horiz-adv-x="1480" 
d="M602 -197q55 -1 93 -31t38 -87t-43 -99t-99 -41q-56 0 -94 31t-38 86t44 98t99 43zM66 0l266 1339h246l145 -927h8l133 258l369 669h244l-269 -1339h-209l134 643q41 193 108 420h-6l-164 -303l-354 -629h-103l-110 629l-43 303h-8q-39 -334 -56 -420l-129 -643h-202z
" />
    <glyph glyph-name="uni1E43" unicode="&#x1e43;" horiz-adv-x="1665" 
d="M689 -438q-56 0 -94 30t-38 86q0 54 44 98q43 44 99 44t94 -31t38 -88t-44 -98q-43 -41 -99 -41zM750 1030q199 0 233 -186q197 186 348 186q238 0 238 -254q0 -55 -17 -141l-127 -635h-221l123 606q16 76 16 107q0 129 -122 129q-92 0 -240 -156l-137 -686h-219l120 606
q16 76 17 107q0 129 -121 129q-96 0 -240 -156l-135 -686h-221l201 1006h178l-10 -142h8q188 166 328 166z" />
    <glyph glyph-name="uni1E44" unicode="&#x1e44;" horiz-adv-x="1292" 
d="M848 1452q-57 0 -94 31t-37 86t44 98t99 43t93 -32t38 -89t-43 -97t-100 -40zM66 0l266 1339h217l262 -776l78 -289h8q4 33 19 186t40 271l121 608h213l-268 -1339h-215l-260 774l-78 293h-8q-37 -332 -64 -453l-121 -614h-210z" />
    <glyph glyph-name="uni1E45" unicode="&#x1e45;" horiz-adv-x="1103" 
d="M881 1323q1 -57 -43 -98t-100 -41t-94 30t-38 86q0 54 44 98t100 44t93 -31q38 -31 38 -88zM768 1030q238 0 238 -254q0 -70 -17 -141l-127 -635h-219l123 606q16 94 16 107q0 129 -127 129q-100 0 -254 -156l-135 -686h-221l201 1006h178l-10 -142h8q197 166 346 166z
" />
    <glyph glyph-name="uni1E46" unicode="&#x1e46;" horiz-adv-x="1292" 
d="M523 -455q-56 0 -94 31t-38 86t44 98q43 43 99 43q56 -1 94 -31t38 -87t-43 -99q-44 -41 -100 -41zM66 0l266 1339h217l262 -776l78 -289h8q4 33 19 186t40 271l121 608h213l-268 -1339h-215l-260 774l-78 293h-8q-37 -332 -64 -453l-121 -614h-210z" />
    <glyph glyph-name="uni1E47" unicode="&#x1e47;" horiz-adv-x="1103" 
d="M411 -438q-56 0 -95 30q-38 31 -38 86q0 54 45 98q44 44 99 44t93 -31t38 -88t-43 -98t-99 -41zM768 1030q238 0 238 -254q0 -70 -17 -141l-127 -635h-219l123 606q16 94 16 107q0 129 -127 129q-100 0 -254 -156l-135 -686h-221l201 1006h178l-10 -142h8
q197 166 346 166z" />
    <glyph glyph-name="uni1E48" unicode="&#x1e48;" horiz-adv-x="1292" 
d="M244 -367l28 146h551l-26 -146h-553zM66 0l266 1339h217l262 -776l78 -289h8q4 33 19 186t40 271l121 608h213l-268 -1339h-215l-260 774l-78 293h-8q-37 -332 -64 -453l-121 -614h-210z" />
    <glyph glyph-name="uni1E49" unicode="&#x1e49;" horiz-adv-x="1103" 
d="M131 -350l29 145h551l-27 -145h-553zM768 1030q238 0 238 -254q0 -70 -17 -141l-127 -635h-219l123 606q16 94 16 107q0 129 -127 129q-100 0 -254 -156l-135 -686h-221l201 1006h178l-10 -142h8q197 166 346 166z" />
    <glyph glyph-name="uni1E52" unicode="&#x1e52;" horiz-adv-x="1325" 
d="M903 1696l-92 73l242 252l131 -106zM567 1483l29 147h557l-29 -147h-557zM614 166q174 0 302 189t128 429q0 182 -68 286q-69 103 -202 104q-174 0 -301 -190t-127 -429q0 -181 68 -285t200 -104zM602 -25q-225 0 -354 152t-129 412q-1 337 195 581t472 244
q224 0 354 -152t130 -411q0 -336 -194 -581t-474 -245z" />
    <glyph glyph-name="uni1E53" unicode="&#x1e53;" horiz-adv-x="1073" 
d="M743 1458l-79 70l206 237l113 -98zM410 1223l28 145h551l-26 -145h-553zM469 154q123 0 215 135t92 325q0 114 -45 176t-131 62q-123 0 -216 -135t-93 -324q0 -115 46 -177t132 -62zM444 -25q-170 0 -272 112t-102 298q0 279 169 462t384 183q172 0 274 -110t102 -299
q0 -276 -169 -461t-386 -185z" />
    <glyph glyph-name="uni1E5A" unicode="&#x1e5a;" horiz-adv-x="1179" 
d="M490 -455q-56 0 -94 31t-38 86t44 98t100 43q56 -1 93 -31q38 -30 38 -87t-43 -99q-44 -41 -100 -41zM598 705q168 -1 258 73t90 203q0 182 -262 182h-168l-88 -458h170zM727 1339q438 0 438 -327q0 -180 -99 -296t-267 -161l221 -555h-236l-194 528h-199l-104 -528h-221
l266 1339h395z" />
    <glyph glyph-name="uni1E5B" unicode="&#x1e5b;" horiz-adv-x="743" 
d="M244 -299q0 -57 -44 -98t-99 -41q-56 0 -94 30t-38 86q0 54 44 98q43 44 99 44t94 -31t38 -88zM725 1030q61 0 100 -18l-73 -193q-33 16 -95 17q-152 0 -272 -228l-119 -608h-221l201 1006h178l-18 -195h8q139 219 311 219z" />
    <glyph glyph-name="uni1E5C" unicode="&#x1e5c;" horiz-adv-x="1179" 
d="M490 -455q-56 0 -94 31t-38 86t44 98t100 43q56 -1 93 -31q38 -30 38 -87t-43 -99q-44 -41 -100 -41zM489 1483l29 147h557l-28 -147h-558zM598 705q168 -1 258 73t90 203q0 182 -262 182h-168l-88 -458h170zM727 1339q438 0 438 -327q0 -180 -99 -296t-267 -161
l221 -555h-236l-194 528h-199l-104 -528h-221l266 1339h395z" />
    <glyph glyph-name="uni1E5D" unicode="&#x1e5d;" horiz-adv-x="743" 
d="M244 -299q0 -57 -44 -98t-99 -41q-56 0 -94 30t-38 86q0 54 44 98q43 44 99 44t94 -31t38 -88zM287 1223l28 145h551l-26 -145h-553zM725 1030q61 0 100 -18l-73 -193q-33 16 -95 17q-152 0 -272 -228l-119 -608h-221l201 1006h178l-18 -195h8q139 219 311 219z" />
    <glyph glyph-name="uni1E5E" unicode="&#x1e5e;" horiz-adv-x="1179" 
d="M211 -367l29 146h551l-27 -146h-553zM598 705q168 -1 258 73t90 203q0 182 -262 182h-168l-88 -458h170zM727 1339q438 0 438 -327q0 -180 -99 -296t-267 -161l221 -555h-236l-194 528h-199l-104 -528h-221l266 1339h395z" />
    <glyph glyph-name="uni1E5F" unicode="&#x1e5f;" horiz-adv-x="743" 
d="M-178 -350l28 145h551l-26 -145h-553zM725 1030q61 0 100 -18l-73 -193q-33 16 -95 17q-152 0 -272 -228l-119 -608h-221l201 1006h178l-18 -195h8q139 219 311 219z" />
    <glyph glyph-name="uni1E60" unicode="&#x1e60;" horiz-adv-x="1060" 
d="M741 1460q-57 0 -94 31t-37 86t44 98t100 43t93 -32q38 -32 38 -88q0 -57 -43 -98q-44 -40 -101 -40zM479 -25q-289 0 -463 244l160 123q127 -178 322 -178q106 0 173 55t66 148q0 57 -39 99t-123 93l-141 86q-203 125 -203 326q0 161 128 277t317 116q236 0 393 -197
l-141 -129q-121 135 -264 136q-92 0 -148 -54t-57 -120q0 -66 40 -105t130 -94l143 -86q100 -59 148 -132t47 -186q-1 -182 -137 -302t-351 -120z" />
    <glyph glyph-name="uni1E61" unicode="&#x1e61;" horiz-adv-x="845" 
d="M721 1323q1 -57 -43 -98t-100 -41t-94 30t-38 86q0 54 44 98t100 44t93 -31q38 -31 38 -88zM340 -25q-96 1 -196 55t-156 138l131 106q102 -135 237 -135q72 0 124 38t52 88t-37 83q-38 33 -143 90q-215 119 -215 279q1 135 107 224t273 89t302 -143l-123 -117
q-94 94 -192 94q-68 0 -114 -37t-46 -87t54 -92q50 -34 142 -81q199 -102 199 -270q0 -145 -111 -234q-112 -88 -288 -88z" />
    <glyph glyph-name="uni1E62" unicode="&#x1e62;" horiz-adv-x="1060" 
d="M424 -197q55 -1 93 -31t38 -87t-43 -99t-99 -41q-56 0 -95 31q-38 31 -38 86t45 98q44 43 99 43zM479 -25q-289 0 -463 244l160 123q127 -178 322 -178q106 0 173 55t66 148q0 57 -39 99t-123 93l-141 86q-203 125 -203 326q0 161 128 277t317 116q236 0 393 -197
l-141 -129q-121 135 -264 136q-92 0 -148 -54t-57 -120q0 -66 40 -105t130 -94l143 -86q100 -59 148 -132t47 -186q-1 -182 -137 -302t-351 -120z" />
    <glyph glyph-name="uni1E63" unicode="&#x1e63;" horiz-adv-x="845" 
d="M298 -438q-56 0 -94 30t-38 86q0 54 44 98t99 44t93 -31t38 -88t-43 -98t-99 -41zM340 -25q-96 1 -196 55t-156 138l131 106q102 -135 237 -135q72 0 124 38t52 88t-37 83q-38 33 -143 90q-215 119 -215 279q1 135 107 224t273 89t302 -143l-123 -117q-94 94 -192 94
q-68 0 -114 -37t-46 -87t54 -92q50 -34 142 -81q199 -102 199 -270q0 -145 -111 -234q-112 -88 -288 -88z" />
    <glyph glyph-name="uni1E6C" unicode="&#x1e6c;" horiz-adv-x="1067" 
d="M370 -438q-56 0 -95 30q-37 31 -37 86q0 54 44 98t99 44t93 -31t38 -88t-43 -98t-99 -41zM322 0l229 1151h-371l37 188h963l-37 -188h-371l-229 -1151h-221z" />
    <glyph glyph-name="uni1E6D" unicode="&#x1e6d;" horiz-adv-x="708" 
d="M424 -299q0 -57 -44 -98t-99 -41q-56 0 -94 30q-37 30 -37 86q0 54 44 98t99 44t93 -31t38 -88zM382 -25q-120 0 -183 67t-64 179q0 37 12 119l103 491h-141l32 164l154 11l80 270h184l-53 -270h242l-35 -175h-246l-102 -499q-6 -37 -7 -72q0 -111 117 -110q41 0 94 26
l41 -156q-108 -45 -228 -45z" />
    <glyph glyph-name="uni1E6E" unicode="&#x1e6e;" horiz-adv-x="1067" 
d="M90 -350l29 145h551l-27 -145h-553zM322 0l229 1151h-371l37 188h963l-37 -188h-371l-229 -1151h-221z" />
    <glyph glyph-name="uni1E6F" unicode="&#x1e6f;" horiz-adv-x="708" 
d="M2 -350l29 145h551l-27 -145h-553zM382 -25q-120 0 -183 67t-64 179q0 37 12 119l103 491h-141l32 164l154 11l80 270h184l-53 -270h242l-35 -175h-246l-102 -499q-6 -37 -7 -72q0 -111 117 -110q41 0 94 26l41 -156q-108 -45 -228 -45z" />
    <glyph glyph-name="Wgrave" unicode="&#x1e80;" horiz-adv-x="1587" 
d="M1020 1401l-305 268l153 139l277 -299zM176 0l33 1339h225l-31 -688q-2 -16 -12 -182t-18 -252h8q29 70 91 216t91 218l305 688h191l12 -688q0 -217 -6 -434h8q29 82 85 232t75 202l258 688h213l-537 -1339h-278l-4 729q0 104 12 313h-8q-25 -70 -125 -313l-313 -729
h-275z" />
    <glyph glyph-name="wgrave" unicode="&#x1e81;" horiz-adv-x="1490" 
d="M940 1165l-293 344l189 142l239 -379zM377 178h8q98 248 117 289l233 539h201l27 -539q4 -98 4 -289h8q92 244 110 289l224 539h204l-442 -1006h-262l-18 483q0 144 -3 297h-8q-14 -35 -40 -107t-72 -190l-207 -483h-256l-60 1006h217l17 -539q2 -55 0 -155t-2 -134z" />
    <glyph glyph-name="Wacute" unicode="&#x1e82;" horiz-adv-x="1587" 
d="M915 1421l-86 127l369 246l102 -164zM176 0l33 1339h225l-31 -688q-2 -16 -12 -182t-18 -252h8q29 70 91 216t91 218l305 688h191l12 -688q0 -217 -6 -434h8q29 82 85 232t75 202l258 688h213l-537 -1339h-278l-4 729q0 104 12 313h-8q-25 -70 -125 -313l-313 -729h-275z
" />
    <glyph glyph-name="wacute" unicode="&#x1e83;" horiz-adv-x="1490" 
d="M823 1186l-98 125l362 327l134 -170zM377 178h8q98 248 117 289l233 539h201l27 -539q4 -98 4 -289h8q92 244 110 289l224 539h204l-442 -1006h-262l-18 483q0 144 -3 297h-8q-14 -35 -40 -107t-72 -190l-207 -483h-256l-60 1006h217l17 -539q2 -55 0 -155t-2 -134z" />
    <glyph glyph-name="Wdieresis" unicode="&#x1e84;" horiz-adv-x="1587" 
d="M1193 1683q48 -1 77 -27q28 -26 28 -75t-37 -90t-86 -41t-77 27t-27 75q0 48 37 90q37 41 85 41zM770 1450q-49 0 -77 27q-27 27 -27 75t36 90q38 41 86 41q48 -1 76 -27t29 -75q0 -49 -37 -90t-86 -41zM176 0l33 1339h225l-31 -688q-2 -16 -12 -182t-18 -252h8
q29 70 91 216t91 218l305 688h191l12 -688q0 -217 -6 -434h8q29 82 85 232t75 202l258 688h213l-537 -1339h-278l-4 729q0 104 12 313h-8q-25 -70 -125 -313l-313 -729h-275z" />
    <glyph glyph-name="wdieresis" unicode="&#x1e85;" horiz-adv-x="1490" 
d="M1106 1423q49 1 78 -27q28 -28 28 -80t-38 -90t-87 -38t-77 28t-29 77q0 50 38 90t87 40zM682 1188q-49 0 -78 28t-29 77q0 50 38 90q37 40 87 40q50 -1 78 -29t29 -79q0 -51 -38 -89t-87 -38zM377 178h8q98 248 117 289l233 539h201l27 -539q4 -98 4 -289h8
q92 244 110 289l224 539h204l-442 -1006h-262l-18 483q0 144 -3 297h-8q-14 -35 -40 -107t-72 -190l-207 -483h-256l-60 1006h217l17 -539q2 -55 0 -155t-2 -134z" />
    <glyph glyph-name="uni1E8E" unicode="&#x1e8e;" horiz-adv-x="995" 
d="M676 1452q-57 0 -94 31t-37 86t44 98t99 43t93 -32t38 -89t-43 -97t-100 -40zM283 0l100 504l-215 835h227l76 -352q13 -57 31 -157t26 -138h9q139 240 174 297l219 350h237l-563 -835l-100 -504h-221z" />
    <glyph glyph-name="uni1E8F" unicode="&#x1e8f;" horiz-adv-x="970" 
d="M750 1323q0 -57 -44 -98t-99 -41q-56 0 -94 30t-38 86q0 54 44 98q43 44 99 44t94 -31t38 -88zM31 -414q-66 0 -129 37l69 160q97 -55 197 30q59 50 102 136l31 61l-174 996h219l64 -508q18 -164 24 -301h8q16 33 66 141t76 160l250 508h213l-566 -1059
q-101 -181 -205 -271t-245 -90z" />
    <glyph glyph-name="uni1E92" unicode="&#x1e92;" horiz-adv-x="1062" 
d="M383 -197q55 -1 93 -31t38 -87t-43 -99t-99 -41q-56 0 -94 31t-38 86t44 98t99 43zM-6 0l29 133l798 1020h-569l37 186h833l-26 -133l-793 -1020h627l-39 -186h-897z" />
    <glyph glyph-name="uni1E93" unicode="&#x1e93;" horiz-adv-x="874" 
d="M304 -438q-56 0 -94 30t-38 86q0 54 44 98t99 44t93 -31t38 -88t-43 -98t-99 -41zM-20 0l24 125l598 706h-409l34 175h686l-24 -127l-600 -705h473l-35 -174h-747z" />
    <glyph glyph-name="uni1E97" unicode="&#x1e97;" horiz-adv-x="708" 
d="M700 1470q-50 0 -78 28t-28 78t38 90t87 40t78 -28t29 -80t-39 -90q-38 -38 -87 -38zM420 1598q0 -50 -38 -90q-38 -38 -87 -38t-78 28t-29 78t38 90t87 40t78 -29t29 -79zM382 -25q-120 0 -183 67t-64 179q0 37 12 119l103 491h-141l32 164l154 11l80 270h184l-53 -270
h242l-35 -175h-246l-102 -499q-6 -37 -7 -72q0 -111 117 -110q41 0 94 26l41 -156q-108 -45 -228 -45z" />
    <glyph glyph-name="uni1E9E" unicode="&#x1e9e;" horiz-adv-x="1335" 
d="M831 -25q-229 0 -366 168l129 136q92 -125 223 -125q84 0 144 62q59 62 59 144t-73 150t-228 108l12 134l305 274q-57 172 -250 172q-125 0 -213 -94t-122 -268l-164 -836h-221l176 887q45 221 185 355t374 134q186 0 307 -93t145 -286l-305 -268q141 -53 220 -143
t79 -205q0 -172 -117 -289t-299 -117z" />
    <glyph glyph-name="uni1EA0" unicode="&#x1ea0;" horiz-adv-x="1083" 
d="M549 -299q1 -57 -43 -98t-100 -41t-94 30t-38 86q0 54 44 98t100 44t93 -31q38 -31 38 -88zM-119 0l717 1339h262l144 -1339h-230l-26 377h-437l-186 -377h-244zM696 1163h-8q-120 -270 -194 -415l-101 -203h342l-14 203q-25 401 -25 415z" />
    <glyph glyph-name="uni1EA1" unicode="&#x1ea1;" horiz-adv-x="1114" 
d="M427 -438q-56 0 -94 30t-38 86q0 54 44 98t99 44t93 -31t38 -88t-43 -98t-99 -41zM449 156q150 0 264 170l82 401q-63 123 -170 123q-129 0 -227 -142t-99 -335q0 -217 150 -217zM358 -25q-133 1 -210 97t-76 270q0 284 164 486t376 202q74 0 136 -38t96 -103h4l43 117
h176l-201 -1006h-180l10 139h-6q-158 -164 -332 -164z" />
    <glyph glyph-name="uni1EA2" unicode="&#x1ea2;" horiz-adv-x="1083" 
d="M629 1421l-2 101q109 23 116 75q6 35 -29 55q-36 19 -122 23l51 125q157 -4 227 -49t54 -127q-33 -172 -295 -203zM-119 0l717 1339h262l144 -1339h-230l-26 377h-437l-186 -377h-244zM696 1163h-8q-120 -270 -194 -415l-101 -203h342l-14 203q-25 401 -25 415z" />
    <glyph glyph-name="uni1EA3" unicode="&#x1ea3;" horiz-adv-x="1114" 
d="M592 1167l-2 101q106 27 117 84q20 82 -148 90l41 149q166 -4 237 -61t52 -160q-33 -172 -297 -203zM449 156q150 0 264 170l82 401q-63 123 -170 123q-129 0 -227 -142t-99 -335q0 -217 150 -217zM358 -25q-133 1 -210 97t-76 270q0 284 164 486t376 202q74 0 136 -38
t96 -103h4l43 117h176l-201 -1006h-180l10 139h-6q-158 -164 -332 -164z" />
    <glyph glyph-name="uni1EA4" unicode="&#x1ea4;" horiz-adv-x="1083" 
d="M1016 1567l-62 90l236 162l65 -109zM532 1417l-86 68l224 194h204l152 -196l-104 -66l-162 144h-8zM-119 0l717 1339h262l144 -1339h-230l-26 377h-437l-186 -377h-244zM696 1163h-8q-120 -270 -194 -415l-101 -203h342l-14 203q-25 401 -25 415z" />
    <glyph glyph-name="uni1EA5" unicode="&#x1ea5;" horiz-adv-x="1114" 
d="M1004 1313l-80 82l215 235l114 -100zM471 1163l-68 94l232 183h188l166 -195l-90 -82l-178 148h-8zM449 156q150 0 264 170l82 401q-63 123 -170 123q-129 0 -227 -142t-99 -335q0 -217 150 -217zM358 -25q-133 1 -210 97t-76 270q0 284 164 486t376 202q74 0 136 -38
t96 -103h4l43 117h176l-201 -1006h-180l10 139h-6q-158 -164 -332 -164z" />
    <glyph glyph-name="uni1EA6" unicode="&#x1ea6;" horiz-adv-x="1083" 
d="M473 1571l-184 168l100 90l172 -184zM532 1417l-86 68l224 194h204l152 -196l-104 -66l-162 144h-8zM-119 0l717 1339h262l144 -1339h-230l-26 377h-437l-186 -377h-244zM696 1163h-8q-120 -270 -194 -415l-101 -203h342l-14 203q-25 401 -25 415z" />
    <glyph glyph-name="uni1EA7" unicode="&#x1ea7;" horiz-adv-x="1114" 
d="M369 1307l-181 247l146 78l139 -258zM471 1163l-68 94l232 183h188l166 -195l-90 -82l-178 148h-8zM449 156q150 0 264 170l82 401q-63 123 -170 123q-129 0 -227 -142t-99 -335q0 -217 150 -217zM358 -25q-133 1 -210 97t-76 270q0 284 164 486t376 202q74 0 136 -38
t96 -103h4l43 117h176l-201 -1006h-180l10 139h-6q-158 -164 -332 -164z" />
    <glyph glyph-name="uni1EA8" unicode="&#x1ea8;" horiz-adv-x="1083" 
d="M1004 1542l-9 82q82 18 90 66q8 35 -20 52q-29 17 -104 21l38 105q274 -12 246 -158q-26 -145 -241 -168zM532 1417l-86 68l224 194h204l152 -196l-104 -66l-162 144h-8zM-119 0l717 1339h262l144 -1339h-230l-26 377h-437l-186 -377h-244zM696 1163h-8
q-120 -270 -194 -415l-101 -203h342l-14 203q-25 401 -25 415z" />
    <glyph glyph-name="uni1EA9" unicode="&#x1ea9;" horiz-adv-x="1114" 
d="M969 1311l-6 86q78 20 86 69q6 36 -22 54t-101 22l39 107q276 -8 247 -158q-26 -145 -243 -180zM471 1163l-68 94l232 183h188l166 -195l-90 -82l-178 148h-8zM449 156q150 0 264 170l82 401q-63 123 -170 123q-129 0 -227 -142t-99 -335q0 -217 150 -217zM358 -25
q-133 1 -210 97t-76 270q0 284 164 486t376 202q74 0 136 -38t96 -103h4l43 117h176l-201 -1006h-180l10 139h-6q-158 -164 -332 -164z" />
    <glyph glyph-name="uni1EAA" unicode="&#x1eaa;" horiz-adv-x="1083" 
d="M905 1718q-69 0 -133 48t-92 49q-61 0 -86 -89l-117 15q45 207 213 207q68 0 132 -48t93 -49q59 0 89 88l114 -14q-45 -207 -213 -207zM530 1417l-84 68l222 182h204l154 -184l-106 -66l-162 131h-8zM-119 0l717 1339h262l144 -1339h-230l-26 377h-437l-186 -377h-244z
M696 1163h-8q-120 -270 -194 -415l-101 -203h342l-14 203q-25 401 -25 415z" />
    <glyph glyph-name="uni1EAB" unicode="&#x1eab;" horiz-adv-x="1114" 
d="M858 1460q-63 0 -130 43t-95 43q-47 0 -80 -82l-111 13q57 205 203 204q63 0 129 -43t94 -43q51 0 80 82l111 -12q-56 -205 -201 -205zM471 1163l-68 94l226 170h190l170 -182l-90 -82l-182 135h-8zM449 156q150 0 264 170l82 401q-63 123 -170 123q-129 0 -227 -142
t-99 -335q0 -217 150 -217zM358 -25q-133 1 -210 97t-76 270q0 284 164 486t376 202q74 0 136 -38t96 -103h4l43 117h176l-201 -1006h-180l10 139h-6q-158 -164 -332 -164z" />
    <glyph glyph-name="uni1EAC" unicode="&#x1eac;" horiz-adv-x="1083" 
d="M549 -299q1 -57 -43 -98t-100 -41t-94 30t-38 86q0 54 44 98t100 44t93 -31q38 -31 38 -88zM502 1417l-92 74l239 221h254l158 -227l-111 -66l-180 180h-8zM-119 0l717 1339h262l144 -1339h-230l-26 377h-437l-186 -377h-244zM696 1163h-8q-120 -270 -194 -415l-101 -203
h342l-14 203q-25 401 -25 415z" />
    <glyph glyph-name="uni1EAD" unicode="&#x1ead;" horiz-adv-x="1114" 
d="M427 -438q-56 0 -94 30t-38 86q0 54 44 98t99 44t93 -31t38 -88t-43 -98t-99 -41zM424 1155l-80 92l274 273h240l178 -279l-102 -86l-205 217h-8zM449 156q150 0 264 170l82 401q-63 123 -170 123q-129 0 -227 -142t-99 -335q0 -217 150 -217zM358 -25q-133 1 -210 97
t-76 270q0 284 164 486t376 202q74 0 136 -38t96 -103h4l43 117h176l-201 -1006h-180l10 139h-6q-158 -164 -332 -164z" />
    <glyph glyph-name="uni1EAE" unicode="&#x1eae;" horiz-adv-x="1083" 
d="M770 1671l-102 86l241 240l129 -107zM725 1436q-143 0 -210 72t-60 200l127 23q2 -76 44 -121t122 -45q160 0 225 166l117 -23q-35 -127 -128 -200q-94 -72 -237 -72zM-119 0l717 1339h262l144 -1339h-230l-26 377h-437l-186 -377h-244zM696 1163h-8q-120 -270 -194 -415
l-101 -203h342l-14 203q-25 401 -25 415z" />
    <glyph glyph-name="uni1EAF" unicode="&#x1eaf;" horiz-adv-x="1114" 
d="M764 1446l-90 84l233 244l123 -119zM713 1169q-160 1 -227 91t-52 227l133 22q-4 -86 38 -143t132 -57t152 57q61 57 90 143l123 -22q-31 -137 -130 -227t-259 -91zM449 156q150 0 264 170l82 401q-63 123 -170 123q-129 0 -227 -142t-99 -335q0 -217 150 -217zM358 -25
q-133 1 -210 97t-76 270q0 284 164 486t376 202q74 0 136 -38t96 -103h4l43 117h176l-201 -1006h-180l10 139h-6q-158 -164 -332 -164z" />
    <glyph glyph-name="uni1EB0" unicode="&#x1eb0;" horiz-adv-x="1083" 
d="M760 1661l-185 258l162 80l150 -270zM725 1436q-143 0 -210 72t-60 200l127 23q2 -76 44 -121t122 -45q160 0 225 166l117 -23q-35 -127 -128 -200q-94 -72 -237 -72zM-119 0l717 1339h262l144 -1339h-230l-26 377h-437l-186 -377h-244zM696 1163h-8q-120 -270 -194 -415
l-101 -203h342l-14 203q-25 401 -25 415z" />
    <glyph glyph-name="uni1EB1" unicode="&#x1eb1;" horiz-adv-x="1114" 
d="M756 1436l-185 247l158 95l143 -279zM713 1169q-160 1 -227 91t-52 227l133 22q-4 -86 38 -143t132 -57t152 57q61 57 90 143l123 -22q-31 -137 -130 -227t-259 -91zM449 156q150 0 264 170l82 401q-63 123 -170 123q-129 0 -227 -142t-99 -335q0 -217 150 -217zM358 -25
q-133 1 -210 97t-76 270q0 284 164 486t376 202q74 0 136 -38t96 -103h4l43 117h176l-201 -1006h-180l10 139h-6q-158 -164 -332 -164z" />
    <glyph glyph-name="uni1EB2" unicode="&#x1eb2;" horiz-adv-x="1083" 
d="M705 1645l-7 84q82 18 93 65q6 35 -22 51t-103 23l43 104q268 -8 243 -157q-28 -143 -247 -170zM723 1436q-143 0 -210 72t-56 200l125 23q0 -76 43 -121t123 -45q160 0 225 166l119 -23q-38 -128 -132 -200t-237 -72zM-119 0l717 1339h262l144 -1339h-230l-26 377h-437
l-186 -377h-244zM696 1163h-8q-120 -270 -194 -415l-101 -203h342l-14 203q-25 401 -25 415z" />
    <glyph glyph-name="uni1EB3" unicode="&#x1eb3;" horiz-adv-x="1114" 
d="M692 1413l-2 88q88 18 96 70q8 35 -22 53q-31 18 -109 23l45 133q146 -4 206 -52t44 -133q-29 -151 -258 -182zM709 1169q-160 1 -226 91t-47 227l131 22q-4 -86 37 -143t131 -57t153 57q62 57 91 143l123 -22q-33 -137 -133 -227t-260 -91zM449 156q150 0 264 170
l82 401q-63 123 -170 123q-129 0 -227 -142t-99 -335q0 -217 150 -217zM358 -25q-133 1 -210 97t-76 270q0 284 164 486t376 202q74 0 136 -38t96 -103h4l43 117h176l-201 -1006h-180l10 139h-6q-158 -164 -332 -164z" />
    <glyph glyph-name="uni1EB4" unicode="&#x1eb4;" horiz-adv-x="1083" 
d="M911 1731q-69 0 -135 48t-94 48q-57 0 -86 -88l-117 14q49 207 213 207q68 0 134 -48t96 -48q61 0 86 88l114 -15q-45 -206 -211 -206zM729 1444q-141 0 -207 61t-59 162l123 21q8 -125 164 -125t211 125l116 -21q-31 -99 -119 -161t-229 -62zM-119 0l717 1339h262
l144 -1339h-230l-26 377h-437l-186 -377h-244zM696 1163h-8q-120 -270 -194 -415l-101 -203h342l-14 203q-25 401 -25 415z" />
    <glyph glyph-name="uni1EB5" unicode="&#x1eb5;" horiz-adv-x="1114" 
d="M891 1458q-63 0 -130 43t-95 43q-49 0 -78 -82l-123 13q55 205 213 204q63 0 129 -43t94 -43q49 0 82 82l123 -12q-57 -205 -215 -205zM712 1169q-144 0 -208 66q-63 66 -55 162l124 20q2 -51 41 -87t121 -36t134 36t71 87l119 -20q-27 -96 -115 -162t-232 -66zM449 156
q150 0 264 170l82 401q-63 123 -170 123q-129 0 -227 -142t-99 -335q0 -217 150 -217zM358 -25q-133 1 -210 97t-76 270q0 284 164 486t376 202q74 0 136 -38t96 -103h4l43 117h176l-201 -1006h-180l10 139h-6q-158 -164 -332 -164z" />
    <glyph glyph-name="uni1EB6" unicode="&#x1eb6;" horiz-adv-x="1083" 
d="M549 -299q1 -57 -43 -98t-100 -41t-94 30t-38 86q0 54 44 98t100 44t93 -31q38 -31 38 -88zM725 1436q-143 0 -210 72t-60 200l139 23q0 -70 40 -112t116 -42q147 0 211 154l129 -23q-35 -127 -128 -200q-94 -72 -237 -72zM-119 0l717 1339h262l144 -1339h-230l-26 377
h-437l-186 -377h-244zM696 1163h-8q-120 -270 -194 -415l-101 -203h342l-14 203q-25 401 -25 415z" />
    <glyph glyph-name="uni1EB7" unicode="&#x1eb7;" horiz-adv-x="1114" 
d="M427 -438q-56 0 -94 30t-38 86q0 54 44 98t99 44t93 -31t38 -88t-43 -98t-99 -41zM678 1169q-160 1 -226 91t-53 227l146 22q-4 -78 36 -133t124 -55t142 54t85 134l135 -22q-31 -137 -130 -227t-259 -91zM449 156q150 0 264 170l82 401q-63 123 -170 123
q-129 0 -227 -142t-99 -335q0 -217 150 -217zM358 -25q-133 1 -210 97t-76 270q0 284 164 486t376 202q74 0 136 -38t96 -103h4l43 117h176l-201 -1006h-180l10 139h-6q-158 -164 -332 -164z" />
    <glyph glyph-name="uni1EB8" unicode="&#x1eb8;" horiz-adv-x="1054" 
d="M578 -299q0 -57 -44 -98t-99 -41q-56 0 -94 30t-38 86q0 54 44 98q43 44 99 44t94 -31t38 -88zM66 0l266 1339h768l-37 -186h-549l-72 -360h465l-37 -187h-462l-86 -420h565l-37 -186h-784z" />
    <glyph glyph-name="uni1EB9" unicode="&#x1eb9;" horiz-adv-x="999" 
d="M384 -438q-56 0 -94 30t-38 86q0 54 44 98t99 44t93 -31t38 -88t-43 -98t-99 -41zM587 860q-89 0 -170 -74t-118 -200h444q32 142 -28 222q-39 52 -128 52zM68 401q0 269 170 449t378 180q166 0 243 -101t77 -270q0 -115 -43 -213h-612q-15 -152 55 -228t179 -75
q109 0 218 80l82 -141q-152 -106 -339 -106q-188 0 -298 112q-110 114 -110 313z" />
    <glyph glyph-name="uni1EBA" unicode="&#x1eba;" horiz-adv-x="1054" 
d="M643 1421l-2 101q109 23 117 75q6 35 -30 55t-122 23l51 125q158 -4 228 -49t53 -127q-33 -172 -295 -203zM66 0l266 1339h768l-37 -186h-549l-72 -360h465l-37 -187h-462l-86 -420h565l-37 -186h-784z" />
    <glyph glyph-name="uni1EBB" unicode="&#x1ebb;" horiz-adv-x="999" 
d="M578 1167l-3 101q106 27 117 84q20 82 -147 90l41 149q166 -4 236 -61t52 -160q-32 -172 -296 -203zM587 860q-89 0 -170 -74t-118 -200h444q32 142 -28 222q-39 52 -128 52zM68 401q0 269 170 449t378 180q166 0 243 -101t77 -270q0 -115 -43 -213h-612
q-15 -152 55 -228t179 -75q109 0 218 80l82 -141q-152 -106 -339 -106q-188 0 -298 112q-110 114 -110 313z" />
    <glyph glyph-name="uni1EBC" unicode="&#x1ebc;" horiz-adv-x="1054" 
d="M643 1733q61 0 109 -33t87 -66q38 -33 68 -32q70 0 109 118l149 -12q-29 -135 -103 -205q-75 -69 -172 -69t-161 66q-63 66 -108 67q-74 0 -109 -119l-150 12q29 135 104 204t177 69zM66 0l266 1339h768l-37 -186h-549l-72 -360h465l-37 -187h-462l-86 -420h565l-37 -186
h-784z" />
    <glyph glyph-name="uni1EBD" unicode="&#x1ebd;" horiz-adv-x="999" 
d="M809 1178q-47 0 -86 24t-61 52q-57 78 -113 77q-78 0 -107 -139l-149 8q27 141 95 218q69 77 173 77q59 0 105 -38t80 -76q36 -38 75 -38q82 0 107 138l149 -8q-27 -141 -95 -219q-69 -76 -173 -76zM587 860q-89 0 -170 -74t-118 -200h444q32 142 -28 222q-39 52 -128 52
zM68 401q0 269 170 449t378 180q166 0 243 -101t77 -270q0 -115 -43 -213h-612q-15 -152 55 -228t179 -75q109 0 218 80l82 -141q-152 -106 -339 -106q-188 0 -298 112q-110 114 -110 313z" />
    <glyph glyph-name="uni1EBE" unicode="&#x1ebe;" horiz-adv-x="1054" 
d="M1030 1567l-61 90l235 162l66 -109zM547 1417l-86 68l223 194h205l151 -196l-104 -66l-162 144h-8zM66 0l266 1339h768l-37 -186h-549l-72 -360h465l-37 -187h-462l-86 -420h565l-37 -186h-784z" />
    <glyph glyph-name="uni1EBF" unicode="&#x1ebf;" horiz-adv-x="999" 
d="M977 1313l-80 82l215 235l115 -100zM444 1163l-67 94l231 183h189l166 -195l-91 -82l-178 148h-8zM587 860q-89 0 -170 -74t-118 -200h444q32 142 -28 222q-39 52 -128 52zM68 401q0 269 170 449t378 180q166 0 243 -101t77 -270q0 -115 -43 -213h-612q-15 -152 55 -228
t179 -75q109 0 218 80l82 -141q-152 -106 -339 -106q-188 0 -298 112q-110 114 -110 313z" />
    <glyph glyph-name="uni1EC0" unicode="&#x1ec0;" horiz-adv-x="1054" 
d="M487 1571l-184 168l100 90l172 -184zM547 1417l-86 68l223 194h205l151 -196l-104 -66l-162 144h-8zM66 0l266 1339h768l-37 -186h-549l-72 -360h465l-37 -187h-462l-86 -420h565l-37 -186h-784z" />
    <glyph glyph-name="uni1EC1" unicode="&#x1ec1;" horiz-adv-x="999" 
d="M342 1307l-180 247l145 78l139 -258zM444 1163l-67 94l231 183h189l166 -195l-91 -82l-178 148h-8zM587 860q-89 0 -170 -74t-118 -200h444q32 142 -28 222q-39 52 -128 52zM68 401q0 269 170 449t378 180q166 0 243 -101t77 -270q0 -115 -43 -213h-612q-15 -152 55 -228
t179 -75q109 0 218 80l82 -141q-152 -106 -339 -106q-188 0 -298 112q-110 114 -110 313z" />
    <glyph glyph-name="uni1EC2" unicode="&#x1ec2;" horiz-adv-x="1054" 
d="M1018 1542l-8 82q82 18 90 66q8 35 -21 52t-104 21l39 105q272 -12 246 -158q-27 -145 -242 -168zM547 1417l-86 68l223 194h205l151 -196l-104 -66l-162 144h-8zM66 0l266 1339h768l-37 -186h-549l-72 -360h465l-37 -187h-462l-86 -420h565l-37 -186h-784z" />
    <glyph glyph-name="uni1EC3" unicode="&#x1ec3;" horiz-adv-x="999" 
d="M942 1309l-6 86q78 20 86 69q6 36 -22 54t-101 22l39 107q276 -8 248 -158q-27 -145 -244 -180zM444 1161l-67 94l231 183h189l166 -195l-91 -82l-178 148h-8zM587 860q-89 0 -170 -74t-118 -200h444q32 142 -28 222q-39 52 -128 52zM68 401q0 269 170 449t378 180
q166 0 243 -101t77 -270q0 -115 -43 -213h-612q-15 -152 55 -228t179 -75q109 0 218 80l82 -141q-152 -106 -339 -106q-188 0 -298 112q-110 114 -110 313z" />
    <glyph glyph-name="uni1EC4" unicode="&#x1ec4;" horiz-adv-x="1054" 
d="M920 1718q-68 0 -133 48t-93 49q-61 0 -86 -89l-116 15q45 207 213 207q69 0 133 -48t92 -49q59 0 88 88l115 -14q-45 -207 -213 -207zM545 1417l-84 68l221 182h205l153 -184l-106 -66l-162 131h-8zM66 0l266 1339h768l-37 -186h-549l-72 -360h465l-37 -187h-462
l-86 -420h565l-37 -186h-784z" />
    <glyph glyph-name="uni1EC5" unicode="&#x1ec5;" horiz-adv-x="999" 
d="M831 1460q-63 0 -130 43t-95 43q-47 0 -80 -82l-110 13q57 205 202 204q64 0 130 -43t94 -43q51 0 80 82l110 -12q-56 -205 -201 -205zM444 1163l-67 94l225 170h191l170 -182l-91 -82l-182 135h-8zM587 860q-89 0 -170 -74t-118 -200h444q32 142 -28 222q-39 52 -128 52
zM68 401q0 269 170 449t378 180q166 0 243 -101t77 -270q0 -115 -43 -213h-612q-15 -152 55 -228t179 -75q109 0 218 80l82 -141q-152 -106 -339 -106q-188 0 -298 112q-110 114 -110 313z" />
    <glyph glyph-name="uni1EC6" unicode="&#x1ec6;" horiz-adv-x="1054" 
d="M578 -299q0 -57 -44 -98t-99 -41q-56 0 -94 30t-38 86q0 54 44 98q43 44 99 44t94 -31t38 -88zM516 1417l-92 74l240 221h254l157 -227l-110 -66l-181 180h-8zM66 0l266 1339h768l-37 -186h-549l-72 -360h465l-37 -187h-462l-86 -420h565l-37 -186h-784z" />
    <glyph glyph-name="uni1EC7" unicode="&#x1ec7;" horiz-adv-x="999" 
d="M384 -438q-56 0 -94 30t-38 86q0 54 44 98t99 44t93 -31t38 -88t-43 -98t-99 -41zM397 1155l-80 92l275 273h239l179 -279l-103 -86l-205 217h-8zM587 860q-89 0 -170 -74t-118 -200h444q32 142 -28 222q-39 52 -128 52zM68 401q0 269 170 449t378 180q166 0 243 -101
t77 -270q0 -115 -43 -213h-612q-15 -152 55 -228t179 -75q109 0 218 80l82 -141q-152 -106 -339 -106q-188 0 -298 112q-110 114 -110 313z" />
    <glyph glyph-name="uni1EC8" unicode="&#x1ec8;" horiz-adv-x="559" 
d="M350 1421l-2 101q109 23 117 75q6 35 -30 55t-122 23l52 125q157 -4 227 -49t53 -127q-33 -172 -295 -203zM66 0l266 1339h221l-266 -1339h-221z" />
    <glyph glyph-name="uni1EC9" unicode="&#x1ec9;" horiz-adv-x="514" 
d="M317 1167l-2 101q106 27 117 84q20 82 -147 90l41 149q166 -4 236 -61t52 -160q-33 -172 -297 -203zM45 0l203 1006h219l-201 -1006h-221z" />
    <glyph glyph-name="uni1ECA" unicode="&#x1eca;" horiz-adv-x="559" 
d="M122 -444q-56 0 -94 30t-38 86q0 54 44 98t99 44t93 -31t38 -88t-43 -98t-99 -41zM66 0l266 1339h221l-266 -1339h-221z" />
    <glyph glyph-name="uni1ECB" unicode="&#x1ecb;" horiz-adv-x="514" 
d="M244 -299q0 -57 -44 -98t-99 -41q-56 0 -94 30t-38 86q0 54 44 98q43 44 99 44t94 -31t38 -88zM415 1184q-56 0 -93 30t-37 87t43 99t99 42t93 -31t37 -88t-43 -98t-99 -41zM45 0l203 1006h219l-201 -1006h-221z" />
    <glyph glyph-name="uni1ECC" unicode="&#x1ecc;" horiz-adv-x="1325" 
d="M666 -299q0 -57 -44 -98t-99 -41q-56 0 -94 30t-38 86q0 54 44 98q43 44 99 44t94 -31t38 -88zM614 166q174 0 302 189t128 429q0 182 -68 286q-69 103 -202 104q-174 0 -301 -190t-127 -429q0 -181 68 -285t200 -104zM602 -25q-225 0 -354 152t-129 412q-1 337 195 581
t472 244q224 0 354 -152t130 -411q0 -336 -194 -581t-474 -245z" />
    <glyph glyph-name="uni1ECD" unicode="&#x1ecd;" horiz-adv-x="1073" 
d="M337 -438q-56 0 -94 30t-38 86q0 54 44 98t99 44t93 -31t38 -88t-43 -98t-99 -41zM469 154q123 0 215 135t92 325q0 114 -45 176t-131 62q-123 0 -216 -135t-93 -324q0 -115 46 -177t132 -62zM444 -25q-170 0 -272 112t-102 298q0 279 169 462t384 183q172 0 274 -110
t102 -299q0 -276 -169 -461t-386 -185z" />
    <glyph glyph-name="uni1ECE" unicode="&#x1ece;" horiz-adv-x="1325" 
d="M745 1421l-2 101q109 23 117 75q6 35 -30 55t-121 23l51 125q158 -4 228 -49t52 -127q-33 -172 -295 -203zM614 166q174 0 302 189t128 429q0 182 -68 286q-69 103 -202 104q-174 0 -301 -190t-127 -429q0 -181 68 -285t200 -104zM602 -25q-225 0 -354 152t-129 412
q-1 337 195 581t472 244q224 0 354 -152t130 -411q0 -336 -194 -581t-474 -245z" />
    <glyph glyph-name="uni1ECF" unicode="&#x1ecf;" horiz-adv-x="1073" 
d="M596 1167l-2 101q106 27 117 84q20 82 -148 90l41 149q166 -4 237 -61t52 -160q-33 -172 -297 -203zM469 154q123 0 215 135t92 325q0 114 -45 176t-131 62q-123 0 -216 -135t-93 -324q0 -115 46 -177t132 -62zM444 -25q-170 0 -272 112t-102 298q0 279 169 462t384 183
q172 0 274 -110t102 -299q0 -276 -169 -461t-386 -185z" />
    <glyph glyph-name="uni1ED0" unicode="&#x1ed0;" horiz-adv-x="1325" 
d="M1133 1567l-62 90l236 162l65 -109zM649 1417l-86 68l223 194h205l152 -196l-105 -66l-161 144h-9zM614 166q174 0 302 189t128 429q0 182 -68 286q-69 103 -202 104q-174 0 -301 -190t-127 -429q0 -181 68 -285t200 -104zM602 -25q-225 0 -354 152t-129 412
q-1 337 195 581t472 244q224 0 354 -152t130 -411q0 -336 -194 -581t-474 -245z" />
    <glyph glyph-name="uni1ED1" unicode="&#x1ed1;" horiz-adv-x="1073" 
d="M1008 1313l-80 82l215 235l114 -100zM475 1163l-67 94l231 183h188l166 -195l-90 -82l-178 148h-8zM469 154q123 0 215 135t92 325q0 114 -45 176t-131 62q-123 0 -216 -135t-93 -324q0 -115 46 -177t132 -62zM444 -25q-170 0 -272 112t-102 298q0 279 169 462t384 183
q172 0 274 -110t102 -299q0 -276 -169 -461t-386 -185z" />
    <glyph glyph-name="uni1ED2" unicode="&#x1ed2;" horiz-adv-x="1325" 
d="M590 1571l-184 168l100 90l172 -184zM649 1417l-86 68l223 194h205l152 -196l-105 -66l-161 144h-9zM614 166q174 0 302 189t128 429q0 182 -68 286q-69 103 -202 104q-174 0 -301 -190t-127 -429q0 -181 68 -285t200 -104zM602 -25q-225 0 -354 152t-129 412
q-1 337 195 581t472 244q224 0 354 -152t130 -411q0 -336 -194 -581t-474 -245z" />
    <glyph glyph-name="uni1ED3" unicode="&#x1ed3;" horiz-adv-x="1073" 
d="M373 1307l-180 247l145 78l139 -258zM475 1163l-67 94l231 183h188l166 -195l-90 -82l-178 148h-8zM469 154q123 0 215 135t92 325q0 114 -45 176t-131 62q-123 0 -216 -135t-93 -324q0 -115 46 -177t132 -62zM444 -25q-170 0 -272 112t-102 298q0 279 169 462t384 183
q172 0 274 -110t102 -299q0 -276 -169 -461t-386 -185z" />
    <glyph glyph-name="uni1ED4" unicode="&#x1ed4;" horiz-adv-x="1325" 
d="M1120 1542l-8 82q82 18 90 66q8 35 -20 52q-29 17 -105 21l39 105q274 -12 246 -158q-27 -145 -242 -168zM649 1417l-86 68l223 194h205l152 -196l-105 -66l-161 144h-9zM614 166q174 0 302 189t128 429q0 182 -68 286q-69 103 -202 104q-174 0 -301 -190t-127 -429
q0 -181 68 -285t200 -104zM602 -25q-225 0 -354 152t-129 412q-1 337 195 581t472 244q224 0 354 -152t130 -411q0 -336 -194 -581t-474 -245z" />
    <glyph glyph-name="uni1ED5" unicode="&#x1ed5;" horiz-adv-x="1073" 
d="M973 1311l-6 86q78 20 86 69q6 36 -22 54t-101 22l39 107q276 -8 248 -158q-27 -145 -244 -180zM475 1163l-67 94l231 183h188l166 -195l-90 -82l-178 148h-8zM469 154q123 0 215 135t92 325q0 114 -45 176t-131 62q-123 0 -216 -135t-93 -324q0 -115 46 -177t132 -62z
M444 -25q-170 0 -272 112t-102 298q0 279 169 462t384 183q172 0 274 -110t102 -299q0 -276 -169 -461t-386 -185z" />
    <glyph glyph-name="uni1ED6" unicode="&#x1ed6;" horiz-adv-x="1325" 
d="M1022 1718q-68 0 -132 48t-93 49q-61 0 -86 -89l-117 15q45 207 213 207q69 0 133 -48t92 -49q59 0 88 88l115 -14q-45 -207 -213 -207zM647 1417l-84 68l221 182h205l154 -184l-107 -66l-162 131h-8zM614 166q174 0 302 189t128 429q0 182 -68 286q-69 103 -202 104
q-174 0 -301 -190t-127 -429q0 -181 68 -285t200 -104zM602 -25q-225 0 -354 152t-129 412q-1 337 195 581t472 244q224 0 354 -152t130 -411q0 -336 -194 -581t-474 -245z" />
    <glyph glyph-name="uni1ED7" unicode="&#x1ed7;" horiz-adv-x="1073" 
d="M862 1460q-63 0 -130 43t-95 43q-47 0 -80 -82l-111 13q57 205 203 204q63 0 129 -43t94 -43q51 0 80 82l111 -12q-56 -205 -201 -205zM475 1163l-67 94l225 170h190l170 -182l-90 -82l-182 135h-8zM469 154q123 0 215 135t92 325q0 114 -45 176t-131 62
q-123 0 -216 -135t-93 -324q0 -115 46 -177t132 -62zM444 -25q-170 0 -272 112t-102 298q0 279 169 462t384 183q172 0 274 -110t102 -299q0 -276 -169 -461t-386 -185z" />
    <glyph glyph-name="uni1ED8" unicode="&#x1ed8;" horiz-adv-x="1325" 
d="M666 -299q0 -57 -44 -98t-99 -41q-56 0 -94 30t-38 86q0 54 44 98q43 44 99 44t94 -31t38 -88zM618 1417l-92 74l240 221h254l158 -227l-111 -66l-180 180h-8zM614 166q174 0 302 189t128 429q0 182 -68 286q-69 103 -202 104q-174 0 -301 -190t-127 -429q0 -181 68 -285
t200 -104zM602 -25q-225 0 -354 152t-129 412q-1 337 195 581t472 244q224 0 354 -152t130 -411q0 -336 -194 -581t-474 -245z" />
    <glyph glyph-name="uni1ED9" unicode="&#x1ed9;" horiz-adv-x="1073" 
d="M337 -438q-56 0 -94 30t-38 86q0 54 44 98t99 44t93 -31t38 -88t-43 -98t-99 -41zM428 1155l-80 92l275 273h239l178 -279l-102 -86l-205 217h-8zM469 154q123 0 215 135t92 325q0 114 -45 176t-131 62q-123 0 -216 -135t-93 -324q0 -115 46 -177t132 -62zM444 -25
q-170 0 -272 112t-102 298q0 279 169 462t384 183q172 0 274 -110t102 -299q0 -276 -169 -461t-386 -185z" />
    <glyph glyph-name="uni1EDA" unicode="&#x1eda;" horiz-adv-x="1325" 
d="M768 1421l-86 127l369 246l102 -164zM614 166q174 0 302 189t128 429q0 182 -68 286q-69 103 -202 104q-174 0 -301 -190t-127 -429q0 -181 68 -285t200 -104zM602 -25q-225 0 -354 152t-129 412q-1 337 195 581t472 244q137 0 242 -57q88 10 136 62q48 51 48 111
t-20 107l170 55q29 -74 29 -133q0 -115 -71 -191t-185 -97q135 -152 135 -420q0 -336 -194 -581t-474 -245z" />
    <glyph glyph-name="uni1EDB" unicode="&#x1edb;" horiz-adv-x="1081" 
d="M604 1186l-98 125l362 327l133 -170zM469 154q123 0 215 135t92 325q0 114 -45 176t-131 62q-123 0 -216 -135t-93 -324q0 -115 46 -177t132 -62zM444 -25q-170 0 -272 112t-102 298q0 279 169 462t384 183q104 0 190 -45q80 13 127 71t49 126t-14 110l168 56
q25 -61 24 -136q1 -118 -69 -200t-185 -111q86 -109 86 -280q0 -276 -169 -461t-386 -185z" />
    <glyph glyph-name="uni1EDC" unicode="&#x1edc;" horiz-adv-x="1325" 
d="M872 1401l-305 268l154 139l276 -299zM614 166q174 0 302 189t128 429q0 182 -68 286q-69 103 -202 104q-174 0 -301 -190t-127 -429q0 -181 68 -285t200 -104zM602 -25q-225 0 -354 152t-129 412q-1 337 195 581t472 244q137 0 242 -57q88 10 136 62q48 51 48 111
t-20 107l170 55q29 -74 29 -133q0 -115 -71 -191t-185 -97q135 -152 135 -420q0 -336 -194 -581t-474 -245z" />
    <glyph glyph-name="uni1EDD" unicode="&#x1edd;" horiz-adv-x="1081" 
d="M721 1165l-293 344l188 142l240 -379zM469 154q123 0 215 135t92 325q0 114 -45 176t-131 62q-123 0 -216 -135t-93 -324q0 -115 46 -177t132 -62zM444 -25q-170 0 -272 112t-102 298q0 279 169 462t384 183q104 0 190 -45q80 13 127 71t49 126t-14 110l168 56
q25 -61 24 -136q1 -118 -69 -200t-185 -111q86 -109 86 -280q0 -276 -169 -461t-386 -185z" />
    <glyph glyph-name="uni1EDE" unicode="&#x1ede;" horiz-adv-x="1325" 
d="M717 1421l-2 101q109 23 116 75q6 35 -29 55q-36 19 -122 23l51 125q157 -4 227 -49t54 -127q-33 -172 -295 -203zM614 166q174 0 302 189t128 429q0 182 -68 286q-69 103 -202 104q-174 0 -301 -190t-127 -429q0 -181 68 -285t200 -104zM602 -25q-225 0 -354 152
t-129 412q-1 337 195 581t472 244q137 0 242 -57q88 10 136 62q48 51 48 111t-20 107l170 55q29 -74 29 -133q0 -115 -71 -191t-185 -97q135 -152 135 -420q0 -336 -194 -581t-474 -245z" />
    <glyph glyph-name="uni1EDF" unicode="&#x1edf;" horiz-adv-x="1081" 
d="M567 1167l-2 101q106 27 117 84q20 82 -147 90l40 149q166 -4 237 -61t52 -160q-33 -172 -297 -203zM469 154q123 0 215 135t92 325q0 114 -45 176t-131 62q-123 0 -216 -135t-93 -324q0 -115 46 -177t132 -62zM444 -25q-170 0 -272 112t-102 298q0 279 169 462t384 183
q104 0 190 -45q80 13 127 71t49 126t-14 110l168 56q25 -61 24 -136q1 -118 -69 -200t-185 -111q86 -109 86 -280q0 -276 -169 -461t-386 -185z" />
    <glyph glyph-name="uni1EE0" unicode="&#x1ee0;" horiz-adv-x="1325" 
d="M905 1434q-47 0 -89 20t-66 46q-61 65 -109 67q-74 0 -109 -119l-149 12q29 135 103 204q75 69 178 69q61 0 109 -33t86 -66t69 -32q70 0 108 118l150 -12q-29 -134 -104 -204t-177 -70zM614 166q174 0 302 189t128 429q0 182 -68 286q-69 103 -202 104q-174 0 -301 -190
t-127 -429q0 -181 68 -285t200 -104zM602 -25q-225 0 -354 152t-129 412q-1 337 195 581t472 244q137 0 242 -57q88 10 136 62q48 51 48 111t-20 107l170 55q29 -74 29 -133q0 -115 -71 -191t-185 -97q135 -152 135 -420q0 -336 -194 -581t-474 -245z" />
    <glyph glyph-name="uni1EE1" unicode="&#x1ee1;" horiz-adv-x="1081" 
d="M469 154q123 0 215 135t92 325q0 114 -45 176t-131 62q-123 0 -216 -135t-93 -324q0 -115 46 -177t132 -62zM444 -25q-170 0 -272 112t-102 298q0 279 169 462t384 183q104 0 190 -45q80 13 127 71t49 126t-14 110l168 56q25 -61 24 -136q1 -118 -69 -200t-185 -111
q86 -109 86 -280q0 -276 -169 -461t-386 -185zM748 1178q-43 0 -81 24t-60 52q-58 78 -111 77q-74 0 -103 -139l-141 8q55 295 252 295q55 0 98 -38t80 -76t74 -38q76 0 100 138l143 -8q-54 -295 -251 -295z" />
    <glyph glyph-name="uni1EE2" unicode="&#x1ee2;" horiz-adv-x="1325" 
d="M517 -438q-56 0 -94 30t-38 86q0 54 44 98t99 44q56 0 94 -31t38 -88t-44 -98q-43 -41 -99 -41zM614 166q174 0 302 189t128 429q0 182 -68 286q-69 103 -202 104q-174 0 -301 -190t-127 -429q0 -181 68 -285t200 -104zM602 -25q-225 0 -354 152t-129 412q-1 337 195 581
t472 244q137 0 242 -57q88 10 136 62q48 51 48 111t-20 107l170 55q29 -74 29 -133q0 -115 -71 -191t-185 -97q135 -152 135 -420q0 -336 -194 -581t-474 -245z" />
    <glyph glyph-name="uni1EE3" unicode="&#x1ee3;" horiz-adv-x="1081" 
d="M333 -438q-56 0 -94 30t-38 86q0 54 44 98t99 44t93 -31t38 -88t-43 -98t-99 -41zM469 154q123 0 215 135t92 325q0 114 -45 176t-131 62q-123 0 -216 -135t-93 -324q0 -115 46 -177t132 -62zM444 -25q-170 0 -272 112t-102 298q0 279 169 462t384 183q104 0 190 -45
q80 13 127 71t49 126t-14 110l168 56q25 -61 24 -136q1 -118 -69 -200t-185 -111q86 -109 86 -280q0 -276 -169 -461t-386 -185z" />
    <glyph glyph-name="uni1EE4" unicode="&#x1ee4;" horiz-adv-x="1290" 
d="M637 -299q1 -57 -43 -98t-100 -41t-94 30t-38 86q0 54 44 98t100 44q55 0 93 -31t38 -88zM379 432q0 -266 237 -266q227 0 302 375l159 798h217l-161 -798q-113 -565 -525 -566q-451 0 -450 445q-1 68 24 203l144 716h221l-150 -749q-18 -86 -18 -158z" />
    <glyph glyph-name="uni1EE5" unicode="&#x1ee5;" horiz-adv-x="1099" 
d="M439 -449q-56 0 -94 31t-38 86q0 54 44 98q43 44 99 44t94 -31t38 -88t-43 -99q-44 -41 -100 -41zM336 -25q-240 0 -240 254q0 59 17 142l127 635h219l-121 -607q-16 -76 -16 -106q0 -129 124 -129q100 0 248 155l135 687h220l-199 -1006h-178l8 143h-8
q-186 -168 -336 -168z" />
    <glyph glyph-name="uni1EE6" unicode="&#x1ee6;" horiz-adv-x="1290" 
d="M727 1421l-2 101q109 23 117 75q6 35 -30 55t-122 23l51 125q158 -4 228 -49t53 -127q-33 -172 -295 -203zM379 432q0 -266 237 -266q227 0 302 375l159 798h217l-161 -798q-113 -565 -525 -566q-451 0 -450 445q-1 68 24 203l144 716h221l-150 -749q-18 -86 -18 -158z
" />
    <glyph glyph-name="uni1EE7" unicode="&#x1ee7;" horiz-adv-x="1099" 
d="M584 1167l-2 101q106 27 116 84q20 82 -147 90l41 149q166 -4 236 -61t53 -160q-33 -172 -297 -203zM336 -25q-240 0 -240 254q0 59 17 142l127 635h219l-121 -607q-16 -76 -16 -106q0 -129 124 -129q100 0 248 155l135 687h220l-199 -1006h-178l8 143h-8
q-186 -168 -336 -168z" />
    <glyph glyph-name="uni1EE8" unicode="&#x1ee8;" horiz-adv-x="1327" 
d="M772 1421l-86 127l369 246l102 -164zM379 432q0 -266 237 -266q227 0 302 375l159 798h123q180 23 180 168q0 45 -20 92l170 56q29 -66 29 -131q0 -225 -283 -273l-143 -710q-113 -565 -525 -566q-451 0 -450 445q-1 68 24 203l144 716h221l-150 -749q-18 -86 -18 -158z
" />
    <glyph glyph-name="uni1EE9" unicode="&#x1ee9;" horiz-adv-x="1136" 
d="M621 1186l-99 125l363 327l133 -170zM336 -25q-240 0 -240 254q0 59 17 142l127 635h219l-121 -607q-16 -76 -16 -106q0 -129 124 -129q100 0 248 155l135 687h93q72 8 120 64t52 142q4 39 -17 95l168 55q27 -70 27 -137q0 -115 -67 -195t-173 -108l-182 -922h-178l8 143
h-8q-186 -168 -336 -168z" />
    <glyph glyph-name="uni1EEA" unicode="&#x1eea;" horiz-adv-x="1327" 
d="M877 1401l-306 268l154 139l276 -299zM379 432q0 -266 237 -266q227 0 302 375l159 798h123q180 23 180 168q0 45 -20 92l170 56q29 -66 29 -131q0 -225 -283 -273l-143 -710q-113 -565 -525 -566q-451 0 -450 445q-1 68 24 203l144 716h221l-150 -749q-18 -86 -18 -158z
" />
    <glyph glyph-name="uni1EEB" unicode="&#x1eeb;" horiz-adv-x="1136" 
d="M737 1165l-293 344l189 142l239 -379zM336 -25q-240 0 -240 254q0 59 17 142l127 635h219l-121 -607q-16 -76 -16 -106q0 -129 124 -129q100 0 248 155l135 687h93q72 8 120 64t52 142q4 39 -17 95l168 55q27 -70 27 -137q0 -115 -67 -195t-173 -108l-182 -922h-178
l8 143h-8q-186 -168 -336 -168z" />
    <glyph glyph-name="uni1EEC" unicode="&#x1eec;" horiz-adv-x="1327" 
d="M721 1421l-2 101q109 23 117 75q6 35 -30 55t-122 23l51 125q158 -4 228 -49t53 -127q-33 -172 -295 -203zM379 432q0 -266 237 -266q227 0 302 375l159 798h123q180 23 180 168q0 45 -20 92l170 56q29 -66 29 -131q0 -225 -283 -273l-143 -710q-113 -565 -525 -566
q-451 0 -450 445q-1 68 24 203l144 716h221l-150 -749q-18 -86 -18 -158z" />
    <glyph glyph-name="uni1EED" unicode="&#x1eed;" horiz-adv-x="1136" 
d="M584 1167l-2 101q106 27 116 84q20 82 -147 90l41 149q166 -4 236 -61t53 -160q-33 -172 -297 -203zM336 -25q-240 0 -240 254q0 59 17 142l127 635h219l-121 -607q-16 -76 -16 -106q0 -129 124 -129q100 0 248 155l135 687h93q72 8 120 64t52 142q4 39 -17 95l168 55
q27 -70 27 -137q0 -115 -67 -195t-173 -108l-182 -922h-178l8 143h-8q-186 -168 -336 -168z" />
    <glyph glyph-name="uni1EEE" unicode="&#x1eee;" horiz-adv-x="1327" 
d="M963 1434q-47 0 -89 20t-68 46q-61 65 -108 67q-74 0 -108 -119l-150 12q29 135 104 204t177 69q61 0 109 -33t86 -66t69 -32q70 0 109 118l149 -12q-29 -135 -103 -205q-75 -69 -177 -69zM379 432q0 -266 237 -266q227 0 302 375l159 798h123q180 23 180 168
q0 45 -20 92l170 56q29 -66 29 -131q0 -225 -283 -273l-143 -710q-113 -565 -525 -566q-451 0 -450 445q-1 68 24 203l144 716h221l-150 -749q-18 -86 -18 -158z" />
    <glyph glyph-name="uni1EEF" unicode="&#x1eef;" horiz-adv-x="1136" 
d="M803 1178q-47 0 -86 24t-61 52q-58 78 -113 77q-78 0 -107 -139l-149 8q27 141 95 218q69 77 173 77q59 0 104 -38t81 -76t75 -38q82 0 107 138l149 -8q-27 -141 -95 -219q-69 -76 -173 -76zM336 -25q-240 0 -240 254q0 59 17 142l127 635h219l-121 -607
q-16 -76 -16 -106q0 -129 124 -129q100 0 248 155l135 687h93q72 8 120 64t52 142q4 39 -17 95l168 55q27 -70 27 -137q0 -115 -67 -195t-173 -108l-182 -922h-178l8 143h-8q-186 -168 -336 -168z" />
    <glyph glyph-name="uni1EF0" unicode="&#x1ef0;" horiz-adv-x="1327" 
d="M499 -438q-56 0 -95 30q-38 31 -38 86q0 54 45 98q44 44 99 44t93 -31t38 -88t-43 -98t-99 -41zM379 432q0 -266 237 -266q227 0 302 375l159 798h123q180 23 180 168q0 45 -20 92l170 56q29 -66 29 -131q0 -225 -283 -273l-143 -710q-113 -565 -525 -566
q-451 0 -450 445q-1 68 24 203l144 716h221l-150 -749q-18 -86 -18 -158z" />
    <glyph glyph-name="uni1EF1" unicode="&#x1ef1;" horiz-adv-x="1136" 
d="M439 -449q-56 0 -94 31t-38 86q0 54 44 98q43 44 99 44t94 -31t38 -88t-43 -99q-44 -41 -100 -41zM336 -25q-240 0 -240 254q0 59 17 142l127 635h219l-121 -607q-16 -76 -16 -106q0 -129 124 -129q100 0 248 155l135 687h93q72 8 120 64t52 142q4 39 -17 95l168 55
q27 -70 27 -137q0 -115 -67 -195t-173 -108l-182 -922h-178l8 143h-8q-186 -168 -336 -168z" />
    <glyph glyph-name="Ygrave" unicode="&#x1ef2;" horiz-adv-x="995" 
d="M719 1401l-305 268l153 139l277 -299zM283 0l100 504l-215 835h227l76 -352q13 -57 31 -157t26 -138h9q139 240 174 297l219 350h237l-563 -835l-100 -504h-221z" />
    <glyph glyph-name="ygrave" unicode="&#x1ef3;" horiz-adv-x="970" 
d="M659 1165l-292 344l188 142l240 -379zM31 -414q-66 0 -129 37l69 160q97 -55 197 30q59 50 102 136l31 61l-174 996h219l64 -508q18 -164 24 -301h8q16 33 66 141t76 160l250 508h213l-566 -1059q-101 -181 -205 -271t-245 -90z" />
    <glyph glyph-name="uni1EF4" unicode="&#x1ef4;" horiz-adv-x="995" 
d="M346 -197q55 -1 93 -31t38 -87t-43 -99t-99 -41q-56 0 -94 31t-38 86t44 98t99 43zM283 0l100 504l-215 835h227l76 -352q13 -57 31 -157t26 -138h9q139 240 174 297l219 350h237l-563 -835l-100 -504h-221z" />
    <glyph glyph-name="uni1EF5" unicode="&#x1ef5;" horiz-adv-x="970" 
d="M639 -197q55 -1 93 -31t38 -87t-43 -99t-99 -41q-56 0 -94 31t-38 86t44 98t99 43zM31 -414q-66 0 -129 37l69 160q97 -55 197 30q59 50 102 136l31 61l-174 996h219l64 -508q18 -164 24 -301h8q16 33 66 141t76 160l250 508h213l-566 -1059q-101 -181 -205 -271
t-245 -90z" />
    <glyph glyph-name="uni1EF6" unicode="&#x1ef6;" horiz-adv-x="995" 
d="M563 1421l-2 101q109 23 117 75q6 35 -30 55t-122 23l52 125q158 -4 228 -49t52 -127q-33 -172 -295 -203zM283 0l100 504l-215 835h227l76 -352q13 -57 31 -157t26 -138h9q139 240 174 297l219 350h237l-563 -835l-100 -504h-221z" />
    <glyph glyph-name="uni1EF7" unicode="&#x1ef7;" horiz-adv-x="970" 
d="M506 1167l-2 101q106 27 117 84q20 82 -148 90l41 149q166 -4 237 -61t52 -160q-33 -172 -297 -203zM31 -414q-66 0 -129 37l69 160q97 -55 197 30q59 50 102 136l31 61l-174 996h219l64 -508q18 -164 24 -301h8q16 33 66 141t76 160l250 508h213l-566 -1059
q-101 -181 -205 -271t-245 -90z" />
    <glyph glyph-name="uni1EF8" unicode="&#x1ef8;" horiz-adv-x="995" 
d="M563 1733q61 0 109 -33t87 -66q38 -33 68 -32q70 0 109 118l149 -12q-29 -135 -103 -205q-75 -69 -172 -69t-161 66q-63 66 -108 67q-74 0 -109 -119l-149 12q29 135 103 204q75 69 177 69zM283 0l100 504l-215 835h227l76 -352q13 -57 31 -157t26 -138h9
q139 240 174 297l219 350h237l-563 -835l-100 -504h-221z" />
    <glyph glyph-name="uni1EF9" unicode="&#x1ef9;" horiz-adv-x="970" 
d="M750 1178q-47 0 -86 24t-61 52q-58 78 -114 77q-78 0 -106 -139l-150 8q27 141 96 218t173 77q59 0 104 -38t81 -76t75 -38q82 0 106 138l150 -8q-27 -141 -95 -219q-69 -76 -173 -76zM31 -414q-66 0 -129 37l69 160q97 -55 197 30q59 50 102 136l31 61l-174 996h219
l64 -508q18 -164 24 -301h8q16 33 66 141t76 160l250 508h213l-566 -1059q-101 -181 -205 -271t-245 -90z" />
    <glyph glyph-name="uni2007" unicode="&#x2007;" horiz-adv-x="1011" 
 />
    <glyph glyph-name="figuredash" unicode="&#x2012;" horiz-adv-x="1011" 
d="M72 442l28 148h842l-33 -148h-837z" />
    <glyph glyph-name="endash" unicode="&#x2013;" horiz-adv-x="948" 
d="M72 442l28 148h777l-31 -148h-774z" />
    <glyph glyph-name="emdash" unicode="&#x2014;" horiz-adv-x="1576" 
d="M72 442l28 148h1407l-30 -148h-1405z" />
    <glyph glyph-name="uni2015" unicode="&#x2015;" horiz-adv-x="1576" 
d="M72 442l28 148h1407l-30 -148h-1405z" />
    <glyph glyph-name="quoteleft" unicode="&#x2018;" horiz-adv-x="546" 
d="M344 807q-61 0 -97 45t-36 123q0 157 88 267t225 159l39 -101q-98 -40 -156 -112t-59 -129h10q54 0 90 -29t36 -85t-40 -97q-39 -41 -100 -41z" />
    <glyph glyph-name="quoteright" unicode="&#x2019;" horiz-adv-x="546" 
d="M438 1178h-10q-55 0 -90 28t-35 85q0 55 40 97t101 42q60 0 96 -44t35 -124q0 -156 -88 -266t-225 -160l-39 100q98 41 157 113q58 72 58 129z" />
    <glyph glyph-name="quotesinglbase" unicode="&#x201a;" horiz-adv-x="546" 
d="M197 29q-55 0 -91 28q-34 29 -34 85t40 98t101 41q61 0 96 -44t35 -124q0 -157 -88 -267t-225 -159l-39 100q98 41 156 113t59 129h-10z" />
    <glyph glyph-name="quotedblleft" unicode="&#x201c;" horiz-adv-x="942" 
d="M879 945q1 -56 -39 -97t-101 -41t-97 45t-36 123q0 157 88 267t226 159l38 -101q-98 -40 -156 -112t-59 -129h11q55 0 90 -29t35 -85zM344 807q-61 0 -97 45t-36 123q0 157 88 267t225 159l39 -101q-98 -40 -156 -112t-59 -129h10q54 0 90 -29t36 -85t-40 -97
q-39 -41 -100 -41z" />
    <glyph glyph-name="quotedblright" unicode="&#x201d;" horiz-adv-x="942" 
d="M823 1178q-55 0 -90 28t-35 85q0 55 40 97t102 42t96 -44q35 -44 35 -124q0 -156 -88 -267q-89 -110 -226 -159l-39 100q98 41 157 113q58 72 59 129h-11zM438 1178h-10q-55 0 -90 28t-35 85q0 55 40 97t101 42q60 0 96 -44t35 -124q0 -156 -88 -266t-225 -160l-39 100
q98 41 157 113q58 72 58 129z" />
    <glyph glyph-name="quotedblbase" unicode="&#x201e;" horiz-adv-x="942" 
d="M602 29h-10q-55 1 -90 29t-35 84t40 98t101 41q60 0 96 -44t35 -124q0 -157 -88 -267t-225 -159l-39 100q98 41 157 113q58 72 58 129zM197 29q-55 0 -91 28q-34 29 -34 85t40 98t101 41q61 0 96 -44t35 -124q0 -157 -88 -267t-225 -159l-39 100q98 41 156 113t59 129
h-10z" />
    <glyph glyph-name="dagger" unicode="&#x2020;" horiz-adv-x="946" 
d="M246 -164l241 1129l-301 -15l37 183l291 -15l55 340h183l-82 -340l299 15l-35 -183l-293 15l-213 -1129h-182z" />
    <glyph glyph-name="daggerdbl" unicode="&#x2021;" horiz-adv-x="946" 
d="M248 -164l78 336l-297 -12l34 180l295 -16l50 323l79 324l-301 -21l35 183l293 -15l55 340h181l-80 -340l299 15l-35 -183l-293 21l-51 -324l-78 -323l301 16l-37 -180l-295 12l-51 -336h-182z" />
    <glyph glyph-name="bullet" unicode="&#x2022;" horiz-adv-x="641" 
d="M336 799q104 0 166 -65q62 -66 63 -172q-1 -106 -75 -194t-180 -89q-106 0 -167 64q-61 65 -61 171t75 196q75 89 179 89z" />
    <glyph glyph-name="ellipsis" unicode="&#x2026;" horiz-adv-x="1982" 
d="M1772 144q0 -64 -48 -116t-112 -53q-64 0 -96 36q-33 35 -33 97t49 116q48 54 112 54t96 -35t32 -99zM1108 144q0 -64 -48 -116t-112 -53q-64 0 -96 36q-33 35 -33 97t49 116q48 54 112 54t96 -35t32 -99zM284 -25q-64 0 -96 36q-32 35 -32 97t49 116t113 54t95 -35
t31 -99t-48 -116t-112 -53z" />
    <glyph glyph-name="uni202F" unicode="&#x202f;" horiz-adv-x="249" 
 />
    <glyph glyph-name="perthousand" unicode="&#x2030;" horiz-adv-x="2404" 
d="M1212 111q92 0 151 116q58 117 58 273q0 190 -118 190q-93 0 -151 -117t-58 -272q-1 -190 118 -190zM1200 -25q-120 -1 -194 89t-74 231q0 213 105 372t278 158q119 0 193 -88t75 -229q1 -215 -105 -374t-278 -159zM283 -25l981 1401h135l-981 -1401h-135zM397 664
q92 0 151 116q58 117 58 273q0 190 -119 190q-92 0 -150 -117t-58 -272q-1 -190 118 -190zM385 528q-119 0 -194 89t-74 231q0 213 105 372t278 158q120 0 194 -88t74 -229q0 -215 -106 -374t-277 -159zM1958 111q92 1 150 117t59 272q0 190 -119 190q-92 0 -150 -117
t-59 -272q0 -190 119 -190zM1946 -25q-119 -1 -194 89t-75 231q-1 213 105 372t278 158q119 0 194 -88t75 -229q1 -215 -105 -374t-278 -159z" />
    <glyph glyph-name="uni2032" unicode="&#x2032;" horiz-adv-x="546" 
d="M211 807l168 602h215l-82 -242l-156 -360h-145z" />
    <glyph glyph-name="uni2033" unicode="&#x2033;" horiz-adv-x="942" 
d="M606 807l168 602h215l-82 -242l-155 -360h-146zM211 807l168 602h215l-82 -242l-156 -360h-145z" />
    <glyph glyph-name="guilsinglleft" unicode="&#x2039;" horiz-adv-x="536" 
d="M293 127l-211 315l29 164l317 295l72 -78l-281 -315l166 -322z" />
    <glyph glyph-name="guilsinglright" unicode="&#x203a;" horiz-adv-x="536" 
d="M123 127l-72 78l281 315l-168 322l94 59l211 -315l-31 -164z" />
    <glyph glyph-name="fraction" unicode="&#x2044;" horiz-adv-x="182" 
d="M-436 -25l981 1401h135l-981 -1401h-135z" />
    <glyph glyph-name="zero.sups" unicode="&#x2070;" horiz-adv-x="751" 
d="M457 899q92 0 150 117t59 272q0 190 -119 191q-93 0 -151 -117t-58 -272q0 -191 119 -191zM444 764q-120 0 -194 89t-74 230q0 213 106 372t277 159q119 0 194 -88t74 -230q1 -216 -105 -374t-278 -158z" />
    <glyph glyph-name="i.sups" unicode="&#x2071;" horiz-adv-x="352" 
d="M100 788l133 666h158l-131 -666h-160zM349 1567q-41 0 -67 20q-26 21 -26 61t31 68t71 29q40 -1 66 -21q27 -20 27 -60t-31 -68t-71 -29z" />
    <glyph glyph-name="four.sups" unicode="&#x2074;" horiz-adv-x="735" 
d="M330 1100h215l24 127l56 233h-9l-131 -172zM481 788l39 199h-366l16 88l418 512h194l-96 -487h119l-25 -113h-116l-39 -199h-144z" />
    <glyph glyph-name="five.sups" unicode="&#x2075;" horiz-adv-x="729" 
d="M432 764q-193 0 -287 164l111 78q61 -109 174 -109q61 0 110 46q48 47 48 111t-34 99t-96 35t-130 -49l-60 59l109 389h442l-26 -139h-312l-49 -166q45 23 94 23q98 1 160 -63t64 -184q0 -120 -94 -207t-224 -87z" />
    <glyph glyph-name="six.sups" unicode="&#x2076;" horiz-adv-x="731" 
d="M473 897q51 0 91 46q40 47 40 109t-29 92t-79 30q-82 0 -150 -78v-15q0 -184 127 -184zM460 764q-118 0 -194 88t-76 227q0 248 124 390t298 143q131 0 215 -88l-92 -103q-57 57 -142 57t-150 -69q-65 -70 -87 -199q78 78 180 78t159 -60q59 -60 59 -175t-88 -202
t-206 -87z" />
    <glyph glyph-name="seven.sups" unicode="&#x2077;" horiz-adv-x="733" 
d="M285 788q94 369 362 660h-368l26 139h555l-14 -90q-168 -166 -251 -329t-132 -380h-178z" />
    <glyph glyph-name="eight.sups" unicode="&#x2078;" horiz-adv-x="733" 
d="M448 879q55 0 97 35q41 36 41 82t-23 76q-23 28 -43 40t-74 39q-121 -61 -120 -156q0 -51 33 -84q34 -32 89 -32zM643 1395q0 47 -28 73q-29 26 -75 25q-46 0 -79 -29t-33 -78q0 -84 117 -133q98 70 98 142zM436 764q-122 0 -194 60t-72 146t54 147q54 62 134 102l4 8
q-80 71 -80 163t82 157q81 65 188 65t172 -56t64 -145q0 -137 -151 -219v-8q100 -72 100 -176t-89 -174t-212 -70z" />
    <glyph glyph-name="nine.sups" unicode="&#x2079;" horiz-adv-x="733" 
d="M371 764q-133 0 -217 88l92 102q57 -57 142 -57t150 70t87 198q-81 -78 -181 -78q-100 1 -158 61t-58 175t87 202q88 87 206 87t194 -88t76 -228q0 -250 -123 -391t-297 -141zM485 1202q82 0 150 78v14q0 184 -127 185q-51 0 -90 -46q-39 -47 -39 -109q0 -122 106 -122z
" />
    <glyph glyph-name="parenleft.sups" unicode="&#x207d;" horiz-adv-x="493" 
d="M229 1018q0 209 71 374t239 363l108 -53q-262 -338 -262 -684q0 -207 55 -350l-123 -52q-88 193 -88 402z" />
    <glyph glyph-name="parenright.sups" unicode="&#x207e;" horiz-adv-x="491" 
d="M358 1354q0 205 -55 348l123 53q88 -193 88 -403t-70 -374q-70 -165 -239 -362l-109 54q262 338 262 684z" />
    <glyph glyph-name="n.sups" unicode="&#x207f;" horiz-adv-x="741" 
d="M754 1298q0 -27 -13 -92l-84 -418h-157l78 398q10 39 10 67q0 82 -71 82t-169 -100l-88 -447h-160l133 666h127l-4 -92h9q123 109 229 108q160 0 160 -172z" />
    <glyph glyph-name="zero.subs" unicode="&#x2080;" horiz-adv-x="751" 
d="M233 -238q92 0 151 117q58 117 58 273q0 190 -118 190q-92 0 -150 -117t-59 -272q-1 -191 118 -191zM221 -373q-119 0 -193 89t-75 231q0 213 105 371t278 159q120 0 194 -88t74 -229q0 -215 -106 -374t-277 -159z" />
    <glyph glyph-name="one.subs" unicode="&#x2081;" horiz-adv-x="749" 
d="M168 -348l123 610h-180l20 105q135 20 234 84h127l-156 -799h-168z" />
    <glyph glyph-name="two.subs" unicode="&#x2082;" horiz-adv-x="733" 
d="M389 223q0 109 -115 109q-61 0 -145 -84l-92 98q135 129 259 129t192 -60t67 -168q0 -108 -83 -212t-263 -244h287l-27 -139h-547l17 96q242 164 346 272t104 203z" />
    <glyph glyph-name="three.subs" unicode="&#x2083;" horiz-adv-x="729" 
d="M393 243q-1 101 -119 101q-62 0 -141 -57l-70 110q117 78 240 78t189 -54t65 -142q0 -160 -174 -222q129 -57 129 -175t-86 -186t-215 -69q-195 0 -289 164l111 78q61 -109 166 -109q67 0 109 33t42 90q0 125 -196 125l22 105q115 0 166 40t51 90z" />
    <glyph glyph-name="four.subs" unicode="&#x2084;" horiz-adv-x="735" 
d="M106 -37h216l24 127l55 234h-8l-131 -172zM258 -348l39 198h-367l17 89l418 512h194l-96 -488h119l-25 -113h-117l-39 -198h-143z" />
    <glyph glyph-name="five.subs" unicode="&#x2085;" horiz-adv-x="729" 
d="M209 -373q-193 0 -287 164l111 78q61 -109 174 -109q61 0 109 46t48 112t-34 99q-35 34 -94 34t-132 -49l-59 59l109 390h442l-27 -140h-311l-49 -166q45 23 94 23q99 0 161 -64t62 -183q0 -120 -94 -207t-223 -87z" />
    <glyph glyph-name="six.subs" unicode="&#x2086;" horiz-adv-x="731" 
d="M250 -240q51 0 91 46t40 108q0 122 -109 123q-82 0 -149 -78v-14q0 -185 127 -185zM530 -66q0 -133 -88 -220t-205 -87q-118 0 -194 88t-76 228q0 248 124 390t298 142q131 0 215 -88l-92 -102q-57 57 -142 57t-150 -70t-87 -198q78 78 179 78q102 0 160 -60t58 -158z
" />
    <glyph glyph-name="seven.subs" unicode="&#x2087;" horiz-adv-x="733" 
d="M61 -348q94 369 363 659h-369l27 140h555l-14 -91q-168 -166 -251 -328t-132 -380h-179z" />
    <glyph glyph-name="eight.subs" unicode="&#x2088;" horiz-adv-x="733" 
d="M225 -258q55 0 97 36q40 36 40 82t-22 74t-43 41q-20 12 -74 39q-121 -59 -121 -155q0 -51 34 -84t89 -33zM420 258q0 47 -28 73q-28 25 -74 25t-80 -28q-33 -28 -33 -78q0 -84 117 -133q98 70 98 141zM213 -373q-123 1 -195 61t-72 145t55 147q54 62 134 102l4 8
q-80 72 -80 164t81 157q80 65 188 65t173 -56q65 -55 64 -146q0 -137 -151 -219v-8q100 -72 100 -176t-89 -174t-212 -70z" />
    <glyph glyph-name="nine.subs" unicode="&#x2089;" horiz-adv-x="733" 
d="M147 -373q-133 0 -217 88l93 103q57 -58 142 -58t149 70t87 199q-82 -78 -181 -78t-158 60q-58 60 -58 157q0 133 88 220t206 87t194 -88t75 -227q0 -250 -123 -392t-297 -141zM156 178q0 -112 106 -112q82 0 150 77v15q0 184 -127 184q-51 0 -90 -46t-39 -118z" />
    <glyph glyph-name="parenleft.subs" unicode="&#x208d;" horiz-adv-x="493" 
d="M6 -118q0 208 71 373t238 363l109 -53q-262 -338 -262 -684q0 -207 55 -350l-123 -51q-88 194 -88 402z" />
    <glyph glyph-name="parenright.subs" unicode="&#x208e;" horiz-adv-x="491" 
d="M135 217q0 205 -55 348l123 53q88 -192 88 -402q-1 -210 -71 -374t-238 -362l-109 53q262 338 262 684z" />
    <glyph glyph-name="uni0259.sups" unicode="&#x2094;" horiz-adv-x="665" 
d="M348 893q57 0 109 46q50 46 73 126h-284l-6 -55q0 -117 108 -117zM696 1186q0 -176 -114 -295t-241 -119q-126 0 -179 69t-53 163t30 161h406q8 184 -142 185q-51 0 -137 -43l-47 102q117 61 229 61t181 -72q67 -73 67 -212z" />
    <glyph glyph-name="colonmonetary" unicode="&#x20a1;" horiz-adv-x="1011" 
d="M121 479q0 354 167 592t410 264l64 205h84l-64 -201q55 -6 95 -20l69 221h84l-80 -256q86 -55 148 -172l-154 -100q-23 43 -53 80l-293 -936q100 10 203 106l104 -131q-170 -150 -362 -156l-64 -200h-86l64 207q-47 6 -90 24l-72 -231h-86l86 272q-174 127 -174 432z
M332 496q0 -121 39 -205l266 852q-135 -51 -220 -229t-85 -418zM733 1161h-6l-297 -954q37 -33 84 -45l307 981q-37 18 -88 18z" />
    <glyph glyph-name="lira" unicode="&#x20a4;" horiz-adv-x="1011" 
d="M297 877q0 209 128 335q129 126 319 127q190 0 309 -172l-146 -116q-74 111 -174 111t-166 -82q-66 -81 -65 -228v-27h327l-24 -118h-293q6 -55 6 -107v-10h260l-24 -119h-246q-31 -156 -146 -276l-2 -9h506l-32 -186h-832l27 133q113 51 185 139t93 199h-215l25 107
l180 12h20q-4 78 -8 117h-168l25 108l133 8q-2 18 -2 54z" />
    <glyph glyph-name="uni20A6" unicode="&#x20a6;" horiz-adv-x="1011" 
d="M340 598l-2 -6h121l-13 117h-92zM610 672l6 -80h89l14 117h-113zM55 0l101 496h-146l21 86l143 10l25 117h-146l19 84l145 10l102 512h203l70 -512h145l99 512h168l-103 -512h141l-22 -94h-137l-23 -117h139l-20 -96h-139l-99 -496h-204l-66 496h-152l-96 -496h-168z
M651 193h8l35 303h-69zM403 1120l-38 -317h73l-28 317h-7z" />
    <glyph glyph-name="peseta" unicode="&#x20a7;" horiz-adv-x="1011" 
d="M436 635q111 0 188 52t109 151h-311l-41 -203h55zM487 1171l-38 -192h305q-2 193 -211 192h-56zM590 1315q168 0 268 -79t100 -239v-18h117l-26 -141h-111q-47 -170 -186 -258t-326 -88h-76l-98 -492h-209l168 838h-135l26 131l138 8l67 338h283z" />
    <glyph glyph-name="dong" unicode="&#x20ab;" horiz-adv-x="1011" 
d="M59 0l25 117h741l-24 -117h-742zM457 381q92 0 192 94l56 277q-53 80 -137 80t-158 -84t-74 -209q0 -158 121 -158zM395 229q-121 0 -185 75t-65 204q0 205 131 339t285 134q109 0 176 -90l27 158l16 84h-276l24 118h277l26 131h183l-27 -131h150l-23 -108l-149 -10
l-179 -883h-153l4 86h-4q-117 -107 -238 -107z" />
    <glyph glyph-name="Euro" unicode="&#x20ac;" horiz-adv-x="1011" 
d="M574 -25q-189 0 -298 130t-112 370h-127l24 107l107 10q6 70 18 129h-100l25 106l104 9q76 229 232 366q157 137 347 137t300 -198l-160 -105q-61 125 -167 125t-194 -88t-137 -235h469l-24 -117h-478q-14 -68 -16 -127h391l-24 -119h-371q7 -153 67 -237t166 -84
t215 108l107 -131q-175 -156 -364 -156z" />
    <glyph glyph-name="uni20B1" unicode="&#x20b1;" horiz-adv-x="1011" 
d="M737 846q12 41 17 112h-310l-22 -112h315zM434 623q178 0 260 127h-293l-24 -127h57zM487 1171l-22 -116h278q-35 117 -200 116h-56zM590 1315q330 0 364 -260h136l-19 -97h-113q-2 -55 -16 -112h105l-19 -96h-121q-63 -135 -193 -204t-292 -69h-74l-96 -477h-209
l152 750h-136l19 86l135 8l23 114h-134l17 86l135 9l53 262h283z" />
    <glyph glyph-name="uni20B2" unicode="&#x20b2;" horiz-adv-x="1011" 
d="M90 479q0 344 169 580t417 274l41 207h149l-39 -207q147 -27 236 -192l-160 -105q-61 125 -162 125q-182 -1 -306 -193t-124 -472q1 -160 59 -251t158 -91t154 59l63 309h-167l36 180h363l-113 -571q-145 -133 -307 -151l-41 -205h-151l43 209q-152 30 -235 160t-83 335z
" />
    <glyph glyph-name="uni20B5" unicode="&#x20b5;" horiz-adv-x="1011" 
d="M121 479q0 360 173 600t423 258l37 189h129l-39 -197q133 -35 229 -205l-153 -100q-49 96 -113 123l-199 -991q90 16 180 106l105 -131q-150 -137 -320 -154l-41 -202h-129l41 209q-154 30 -238 158t-85 337zM340 496q0 -258 143 -324l197 983q-150 -31 -245 -216
t-95 -443z" />
    <glyph glyph-name="uni20B9" unicode="&#x20b9;" horiz-adv-x="1011" 
d="M274 659q138 1 232 57t123 161h-418l22 108l144 10h260q-18 141 -246 142h-129l37 178h760l-27 -119h-272q90 -66 96 -201h139l-24 -118h-125q-25 -125 -107 -212t-200 -135l211 -530h-234l-176 485q-23 -2 -66 -2h-141l35 176h106z" />
    <glyph glyph-name="uni20BA" unicode="&#x20ba;" horiz-adv-x="1011" 
d="M426 180q170 12 284 116t117 271l191 45q2 -170 -67 -298t-191 -200q-244 -144 -596 -139l115 572l-185 -74l27 129l184 74l27 135l-185 -74l27 129l186 74l72 365h219l-57 -293l342 137l-27 -129l-344 -137l-24 -135l340 137l-27 -129l-342 -138z" />
    <glyph glyph-name="uni2113" unicode="&#x2113;" horiz-adv-x="864" 
d="M776 1196q0 115 -71 115q-47 0 -95 -68t-75 -203l-72 -360q313 276 313 516zM470 -25q-144 0 -226 85t-70 239q-35 -20 -113 -61l-53 141q104 53 201 115l102 512q47 236 159 352t257 117q109 0 170 -69t61 -185q0 -389 -542 -770l-8 -41q-49 -250 118 -250q82 0 213 90
l60 -135q-185 -140 -329 -140z" />
    <glyph glyph-name="uni2117" unicode="&#x2117;" horiz-adv-x="1368" 
d="M705 616q102 0 155 48t53 129q0 111 -147 110h-94l-58 -287h91zM803 1028q123 0 197 -52t73 -155q1 -155 -109 -239t-268 -84h-106l-41 -215h-162l148 745h268zM618 84q270 0 454 204q183 204 183 474q0 207 -117 341q-118 134 -325 134q-269 0 -453 -204t-184 -474
q0 -207 118 -341t324 -134zM610 -20q-238 0 -390 160t-152 409q0 209 94 389t268 291t402 111t380 -160q152 -158 152 -408q0 -322 -214 -557t-540 -235z" />
    <glyph glyph-name="uni2120" unicode="&#x2120;" horiz-adv-x="1273" 
d="M641 745l125 639h174l45 -213l19 -155h8l73 155l132 213h178l-125 -639h-146l50 248l73 240h-8l-227 -391h-80l-74 391h-8l-19 -240l-49 -248h-141zM307 721q-143 0 -229 115l98 79q63 -78 139 -77q47 0 77 22t30 58t-62 71l-79 45q-91 52 -91 148t71 157t174 61t196 -87
l-88 -90q-63 63 -111 63t-76 -22q-27 -22 -26 -50q0 -43 63 -75l76 -41q96 -52 96 -148q-1 -96 -75 -162t-183 -67z" />
    <glyph glyph-name="trademark" unicode="&#x2122;" horiz-adv-x="1294" 
d="M662 745l124 639h175l45 -213l18 -155h8l74 155l131 213h178l-125 -639h-145l49 248l74 240h-8l-228 -391h-80l-73 391h-9l-18 -240l-49 -248h-141zM242 745l98 504h-188l26 135h520l-26 -135h-183l-100 -504h-147z" />
    <glyph glyph-name="uni2126" unicode="&#x2126;" horiz-adv-x="1388" 
d="M266 178v8q-127 166 -127 408q0 334 205 552t512 218q221 0 350 -133t129 -359q0 -397 -340 -686l-2 -8h240l-33 -178h-504l29 143q379 274 379 691q0 154 -76 246t-207 94q-199 0 -331 -172t-132 -439q0 -266 154 -420l-27 -143h-499l32 178h248z" />
    <glyph glyph-name="estimated" unicode="&#x212e;" horiz-adv-x="1638" 
d="M410 684h901q12 0 12 12v377q0 25 -20 45q-187 193 -443 193t-442 -201q-16 -25 -17 -45v-369q1 -12 9 -12zM860 -25q-301 0 -513 201t-212 488q0 288 212 488t513 200t513 -201t212 -487v-17h-1175q-8 0 -9 -8v-377q0 -16 17 -41q178 -205 446 -205q135 0 257 62
t210 168h107q-104 -125 -255 -198t-323 -73z" />
    <glyph glyph-name="onethird" unicode="&#x2153;" horiz-adv-x="1628" 
d="M1364 591q0 101 -120 101q-62 0 -140 -57l-70 110q118 78 240 78t188 -54t66 -142q0 -160 -174 -221q129 -58 129 -176t-86 -186t-215 -69q-195 0 -289 164l111 78q61 -109 165 -108q68 1 110 33t42 89q0 125 -197 125l23 105q115 0 166 40t51 90zM213 -25l981 1401h135
l-981 -1401h-135zM279 553l122 610h-180l21 105q135 20 233 84h127l-156 -799h-167z" />
    <glyph glyph-name="twothirds" unicode="&#x2154;" horiz-adv-x="1656" 
d="M1210 -25q-195 0 -288 164l110 78q61 -109 166 -108q68 1 110 33t42 89q0 125 -197 125l23 105q116 0 166 40t50 90t-28 76q-28 25 -90 25t-141 -57l-70 110q117 78 239 78t189 -54q66 -54 65 -142q0 -160 -174 -221q129 -58 129 -176t-86 -186t-215 -69zM315 -25
l981 1401h136l-981 -1401h-136zM565 1124q0 109 -114 109q-61 0 -146 -84l-92 98q135 129 259 129t192 -60t68 -168t-84 -212q-83 -104 -263 -244h287l-27 -139h-547l17 96q242 164 346 272t104 203z" />
    <glyph glyph-name="oneeighth" unicode="&#x215b;" horiz-adv-x="1622" 
d="M1188 90q55 0 96 36t41 82t-22 75q-23 29 -43 41t-74 38q-121 -59 -121 -155q0 -51 34 -84t89 -33zM1382 606q0 47 -27 73q-28 26 -75 26t-80 -29t-33 -78q0 -84 117 -133q98 70 98 141zM1175 -25q-123 1 -195 61t-71 145t55 147t134 102l4 8q-80 72 -80 164t81 157
t188 65t172 -56q65 -55 65 -145q0 -137 -152 -220v-8q100 -72 100 -176t-88 -174q-90 -70 -213 -70zM223 -25l981 1401h135l-981 -1401h-135zM279 553l122 610h-180l21 105q135 20 233 84h127l-156 -799h-167z" />
    <glyph glyph-name="threeeighths" unicode="&#x215c;" horiz-adv-x="1640" 
d="M1204 90q55 0 96 36t41 82t-22 75q-23 29 -43 41t-74 38q-121 -59 -121 -155q0 -51 34 -84t89 -33zM1296 705q-48 0 -80 -29t-32 -78q-1 -84 116 -133q98 70 99 141q0 47 -28 73t-75 26zM1192 -25q-123 1 -195 61q-71 60 -71 145t54 147t134 102l4 8q-80 72 -80 164
t81 157t189 65t172 -56q65 -55 64 -145q0 -137 -151 -220v-8q100 -72 100 -176t-89 -174t-212 -70zM291 -25l981 1401h135l-981 -1401h-135zM545 1144q1 102 -119 102q-62 0 -141 -58l-70 110q117 78 239 78t189 -54q66 -54 66 -142q0 -160 -174 -222q129 -57 129 -175
q0 -119 -86 -187t-216 -68q-195 0 -288 164l110 78q61 -109 166 -108q68 0 110 32t42 90q0 125 -197 125l23 105q115 0 166 40t51 90z" />
    <glyph glyph-name="fiveeighths" unicode="&#x215d;" horiz-adv-x="1640" 
d="M1204 90q55 0 96 36t41 82t-22 75q-23 29 -43 41t-74 38q-121 -59 -121 -155q0 -51 34 -84t89 -33zM1296 705q-48 0 -80 -29t-32 -78q-1 -84 116 -133q98 70 99 141q0 47 -28 73t-75 26zM1192 -25q-123 1 -195 61q-71 60 -71 145t54 147t134 102l4 8q-80 72 -80 164
t81 157t189 65t172 -56q65 -55 64 -145q0 -137 -151 -220v-8q100 -72 100 -176t-89 -174t-212 -70zM291 -25l981 1401h135l-981 -1401h-135zM373 528q-193 0 -287 164l111 78q61 -109 174 -108q61 0 109 46t48 111t-34 100q-34 33 -94 33t-132 -49l-59 60l108 389h443
l-27 -140h-311l-49 -165q45 23 94 22q99 0 161 -63t62 -183q0 -119 -94 -207t-223 -88z" />
    <glyph glyph-name="seveneighths" unicode="&#x215e;" horiz-adv-x="1611" 
d="M1053 207q-1 -51 33 -84t89 -33t97 36q41 36 41 82t-23 75t-43 41t-73 38q-121 -59 -121 -155zM1370 606q0 47 -28 73t-74 26t-80 -29q-33 -29 -33 -78q0 -84 117 -133q98 70 98 141zM1163 -25q-123 1 -195 61t-71 145q0 85 54 147t134 102l5 8q-80 72 -80 164t81 157
t188 65t172 -56q65 -55 65 -145q0 -137 -152 -220v-8q100 -72 100 -176t-89 -174t-212 -70zM201 -25l981 1401h135l-981 -1401h-135zM197 553q94 369 362 659h-369l27 140h555l-14 -90q-168 -166 -251 -329t-132 -380h-178z" />
    <glyph glyph-name="uni2190" unicode="&#x2190;" horiz-adv-x="1214" 
d="M1176 602v-178h-842l350 -342l-104 -117l-541 543v10l541 545l104 -119l-350 -342h842z" />
    <glyph glyph-name="arrowup" unicode="&#x2191;" horiz-adv-x="1214" 
d="M518 -55v841l-342 -350l-119 105l545 540h10l543 -540l-117 -105l-342 350v-841h-178z" />
    <glyph glyph-name="uni2192" unicode="&#x2192;" horiz-adv-x="1212" 
d="M39 424v178h840l-349 342l105 119l541 -545v-10l-541 -543l-105 117l349 342h-840z" />
    <glyph glyph-name="arrowdown" unicode="&#x2193;" horiz-adv-x="1214" 
d="M518 1081h178v-839l342 348l117 -105l-543 -540h-10l-545 540l119 105l342 -348v839z" />
    <glyph glyph-name="partialdiff" unicode="&#x2202;" horiz-adv-x="1110" 
d="M532 668q-120 0 -198 -104t-78 -232q2 -72 47 -124t135 -51t178 96t148 247q-82 168 -232 168zM391 -23q-141 1 -239 91t-99 239q0 203 134 368q135 165 329 165t301 -172q29 126 29 250t-52 199t-152 75t-191 -72l-93 135q154 113 326 113t272 -117t100 -333t-81 -432
q-82 -216 -239 -362t-345 -147z" />
    <glyph glyph-name="uni2206" unicode="&#x2206;" horiz-adv-x="1208" 
d="M541 748l-295 -562h577l-55 562q-14 201 -27 415h-8q-106 -241 -192 -415zM-29 0l27 131l647 1208h264l150 -1208l-25 -131h-1063z" />
    <glyph glyph-name="product" unicode="&#x220f;" horiz-adv-x="1359" 
d="M188 -246v1549h1024v-1549h-221v1356h-583v-1356h-220z" />
    <glyph glyph-name="summation" unicode="&#x2211;" horiz-adv-x="1021" 
d="M70 -246v135l442 662l-420 616v136h885v-185h-621l2 -8l377 -578l-389 -583l2 -8h678v-187h-956z" />
    <glyph glyph-name="minus" unicode="&#x2212;" horiz-adv-x="1011" 
d="M98 598v158h869v-158h-869z" />
    <glyph glyph-name="uni2215" unicode="&#x2215;" horiz-adv-x="182" 
d="M-436 -25l981 1401h135l-981 -1401h-135z" />
    <glyph glyph-name="uni2219" unicode="&#x2219;" horiz-adv-x="546" 
d="M288 520q-64 0 -98 36q-32 36 -32 98t49 115q49 54 111 54t96 -36q32 -35 32 -99t-48 -116q-46 -52 -110 -52z" />
    <glyph glyph-name="radical" unicode="&#x221a;" horiz-adv-x="1128" 
d="M414 -184l-123 864l-160 -64l-16 113l325 129l76 -670l10 -143h9l51 143l626 1491h156l-799 -1863h-155z" />
    <glyph glyph-name="infinity" unicode="&#x221e;" horiz-adv-x="1568" 
d="M1136 479q85 -1 140 61t55 154t-58 150t-153 59q-147 0 -289 -203q80 -111 150 -166t155 -55zM416 479q125 0 235 172q-121 182 -241 183q-76 0 -122 -48t-46 -126q0 -77 49 -129t125 -52zM1130 276q-121 0 -215 60t-188 184h-8q-150 -203 -322 -203q-139 -1 -229 101
t-90 257t93 257t241 102q190 0 342 -205h8q86 115 171 175t195 61q160 -1 264 -107t105 -279t-105 -288t-262 -115z" />
    <glyph glyph-name="integral" unicode="&#x222b;" horiz-adv-x="712" 
d="M41 -324q-70 0 -100 15l45 159q33 -8 67 -8q78 0 119 73q85 152 132 728q28 333 54 469t55 216q70 199 187 255q70 35 153 35t121 -14l-43 -162q-33 8 -77 8q-76 0 -119 -76t-74 -234t-59 -491t-67 -529q-38 -196 -126 -320t-268 -124z" />
    <glyph glyph-name="approxequal" unicode="&#x2248;" horiz-adv-x="1011" 
d="M690 289q-62 0 -126 42t-120 83t-98 41q-84 0 -145 -119l-115 76q109 197 268 196q62 0 126 -42t120 -83t98 -41q84 0 146 119l114 -76q-108 -196 -268 -196zM690 745q-94 0 -188 84q-93 84 -156 82q-84 0 -145 -118l-115 75q109 197 268 197q95 0 188 -83
q92 -83 156 -83q84 0 146 119l114 -76q-108 -197 -268 -197z" />
    <glyph glyph-name="notequal" unicode="&#x2260;" horiz-adv-x="1011" 
d="M98 369v157h273l176 299h-449v158h531l153 254h148l-154 -254h191v-158h-273l-176 -299h449v-157h-531l-153 -254h-148l154 254h-191z" />
    <glyph glyph-name="lessequal" unicode="&#x2264;" horiz-adv-x="1011" 
d="M98 0v160h869v-160h-869zM967 315l-873 306v182l873 303v-182l-377 -129l-266 -80v-8l266 -80l377 -127v-185z" />
    <glyph glyph-name="greaterequal" unicode="&#x2265;" horiz-adv-x="1011" 
d="M98 0v160h869v-160h-869zM98 315v185l381 127l264 80v8l-264 80l-381 129v182l873 -303v-182z" />
    <glyph glyph-name="uni231C" unicode="&#x231c;" horiz-adv-x="636" 
d="M66 0l282 1413h379l-22 -121h-216l-256 -1292h-167z" />
    <glyph glyph-name="uni231D" unicode="&#x231d;" horiz-adv-x="638" 
d="M197 0l258 1292h-215l24 121h381l-283 -1413h-165z" />
    <glyph glyph-name="uni231E" unicode="&#x231e;" horiz-adv-x="636" 
d="M45 -111l283 1414h166l-258 -1293h215l-25 -121h-381z" />
    <glyph glyph-name="uni231F" unicode="&#x231f;" horiz-adv-x="638" 
d="M-39 -111l23 121h215l256 1293h168l-283 -1414h-379z" />
    <glyph glyph-name="uni25A0" unicode="&#x25a0;" horiz-adv-x="1814" 
d="M127 -123v1630h1630v-1630h-1630z" />
    <glyph glyph-name="triagup" unicode="&#x25b2;" horiz-adv-x="1814" 
d="M135 -123v4l803 1667h8l803 -1667v-4h-1614z" />
    <glyph glyph-name="uni25B3" unicode="&#x25b3;" horiz-adv-x="1814" 
d="M399 35h1086l-543 1163zM135 -123v4l803 1667h8l803 -1667v-4h-1614z" />
    <glyph glyph-name="uni25B6" unicode="&#x25b6;" horiz-adv-x="1814" 
d="M127 -115v1614h4l1667 -803v-8l-1667 -803h-4z" />
    <glyph glyph-name="uni25B7" unicode="&#x25b7;" horiz-adv-x="1814" 
d="M287 150l1167 542l-1167 543v-1085zM127 -115v1614h4l1667 -803v-8l-1667 -803h-4z" />
    <glyph glyph-name="triagdn" unicode="&#x25bc;" horiz-adv-x="1814" 
d="M1749 1507v-4l-803 -1667h-8l-803 1667v4h1614z" />
    <glyph glyph-name="uni25BD" unicode="&#x25bd;" horiz-adv-x="1814" 
d="M1485 1350h-1086l543 -1164zM1749 1507v-4l-803 -1667h-8l-803 1667v4h1614z" />
    <glyph glyph-name="uni25C0" unicode="&#x25c0;" horiz-adv-x="1814" 
d="M1757 1499v-1614h-4l-1667 803v8l1667 803h4z" />
    <glyph glyph-name="uni25C1" unicode="&#x25c1;" horiz-adv-x="1814" 
d="M1597 1235l-1167 -543l1167 -542v1085zM1757 1499v-1614h-4l-1667 803v8l1667 803h4z" />
    <glyph glyph-name="uni25C6" unicode="&#x25c6;" horiz-adv-x="1814" 
d="M942 -164l-856 856l856 856l856 -856z" />
    <glyph glyph-name="uni25C9" unicode="&#x25c9;" horiz-adv-x="1814" 
d="M942 184q-205 0 -348 144t-143 363q0 221 143 365t348 144t348 -144q144 -144 144 -366t-144 -364t-348 -142zM264 692q0 -314 198 -506t481 -192q285 0 481 192t196 506q0 313 -197 506t-481 193t-480 -193q-198 -193 -198 -506zM942 -154q-356 0 -599 234t-243 611
q0 376 243 612q243 235 599 235t599 -236t243 -611q0 -377 -243 -611t-599 -234z" />
    <glyph glyph-name="lozenge" unicode="&#x25ca;" horiz-adv-x="1050" 
d="M551 162h8l225 514l-225 514h-8l-227 -514zM461 -20l-322 696l322 696h186l324 -696l-324 -696h-186z" />
    <glyph glyph-name="uni2610" unicode="&#x2610;" horiz-adv-x="1574" 
d="M242 78h1030v1134h-1030v-1134zM143 -20v1280l136 116h1153v-1261l-115 -135h-1174z" />
    <glyph glyph-name="uni2611" unicode="&#x2611;" horiz-adv-x="1576" 
d="M143 -20v1280l136 116h1032q154 168 270 269l115 -123q-123 -100 -264 -248v-1159l-115 -135h-1174zM242 1212v-1134h1030v1018q-324 -387 -539 -854l-217 -25q-45 313 -164 571l160 84q98 -252 129 -485h8q207 436 522 825h-929z" />
    <glyph glyph-name="uni266A" unicode="&#x266a;" horiz-adv-x="1021" 
d="M260 -53q-84 0 -145 42t-61 132t91 166q92 76 228 75q80 0 119 -24v1083h122q14 -39 37 -63t99 -82q133 -96 185 -190t52 -225q0 -132 -80 -271l-76 31q27 86 27 185t-63 184t-172 120v-797q-1 -176 -101 -271t-262 -95z" />
    <glyph glyph-name="uni2713" unicode="&#x2713;" horiz-adv-x="1132" 
d="M152 -41q-51 340 -183 612l162 84q106 -260 145 -526h9q172 365 424 705t520 569l114 -123q-279 -225 -533 -557t-441 -739z" />
    <glyph glyph-name="uni2752" unicode="&#x2752;" horiz-adv-x="1814" 
d="M242 -10h1335v1337h-1335v-1337zM127 -123v1497l154 133h1476v-1476l-133 -154h-1497z" />
    <glyph glyph-name="uni2E22" unicode="&#x2e22;" horiz-adv-x="636" 
d="M180 569l176 881h381l-22 -121h-215l-152 -760h-168z" />
    <glyph glyph-name="uni2E23" unicode="&#x2e23;" horiz-adv-x="638" 
d="M311 569l152 760h-215l24 121h381l-176 -881h-166z" />
    <glyph glyph-name="uni2E24" unicode="&#x2e24;" horiz-adv-x="636" 
d="M4 -311l176 880h166l-151 -759h215l-25 -121h-381z" />
    <glyph glyph-name="uni2E25" unicode="&#x2e25;" horiz-adv-x="638" 
d="M-80 -311l23 121h217l149 759h168l-176 -880h-381z" />
    </font>
</defs>
</svg>
